<svg viewBox="0 0 1498 400" xmlns="http://www.w3.org/2000/svg"><g><g><g><g><g><line x1="50" y1="377" x2="45" y2="377" style="visibility: inherit;" fill="rgb(0, 0, 0)" stroke="rgb(204, 204, 204)" stroke-width="1px"></line><line x1="50" y1="339.29999999999995" x2="45" y2="339.29999999999995" style="visibility: inherit;" fill="rgb(0, 0, 0)" stroke="rgb(204, 204, 204)" stroke-width="1px"></line><line x1="50" y1="301.5999999999999" x2="45" y2="301.5999999999999" style="visibility: inherit;" fill="rgb(0, 0, 0)" stroke="rgb(204, 204, 204)" stroke-width="1px"></line><line x1="50" y1="263.8999999999999" x2="45" y2="263.8999999999999" style="visibility: inherit;" fill="rgb(0, 0, 0)" stroke="rgb(204, 204, 204)" stroke-width="1px"></line><line x1="50" y1="226.1999999999999" x2="45" y2="226.1999999999999" style="visibility: inherit;" fill="rgb(0, 0, 0)" stroke="rgb(204, 204, 204)" stroke-width="1px"></line><line x1="50" y1="188.50000000000009" x2="45" y2="188.50000000000009" style="visibility: inherit;" fill="rgb(0, 0, 0)" stroke="rgb(204, 204, 204)" stroke-width="1px"></line><line x1="50" y1="150.8000000000001" x2="45" y2="150.8000000000001" style="visibility: inherit;" fill="rgb(0, 0, 0)" stroke="rgb(204, 204, 204)" stroke-width="1px"></line><line x1="50" y1="113.10000000000007" x2="45" y2="113.10000000000007" style="visibility: inherit;" fill="rgb(0, 0, 0)" stroke="rgb(204, 204, 204)" stroke-width="1px"></line><line x1="50" y1="75.40000000000002" x2="45" y2="75.40000000000002" style="visibility: inherit;" fill="rgb(0, 0, 0)" stroke="rgb(204, 204, 204)" stroke-width="1px"></line><line x1="50" y1="37.70000000000003" x2="45" y2="37.70000000000003" style="visibility: inherit;" fill="rgb(0, 0, 0)" stroke="rgb(204, 204, 204)" stroke-width="1px"></line><line x1="50" y1="0" x2="45" y2="0" style="visibility: inherit;" fill="rgb(0, 0, 0)" stroke="rgb(204, 204, 204)" stroke-width="1px"></line></g><g transform="translate(40, 0)"><text x="0" y="377" dx="0em" dy="0.3em" style="text-anchor: end; visibility: hidden; font-family: Roboto, sans-serif; font-size: 12px; font-weight: 200;" fill="rgb(255, 255, 255)" stroke="none" stroke-width="1px">0.72</text><text x="0" y="339.29999999999995" dx="0em" dy="0.3em" style="text-anchor: end; visibility: inherit; font-family: Roboto, sans-serif; font-size: 12px; font-weight: 200;" fill="rgb(255, 255, 255)" stroke="none" stroke-width="1px">0.74</text><text x="0" y="301.5999999999999" dx="0em" dy="0.3em" style="text-anchor: end; visibility: inherit; font-family: Roboto, sans-serif; font-size: 12px; font-weight: 200;" fill="rgb(255, 255, 255)" stroke="none" stroke-width="1px">0.76</text><text x="0" y="263.8999999999999" dx="0em" dy="0.3em" style="text-anchor: end; visibility: inherit; font-family: Roboto, sans-serif; font-size: 12px; font-weight: 200;" fill="rgb(255, 255, 255)" stroke="none" stroke-width="1px">0.78</text><text x="0" y="226.1999999999999" dx="0em" dy="0.3em" style="text-anchor: end; visibility: inherit; font-family: Roboto, sans-serif; font-size: 12px; font-weight: 200;" fill="rgb(255, 255, 255)" stroke="none" stroke-width="1px">0.8</text><text x="0" y="188.50000000000009" dx="0em" dy="0.3em" style="text-anchor: end; visibility: inherit; font-family: Roboto, sans-serif; font-size: 12px; font-weight: 200;" fill="rgb(255, 255, 255)" stroke="none" stroke-width="1px">0.82</text><text x="0" y="150.8000000000001" dx="0em" dy="0.3em" style="text-anchor: end; visibility: inherit; font-family: Roboto, sans-serif; font-size: 12px; font-weight: 200;" fill="rgb(255, 255, 255)" stroke="none" stroke-width="1px">0.84</text><text x="0" y="113.10000000000007" dx="0em" dy="0.3em" style="text-anchor: end; visibility: inherit; font-family: Roboto, sans-serif; font-size: 12px; font-weight: 200;" fill="rgb(255, 255, 255)" stroke="none" stroke-width="1px">0.86</text><text x="0" y="75.40000000000002" dx="0em" dy="0.3em" style="text-anchor: end; visibility: inherit; font-family: Roboto, sans-serif; font-size: 12px; font-weight: 200;" fill="rgb(255, 255, 255)" stroke="none" stroke-width="1px">0.88</text><text x="0" y="37.70000000000003" dx="0em" dy="0.3em" style="text-anchor: end; visibility: inherit; font-family: Roboto, sans-serif; font-size: 12px; font-weight: 200;" fill="rgb(255, 255, 255)" stroke="none" stroke-width="1px">0.9</text><text x="0" y="0" dx="0em" dy="0.3em" style="text-anchor: end; visibility: hidden; font-family: Roboto, sans-serif; font-size: 12px; font-weight: 200;" fill="rgb(255, 255, 255)" stroke="none" stroke-width="1px">0.92</text></g><line x1="50" y1="0" x2="50" y2="377" fill="rgb(0, 0, 0)" stroke="rgb(204, 204, 204)" stroke-width="1px"></line></g></g><g transform="translate(50, 0)" clip-path="url(#clip_0)"><clipPath id="clip_0"><rect width="1448" height="377"></rect></clipPath><g><g><g><line x1="0" y1="0" x2="0" y2="377" fill="rgb(0, 0, 0)" stroke="rgb(189, 189, 189)" stroke-width="1px" opacity="0.25"></line><line x1="120.66666666666666" y1="0" x2="120.66666666666666" y2="377" fill="rgb(0, 0, 0)" stroke="rgb(189, 189, 189)" stroke-width="1px" opacity="0.25"></line><line x1="241.33333333333331" y1="0" x2="241.33333333333331" y2="377" fill="rgb(0, 0, 0)" stroke="rgb(189, 189, 189)" stroke-width="1px" opacity="0.25"></line><line x1="362" y1="0" x2="362" y2="377" fill="rgb(0, 0, 0)" stroke="rgb(189, 189, 189)" stroke-width="1px" opacity="0.25"></line><line x1="482.66666666666663" y1="0" x2="482.66666666666663" y2="377" fill="rgb(0, 0, 0)" stroke="rgb(189, 189, 189)" stroke-width="1px" opacity="0.25"></line><line x1="603.3333333333334" y1="0" x2="603.3333333333334" y2="377" fill="rgb(0, 0, 0)" stroke="rgb(189, 189, 189)" stroke-width="1px" opacity="0.25"></line><line x1="724" y1="0" x2="724" y2="377" fill="rgb(0, 0, 0)" stroke="rgb(189, 189, 189)" stroke-width="1px" opacity="0.25"></line><line x1="844.6666666666667" y1="0" x2="844.6666666666667" y2="377" fill="rgb(0, 0, 0)" stroke="rgb(189, 189, 189)" stroke-width="1px" opacity="0.25"></line><line x1="965.3333333333333" y1="0" x2="965.3333333333333" y2="377" fill="rgb(0, 0, 0)" stroke="rgb(189, 189, 189)" stroke-width="1px" opacity="0.25"></line><line x1="1086" y1="0" x2="1086" y2="377" fill="rgb(0, 0, 0)" stroke="rgb(189, 189, 189)" stroke-width="1px" opacity="0.25"></line><line x1="1206.6666666666667" y1="0" x2="1206.6666666666667" y2="377" fill="rgb(0, 0, 0)" stroke="rgb(189, 189, 189)" stroke-width="1px" opacity="0.25"></line><line x1="1327.3333333333333" y1="0" x2="1327.3333333333333" y2="377" fill="rgb(0, 0, 0)" stroke="rgb(189, 189, 189)" stroke-width="1px" opacity="0.25"></line><line x1="1448" y1="0" x2="1448" y2="377" fill="rgb(0, 0, 0)" stroke="rgb(189, 189, 189)" stroke-width="1px" opacity="0.25"></line></g><g><line x1="0" y1="377" x2="1448" y2="377" fill="rgb(0, 0, 0)" stroke="rgb(189, 189, 189)" stroke-width="1px" opacity="0.25"></line><line x1="0" y1="339.29999999999995" x2="1448" y2="339.29999999999995" fill="rgb(0, 0, 0)" stroke="rgb(189, 189, 189)" stroke-width="1px" opacity="0.25"></line><line x1="0" y1="301.5999999999999" x2="1448" y2="301.5999999999999" fill="rgb(0, 0, 0)" stroke="rgb(189, 189, 189)" stroke-width="1px" opacity="0.25"></line><line x1="0" y1="263.8999999999999" x2="1448" y2="263.8999999999999" fill="rgb(0, 0, 0)" stroke="rgb(189, 189, 189)" stroke-width="1px" opacity="0.25"></line><line x1="0" y1="226.1999999999999" x2="1448" y2="226.1999999999999" fill="rgb(0, 0, 0)" stroke="rgb(189, 189, 189)" stroke-width="1px" opacity="0.25"></line><line x1="0" y1="188.50000000000009" x2="1448" y2="188.50000000000009" fill="rgb(0, 0, 0)" stroke="rgb(189, 189, 189)" stroke-width="1px" opacity="0.25"></line><line x1="0" y1="150.8000000000001" x2="1448" y2="150.8000000000001" fill="rgb(0, 0, 0)" stroke="rgb(189, 189, 189)" stroke-width="1px" opacity="0.25"></line><line x1="0" y1="113.10000000000007" x2="1448" y2="113.10000000000007" fill="rgb(0, 0, 0)" stroke="rgb(189, 189, 189)" stroke-width="1px" opacity="0.25"></line><line x1="0" y1="75.40000000000002" x2="1448" y2="75.40000000000002" fill="rgb(0, 0, 0)" stroke="rgb(189, 189, 189)" stroke-width="1px" opacity="0.25"></line><line x1="0" y1="37.70000000000003" x2="1448" y2="37.70000000000003" fill="rgb(0, 0, 0)" stroke="rgb(189, 189, 189)" stroke-width="1px" opacity="0.25"></line><line x1="0" y1="0" x2="1448" y2="0" fill="rgb(0, 0, 0)" stroke="rgb(189, 189, 189)" stroke-width="1px" opacity="0.25"></line></g></g></g><g><g><line x1="0" y1="1734.1999999999996" x2="1448" y2="1734.1999999999996" fill="rgb(0, 0, 0)" stroke="rgb(153, 153, 153)" stroke-width="1.5px"></line></g></g><g><g><line x1="120.66666666666666" y1="0" x2="120.66666666666666" y2="377" fill="rgb(0, 0, 0)" stroke="rgb(153, 153, 153)" stroke-width="1.5px"></line></g></g><g><g><g><g><g><path stroke="rgb(255, 112, 67)" stroke-width="2px" d="M159.28,377.02687033641536L160.48666666666668,371.4546298550751L161.69333333333333,365.8375400154069L162.9,360.2294041580452L164.10666666666665,354.757960903625L165.31333333333333,349.46767503085863L166.52,343.02420484333646L167.72666666666666,335.98904450821755L168.93333333333334,327.7243905486725L170.14,318.2731606945328L171.34666666666666,309.05650670471886L172.55333333333334,300.49873342233L173.76,292.5549309175385L174.96666666666667,285.6717959397536L176.17333333333335,279.8076968328577L177.38,274.1598900445031L178.58666666666667,268.7385286787559L179.79333333333332,263.8450627790871L181,259.33080340304184L182.20666666666665,254.8283018688831L183.41333333333336,251.54372470976793L184.62,248.81355015159286L185.82666666666665,246.4638353378787L187.03333333333336,244.28172480292275L188.24,242.54312849060892L189.44666666666666,240.99361029157728L190.6533333333333,239.93181512170835L191.86,239.1320932758676L193.06666666666666,238.25128851728596L194.2733333333333,237.4280317258653L195.48000000000002,236.5490603752028L196.68666666666667,236.18589527530042L197.89333333333332,235.69708642913432L199.10000000000002,235.37234178992222L200.30666666666667,235.069274905992L201.51333333333332,234.87395220498604L202.72000000000003,234.99611915529007L203.92666666666668,235.39915806162506L205.13333333333333,235.80978318994124L206.33999999999997,236.11076267805623L207.54666666666668,236.11773980287887L208.75333333333333,236.27364993946657L209.95999999999998,236.90083616767487L211.16666666666669,237.59758366700518L212.37333333333333,238.35134817574334L213.57999999999998,239.1046726835604L214.7866666666667,240.02262502985218L215.99333333333334,240.64602255151883L217.2,241.37883226946715L218.4066666666667,241.98934227034877L219.61333333333334,242.84214436176683L220.82,243.44352965333027L222.02666666666664,243.9106034849762L223.23333333333335,244.32760599223855L224.44,244.76027161936818L225.64666666666665,245.4450213900857L226.85333333333335,245.94251923988182L228.06,246.31292499321654L229.26666666666665,246.7454965473292L230.47333333333336,247.00229802376504L231.68,247.4439621415525L232.88666666666666,248.0586086110347L234.0933333333333,248.6041979358241L235.3,249.1728895453003L236.50666666666666,249.6057410494914L237.7133333333333,249.94675185301486L238.92000000000002,250.37885424386627L240.12666666666667,250.95167532975168L241.33333333333331,251.39266719946076" style="fill: none;" fill="none"></path></g><g><path stroke="rgb(0, 119, 187)" stroke-width="2px" d="M133.94,378.31154415828894L135.14666666666668,348.58330178989945L136.35333333333332,314.5971678794827L137.56,289.5969092520609L138.76666666666668,273.5331079329125L139.97333333333333,261.6252301584866L141.18,254.13802593960173L142.38666666666666,250.33415058157058L143.59333333333333,247.7665842684895L144.8,243.6875534003217L146.00666666666666,241.99270910341278L147.21333333333334,241.20719027817307L148.42,237.67086860930746L149.62666666666667,234.44814648767306L150.83333333333334,232.39578614475082L152.04,229.71674759347053L153.24666666666667,226.84313294006142L154.45333333333335,223.64653358563075L155.66,220.1978085357862L156.86666666666667,216.8966715666642L158.07333333333332,213.49097182952977L159.28,208.9210082196211L160.48666666666668,203.1144418317741L161.69333333333333,195.04359668487987L162.9,186.09074824436652L164.10666666666665,175.8915598662777L165.31333333333333,165.00043029911944L166.52,154.10701726282434L167.72666666666666,145.3388400073495L168.93333333333334,139.17837655171644L170.14,134.88437118439148L171.34666666666666,131.23044091947833L172.55333333333334,128.5722599456264L173.76,126.84355931905094L174.96666666666667,124.85626713152223L176.17333333333335,122.04885962299211L177.38,117.97498900572144L178.58666666666667,114.35503141680992L179.79333333333332,110.98638883466741L181,106.57168746011963L182.20666666666665,101.23223989494547L183.41333333333336,97.22689770511374L184.62,95.17891318590006L185.82666666666665,93.57382392758312L187.03333333333336,91.01002970143499L188.24,88.62747459175687L189.44666666666666,86.15101991511841L190.6533333333333,84.47504286299623L191.86,84.0029619522718L193.06666666666666,83.85130329536386L194.2733333333333,82.95818503145557L195.48000000000002,81.38024618771173L196.68666666666667,80.11381113139693L197.89333333333332,79.5728171611303L199.10000000000002,79.05137524750658L200.30666666666667,79.3803703459908L201.51333333333332,78.98844424204867L202.72000000000003,77.92649240563439L203.92666666666668,76.66471874755682L205.13333333333333,76.49041619802742L206.33999999999997,77.600074980886L207.54666666666668,78.88112489118042L208.75333333333333,79.29377003034273L209.95999999999998,79.08160145473697L211.16666666666669,79.33765473480368L212.37333333333333,80.08568830082044L213.57999999999998,81.17102060073145L214.7866666666667,82.22521401735256L215.99333333333334,82.97812942321367L217.2,83.19083268913803L218.4066666666667,83.2304134623597L219.61333333333334,83.50983640768453L220.82,84.20488339673484L222.02666666666664,84.70262724644546L223.23333333333335,85.10450510553491L224.44,85.77941106064321L225.64666666666665,86.41913113059532L226.85333333333335,87.19818226016729L228.06,87.66601741502983L229.26666666666665,87.96766143435417L230.47333333333336,87.82740312930449L231.68,87.51696566889571L232.88666666666666,87.13044207662287L234.0933333333333,86.88432628017627L235.3,86.56920327485783L236.50666666666666,86.35096217716442L237.7133333333333,86.24172445729222L238.92000000000002,85.52137831088802L240.12666666666667,84.34326987288549L241.33333333333331,83.50980347169723" style="fill: none;" fill="none"></path></g><g><path stroke="rgb(204, 51, 17)" stroke-width="2px" d="M133.94,385.2581361345215L135.14666666666668,367.0277219553017L136.35333333333332,336.9547412990341L137.56,306.57611998731096L138.76666666666668,283.6496352549094L139.97333333333333,263.33448886487537L141.18,246.13207489514292L142.38666666666666,236.45207847506177L143.59333333333333,229.4254066822242L144.8,224.41885102558524L146.00666666666666,222.34598176813438L147.21333333333334,220.6368648516304L148.42,215.41384722976554L149.62666666666667,208.2348682160777L150.83333333333334,201.15188281003208L152.04,193.5667354958089L153.24666666666667,183.7903899016429L154.45333333333335,173.7463377392696L155.66,164.2617645696317L156.86666666666667,154.62687575695892L158.07333333333332,144.5033420764718L159.28,136.72969962022435L160.48666666666668,131.10942047020853L161.69333333333333,128.5765431988589L162.9,126.49324541971117L164.10666666666665,125.83870204301105L165.31333333333333,123.63324438644374L166.52,121.47458972077477L167.72666666666666,121.18874710937774L168.93333333333334,122.34208387851179L170.14,121.04082269277802L171.34666666666666,116.98236317204791L172.55333333333334,112.8700107298383L173.76,110.40183525293568L174.96666666666667,109.34621518725803L176.17333333333335,108.8898243586414L177.38,106.56600993625737L178.58666666666667,103.44455904090813L179.79333333333332,100.41029986809238L181,97.93907550494167L182.20666666666665,96.36281678866763L183.41333333333336,95.25243937129306L184.62,93.27035896750637L185.82666666666665,90.17907954199217L187.03333333333336,85.73156860913403L188.24,81.54968843606291L189.44666666666666,78.90375718204423L190.6533333333333,77.61798330264222L191.86,76.10888753483847L193.06666666666666,73.74529005855408L194.2733333333333,70.53084868532464L195.48000000000002,68.84738687957545L196.68666666666667,68.4536879842593L197.89333333333332,67.64221229941332L199.10000000000002,66.96922247165847L200.30666666666667,65.62376089903336L201.51333333333332,65.05827138908293L202.72000000000003,65.01514481835144L203.92666666666668,64.77251408179148L205.13333333333333,64.72935823487944L206.33999999999997,64.58657083921258L207.54666666666668,64.14176766164677L208.75333333333333,63.63512070708011L209.95999999999998,63.15711748917456L211.16666666666669,62.31838405799606L212.37333333333333,61.178631838987606L213.57999999999998,60.239420619505665L214.7866666666667,59.67423103743677L215.99333333333334,59.1577316003672L217.2,57.79682061419695L218.4066666666667,56.12363642541056L219.61333333333334,54.75286516480154L220.82,53.771667610004656L222.02666666666664,52.8973882307977L223.23333333333335,51.98735390844181L224.44,50.86634661878499L225.64666666666665,49.9503369028888L226.85333333333335,49.47830079648032L228.06,49.123486682493535L229.26666666666665,48.628408010434484L230.47333333333336,48.2094783685393L231.68,47.7561966169945L232.88666666666666,47.73086872512532L234.0933333333333,48.08509442576439L235.3,48.51209260325827L236.50666666666666,48.55845776856654L237.7133333333333,48.37122986591286L238.92000000000002,48.56040834591638L240.12666666666667,49.06837050918254L241.33333333333331,49.68796583177752L242.54000000000002,49.483972316754574L243.74666666666667,49.53896189556878L244.95333333333332,49.463196239628424L246.16000000000003,49.52775462255372L247.36666666666667,50.0813440834612L248.57333333333332,50.70553024024551L249.77999999999997,51.50258569843044L250.98666666666668,52.10831914977127L252.19333333333333,52.68685116431652L253.39999999999998,53.07693483150917L254.60666666666668,54.06753701279701L255.81333333333333,54.964132613600086L257.02,55.79614483991907L258.2266666666667,56.340968206403645L259.43333333333334,56.82210283450968L260.64,57.76990154846131L261.8466666666667,58.46077780880696L263.05333333333334,59.16037005041923L264.26,59.57509190234485L265.46666666666664,60.0896664809762L266.67333333333335,60.96220739076021L267.88,61.64046690576959L269.08666666666664,62.24220081873941L270.29333333333335,62.833298763681725L271.5,63.25271881166061L272.70666666666665,63.65357795562134L273.91333333333336,64.36288242343534L275.12,65.35199161531618L276.32666666666665,66.26476934529603L277.53333333333336,66.50206720696235L278.74,66.40292814175098L279.94666666666666,66.65062260389219L281.1533333333333,67.53664601182874L282.36,68.36977527818634L283.56666666666666,68.57869896341315L284.7733333333333,68.39930213599764L285.98,68.66131118481974L287.18666666666667,69.41772699562081L288.3933333333333,69.96447139386751L289.6,70.19571317556138L290.8066666666667,70.24664176775589L292.0133333333333,70.51318885131818L293.22,70.95449835088347L294.4266666666667,71.12737786070404L295.6333333333333,70.8930525785439L296.84,70.68837025676677L298.0466666666667,70.47086827584823L299.25333333333333,70.56417776005706L300.46,70.97053051982671L301.6666666666667,70.82487565156444L302.87333333333333,70.11386889622577L304.08,69.37586240295158L305.2866666666667,69.01354945375691L306.49333333333334,69.1091370908867L307.7,69.19165713837464L308.9066666666667,69.07277185947137L310.11333333333334,68.60213189143204L311.32,67.97877369891576L312.52666666666664,67.51006619555335L313.73333333333335,67.34811750187025L314.94,67.0916292425009L316.14666666666665,66.93342186427213L317.35333333333335,66.72394052872708L318.56,66.46405520754854L319.76666666666665,66.1896571607458L320.97333333333336,65.97257113284275L322.18,65.79104080573568L323.38666666666666,65.63906826720157L324.5933333333333,65.76715628472277L325.8,65.80221312622618L327.00666666666666,66.00818315851927L328.2133333333333,66.48959260289813L329.42,66.95986872854785L330.62666666666667,67.43056568350163L331.8333333333333,68.23934341457944L333.04,69.2151958572116L334.24666666666667,69.7303732459097L335.4533333333333,70.15740723039814L336.66,70.15395331040708L337.8666666666667,69.91535172734083L339.0733333333333,70.50195738478547L340.28,71.0507663107158L341.4866666666667,71.14001696683415L342.6933333333333,70.6961953292934L343.9,70.18263200108092L345.1066666666667,70.34651880254671L346.31333333333333,70.64605577939956L347.52,71.10284479233152L348.7266666666667,71.44320750577782L349.93333333333334,71.101470906398L351.14,70.88123858383982L352.3466666666667,70.91884475476562L353.55333333333334,71.3808953185502L354.76,71.48703183529521L355.96666666666664,71.94885405658341L357.17333333333335,72.28697849249062L358.38,72.6316448553514L359.58666666666664,72.86064597273521L360.79333333333335,73.35259330931113L362,74.11273063101054L363.2066666666667,74.33605891274024L364.4133333333333,74.32305091981053L365.62,74.40220870473345L366.8266666666667,74.6777385872506L368.0333333333333,75.27220674049273L369.24,75.89404485518585L370.4466666666667,75.85076100048335L371.6533333333333,75.98141321669165L372.86,76.48751662927933L374.0666666666667,77.33380720351971L375.2733333333333,78.04148312887442L376.48,78.47175136375951L377.6866666666666,78.4684852598221L378.8933333333333,78.92412404525939L380.1,79.69384568398391L381.3066666666666,80.21293465057116L382.5133333333333,80.07865424489441L383.72,79.60929360589654L384.9266666666666,79.51854548097424L386.1333333333333,79.79585772777065L387.34000000000003,79.80867859616566L388.5466666666666,79.82962897834001L389.75333333333333,79.30253684649978L390.96000000000004,78.97010248261742L392.16666666666663,79.11727875565323L393.37333333333333,79.55977165040284L394.58000000000004,79.82688529573022L395.78666666666663,79.72060306121186L396.99333333333334,79.35823972254553L398.20000000000005,79.01156880873171L399.40666666666664,79.49890737067304L400.61333333333334,79.80901761728897L401.82000000000005,79.75482435630784L403.02666666666664,78.81672907118235L404.23333333333335,77.96610890057232L405.44000000000005,77.29120449439601L406.64666666666665,76.64496877798977L407.85333333333335,76.16244487648939L409.05999999999995,75.8181912987575L410.26666666666665,75.20518458897725L411.47333333333336,74.31753758081713L412.67999999999995,73.61978788548073L413.88666666666666,73.08010952576007L415.09333333333336,72.89463368477821L416.29999999999995,72.22575400008203L417.50666666666666,71.20454253276267L418.71333333333337,70.5414357800489L419.91999999999996,70.37358438367872L421.12666666666667,70.2671659242823L422.33333333333337,69.9757290561027L423.53999999999996,69.18071362728033L424.74666666666667,68.6590321192393L425.9533333333334,68.73706270511437L427.15999999999997,68.97335611614874L428.3666666666667,68.90520853777707L429.5733333333334,68.71812398302552L430.78,68.30817809026242L431.9866666666667,68.27550482225892L433.1933333333334,68.731835605338L434.4,69.0548005161495L435.6066666666667,68.9893096290713L436.8133333333334,69.04897716538221L438.02,69.48138997373648L439.2266666666667,70.05435236822161L440.4333333333333,70.34909818965563L441.64,70.70840980528823L442.8466666666667,70.86143764685995L444.0533333333333,71.1581444837535L445.26,71.42169302570133L446.4666666666667,71.42432316939424L447.6733333333333,71.06344481468435L448.88,70.82040207958376L450.0866666666667,71.07936815128437L451.2933333333333,71.42112186256468L452.5,71.9936190813985L453.7066666666667,72.4408433228854L454.9133333333333,72.17414452255498L456.12,71.53198851597742L457.3266666666667,71.51014007480389L458.5333333333333,71.76564875931419L459.74,71.79473455244835L460.9466666666667,71.7700754660042L462.1533333333333,71.56229948626003L463.36,71.98435213819776L464.5666666666667,72.20684346828249L465.7733333333333,72.12371829791893L466.98,72.35167403485806L468.1866666666666,72.53541176477921L469.3933333333333,72.87386938190377L470.6,72.95330877933458L471.8066666666666,72.80489089866613L473.0133333333333,72.26269097077916L474.22,71.91395628302145L475.4266666666666,72.08622727780865L476.6333333333333,71.7994492220243L477.84000000000003,71.38492082639709L479.0466666666666,71.10299172332384L480.25333333333333,71.12528676468449L481.46000000000004,71.42391004251428L482.66666666666663,71.58272532753342L483.87333333333333,71.19956300814273L485.08000000000004,70.83380624627647L486.28666666666663,70.69771941766471L487.49333333333334,70.98288312593289L488.70000000000005,70.8338601818036L489.90666666666664,70.45209934177112L491.11333333333334,69.9243140140897L492.32000000000005,69.31354300974164L493.52666666666664,68.61855510233856L494.73333333333335,68.32079322432891L495.94000000000005,68.0737345224347L497.14666666666665,67.87529919658458L498.35333333333335,67.61309804269288L499.55999999999995,66.73675185768968L500.76666666666665,66.19116970973703L501.97333333333336,66.04259930776061L503.17999999999995,66.17254883960803L504.38666666666666,66.03708946535545L505.59333333333336,65.74508126157251L506.79999999999995,64.96289100872104L508.00666666666666,63.91625318185465L509.21333333333337,63.42170299324977L510.41999999999996,63.13319724818219L511.62666666666667,62.99937302363005L512.8333333333334,62.62178780610606L514.04,61.55549723372L515.2466666666667,60.54378370800716L516.4533333333334,59.85720842575503L517.66,59.62880598482758L518.8666666666667,59.47455177174366L520.0733333333334,59.45309733311166L521.28,59.090351961611674L522.4866666666667,58.576267952060114L523.6933333333334,58.226515938243544L524.9,58.4820830687294L526.1066666666667,58.74081210758755L527.3133333333334,58.631027133861075L528.52,58.410106587170965L529.7266666666667,57.949388489579995L530.9333333333333,57.78854820338235L532.14,57.7114589333974L533.3466666666667,57.675227415588175L534.5533333333333,57.65429745914153L535.76,57.339010832319445L536.9666666666667,56.83048169947253L538.1733333333333,56.425862848380795L539.38,56.70181097246378L540.5866666666667,57.24120658908582L541.7933333333333,57.52547485276644L543,57.32270342972626L544.2066666666667,57.236949155728546L545.4133333333333,57.0917028415207L546.62,57.486377186060004L547.8266666666667,57.49182088046084L549.0333333333333,57.47832376759543L550.24,57.42973284602943L551.4466666666667,57.406375798468524L552.6533333333333,57.317892838051826L553.86,57.23698402436441L555.0666666666667,57.147182069968366L556.2733333333333,56.887871462554436L557.48,56.46802671340157L558.6866666666666,56.33944044343849L559.8933333333333,56.07389222760343L561.1,55.78018701064207L562.3066666666666,55.27822497360473L563.5133333333333,55.069987605050706L564.72,54.93380970837805L565.9266666666666,54.791521286261904L567.1333333333333,55.244237627561745L568.34,55.67680438397858L569.5466666666666,55.840618186226884L570.7533333333333,55.68750146688922L571.96,55.28818388260557L573.1666666666666,55.29307727978912L574.3733333333333,55.65069480995101L575.58,55.963418442367164L576.7866666666666,55.63822057626153L577.9933333333333,54.92559585321858L579.2,54.30580450385169L580.4066666666666,54.35323764139033L581.6133333333333,54.73876093657984L582.82,54.84599032182787L584.0266666666666,54.78359178888372L585.2333333333333,54.512454777882L586.44,54.312605618194034L587.6466666666666,54.53623202249739L588.8533333333334,54.910352680715036L590.06,55.23720272876762L591.2666666666667,55.40086470423901L592.4733333333334,55.45205265986194L593.68,55.282639142914306L594.8866666666667,55.387049654152406L596.0933333333334,55.90904714287896L597.3,56.26983911050327L598.5066666666667,56.54105352790944L599.7133333333334,56.63965008396965L600.92,56.760827842587794L602.1266666666667,57.17900289966747L603.3333333333334,57.60037256881069L604.54,57.70587481501382L605.7466666666667,57.94764045621579L606.9533333333334,58.14752896157278L608.16,58.34076230721091L609.3666666666667,58.32016881582991L610.5733333333334,58.192806393372145L611.78,58.15629734901617L612.9866666666667,58.311013597894096L614.1933333333334,58.589453403144056L615.4,58.68070029734907L616.6066666666667,58.57936520766816L617.8133333333334,58.35380714053873L619.02,58.08503979274595L620.2266666666667,58.059054509574075L621.4333333333333,58.176266660555655L622.64,58.070601462283435L623.8466666666667,57.702810839985936L625.0533333333333,57.38946626435235L626.26,57.50072764545993L627.4666666666667,57.637324190082L628.6733333333333,57.93720540043224L629.88,58.23825255296524L631.0866666666667,58.40193774737057L632.2933333333333,58.66364750407427L633.5,59.04956246580057L634.7066666666667,59.631298744472176L635.9133333333333,60.12339058625247L637.12,60.65953428690165L638.3266666666667,60.83381106820434L639.5333333333333,61.1142797420428L640.74,61.70640802562266L641.9466666666667,62.391603499531826L643.1533333333333,62.50700306766045L644.36,62.26848066254158L645.5666666666667,62.347200448535276L646.7733333333333,62.69985748721523L647.98,63.11404980536327L649.1866666666666,63.278299129700784L650.3933333333333,62.87336459439751L651.6,62.905178663025765L652.8066666666666,62.934603741699746L654.0133333333333,63.20038303073306L655.22,63.32340272150068L656.4266666666666,63.166213158855705L657.6333333333333,62.631019361072674L658.84,62.109417256864276L660.0466666666666,61.85249854633364L661.2533333333333,61.799691309387434L662.46,61.8067468868821L663.6666666666666,61.64891973418762L664.8733333333333,61.50797822524767L666.08,61.7191310361007L667.2866666666666,61.98774924963604L668.4933333333333,61.94659173423002L669.7,62.151640228831376L670.9066666666666,62.368373191597335L672.1133333333333,62.83179199948458L673.32,63.31927254828536L674.5266666666666,63.75943996806573L675.7333333333333,63.83909885346671L676.94,63.886849242805305L678.1466666666666,64.12232211015146L679.3533333333334,64.43141889322708L680.56,64.59386670916624L681.7666666666667,64.5333646126352L682.9733333333334,64.24493928359523L684.18,63.959394505063365L685.3866666666667,63.853143512272695L686.5933333333334,63.82759353343476L687.8,63.78628712668335L689.0066666666667,63.74145919426861L690.2133333333334,63.51075090852124L691.42,63.38949374369831L692.6266666666667,63.27107847220933L693.8333333333334,63.1061456757022L695.04,63.10592335684506L696.2466666666667,63.17891044034627L697.4533333333334,63.33281035074045L698.66,64.16448952942152L699.8666666666667,65.12464589470069L701.0733333333334,65.46007582779782L702.28,65.52403627655546L703.4866666666667,65.4263284660676L704.6933333333334,65.19652007444488L705.9,65.48513369097584L707.1066666666667,65.86961868485368L708.3133333333334,65.83227617669444L709.52,65.13124794917314L710.7266666666667,64.30988407109378L711.9333333333333,63.97427251800435L713.14,63.90889978208863L714.3466666666667,63.89327063917337L715.5533333333333,63.28351428246034L716.76,62.451028698298586L717.9666666666667,61.88340542412601L719.1733333333333,61.72754267750263L720.38,61.79905169426237L721.5866666666667,61.56911481630123L722.7933333333333,61.03130458600104L724,60.43730418447707L725.2066666666667,59.959156330609595L726.4133333333334,59.905920567622545L727.6199999999999,59.982783454961066L728.8266666666666,60.15676089901122L730.0333333333333,60.14843307482241L731.24,59.777923890036774L732.4466666666667,59.261788222838966L733.6533333333334,58.747800935297995L734.8599999999999,58.594637892836154L736.0666666666666,58.56449024092798L737.2733333333333,58.817581087420244L738.48,59.06920661811219L739.6866666666667,59.35015391757594L740.8933333333334,59.41917598396828L742.0999999999999,59.19794874757721L743.3066666666666,59.055100477756085L744.5133333333333,59.040669372690324L745.72,59.14733163059516L746.9266666666667,58.857995750551034L748.1333333333334,57.722098213460924L749.3399999999999,56.67706958653131L750.5466666666666,56.19224858880999L751.7533333333333,56.381739982372416L752.96,56.33238559747088L754.1666666666667,55.734662381317506L755.3733333333332,55.024717602435594L756.5799999999999,54.65020921308043L757.7866666666666,54.48900708722044L758.9933333333333,54.46760843972549L760.2,54.118379113556L761.4066666666668,53.73707356779649L762.6133333333332,53.78881759362737L763.8199999999999,54.12969348262138L765.0266666666666,54.28954676527005L766.2333333333333,54.37175145470031L767.44,54.142614242571064L768.6466666666668,53.97349281617251L769.8533333333332,53.820022179533595L771.06,53.704614950328995L772.2666666666667,53.593035340970786L773.4733333333334,53.339219146171985L774.6800000000001,52.74339779686913L775.8866666666668,52.3526030377863L777.0933333333332,52.05920734860404L778.3,51.58525006567169L779.5066666666667,51.388467463223456L780.7133333333334,51.31835091135992L781.9200000000001,51.323649745119205L783.1266666666668,50.82581672008795L784.3333333333333,50.48163570008271L785.54,50.35031489039429L786.7466666666667,50.33830607119186L787.9533333333334,50.453747230666934L789.1600000000001,50.306032422720214L790.3666666666666,49.706009633266255L791.5733333333333,49.05994075234125L792.78,48.760205784412676L793.9866666666667,48.41075406490122L795.1933333333334,48.09376177083468L796.4000000000001,47.916195068901814L797.6066666666666,47.65689752229824L798.8133333333333,47.3630327613877L800.02,46.89836666057868L801.2266666666667,46.39103742760656L802.4333333333334,46.244970209135154L803.6400000000001,46.57501991673326L804.8466666666666,46.52712765266916L806.0533333333333,46.18820328551781L807.26,46.03293650053892L808.4666666666667,46.33818639220563L809.6733333333334,46.97785616935343L810.8800000000001,47.23937111986321L812.0866666666666,46.928120295361644L813.2933333333333,46.68433852681885L814.5,46.33681962781763L815.7066666666667,45.94593404944905L816.9133333333334,46.05902831564062L818.1199999999999,46.50534063345034L819.3266666666666,46.759061208760016L820.5333333333333,46.50551311933716L821.74,45.90144849755617L822.9466666666667,45.30180636488344L824.1533333333334,45.3891031279739L825.3599999999999,45.59491283980478L826.5666666666666,45.746667123362265L827.7733333333333,45.48011697800447L828.98,45.021952428051755L830.1866666666667,44.765434936063706L831.3933333333334,45.11730060778693L832.5999999999999,45.476818171755156L833.8066666666666,45.58547709918968L835.0133333333333,45.848461767059476L836.22,46.11910168410648L837.4266666666667,46.372537928112195L838.6333333333334,46.71731055098055L839.8399999999999,47.29970865915603L841.0466666666666,47.702583445730326L842.2533333333333,47.93356720305826L843.46,47.95265693960995L844.6666666666667,48.065095235696056L845.8733333333332,48.4537130461876L847.0799999999999,48.73267953078427L848.2866666666666,48.95255156326569L849.4933333333333,48.91216752987081L850.7,49.17516080654251L851.9066666666668,49.47474847386245L853.1133333333332,49.63189529746769L854.3199999999999,49.673915959417755L855.5266666666666,49.473879542958564L856.7333333333333,49.391833600409036L857.94,49.260587063435985L859.1466666666668,49.493241581323424L860.3533333333332,49.827387786509235L861.56,50.28341516530606L862.7666666666667,50.61729868338158L863.9733333333334,51.260306530509496L865.1800000000001,51.84560834247701L866.3866666666668,52.41147689627912L867.5933333333332,52.953506239696175L868.8,53.5545322993064L870.0066666666667,54.096578394094855L871.2133333333334,54.5215770737646L872.4200000000001,54.74291479684812L873.6266666666668,54.83158448277644L874.8333333333333,54.843709395758644L876.04,55.0633797731593L877.2466666666667,55.32079461613865L878.4533333333334,55.85100276589137L879.6600000000001,56.12423069548464L880.8666666666666,55.73129234356802L882.0733333333333,55.19172207381209L883.28,54.93696573177512L884.4866666666667,55.16742141008095L885.6933333333334,55.54393184041806L886.9000000000001,55.70094216260802L888.1066666666666,55.63178454156806L889.3133333333333,55.46678962180671L890.52,55.56657070320626L891.7266666666667,55.816813249598695L892.9333333333334,56.23836292458229L894.1400000000001,56.29669429321698L895.3466666666666,55.96177631771327L896.5533333333333,55.771252053712324L897.76,55.878276363452926L898.9666666666667,56.01619566884079L900.1733333333334,56.08811625365304L901.3800000000001,56.143043382906185L902.5866666666666,55.8651814651151L903.7933333333333,55.52031461427561L905,55.65342493551944L906.2066666666667,56.37614009677159L907.4133333333334,57.186876694552936L908.6199999999999,57.78333642971096L909.8266666666666,57.87479667479739L911.0333333333333,58.04521845230443L912.24,58.74214276819809L913.4466666666667,59.81334813803079L914.6533333333334,60.917175276098575L915.8599999999999,61.514215917002076L917.0666666666666,61.7715457311934L918.2733333333333,61.82797027299807L919.48,62.24508953970673L920.6866666666667,63.02311385680437L921.8933333333334,63.78623040800807L923.0999999999999,64.12239766767927L924.3066666666666,64.30540219218307L925.5133333333333,64.3234784845756L926.72,64.38555802847425L927.9266666666667,64.6103033706277L929.1333333333334,64.84033752469576L930.3399999999999,64.76447950475438L931.5466666666666,64.61344110651636L932.7533333333333,64.63022921373732L933.96,64.79980088883798L935.1666666666667,64.94814864643918L936.3733333333332,65.0695154705556L937.5799999999999,64.98247721903996L938.7866666666666,64.83273034044193L939.9933333333333,65.24389453856986L941.2,65.8507125194599L942.4066666666668,66.08146068428329L943.6133333333332,66.03780499562261L944.8199999999999,65.88519001164822L946.0266666666666,66.08848484133941L947.2333333333333,66.46114766940644L948.44,67.00963037696596L949.6466666666668,67.73106280736394L950.8533333333332,68.33317346913958L952.06,68.7586169024905L953.2666666666667,68.75969156388035L954.4733333333334,68.5758947942471L955.6800000000001,68.55338826738674L956.8866666666668,69.03734626628702L958.0933333333332,69.62231523429004L959.3,70.1272226299919L960.5066666666667,70.34972106254571L961.7133333333334,70.14858271858985L962.9200000000001,69.85388466705027L964.1266666666668,69.72726594083996L965.3333333333333,69.86800455733253L966.54,69.97743542482912L967.7466666666667,70.05680122548618L968.9533333333334,69.88487951382552L970.1600000000001,69.76644624009452L971.3666666666666,69.75592301806647L972.5733333333333,69.75895700049905L973.78,70.01730576749169L974.9866666666667,70.39495721099102L976.1933333333334,70.68743290565821L977.4000000000001,71.04313535012263L978.6066666666666,71.6013510901777L979.8133333333333,72.12431745285105L981.02,72.48119655462706L982.2266666666667,72.65267415054198L983.4333333333334,73.06449134354311L984.6400000000001,73.58460371497004L985.8466666666666,74.0673604822322L987.0533333333333,74.01019788361597L988.26,73.82929983959801L989.4666666666667,73.54544265285863L990.6733333333334,73.08466882715085L991.8800000000001,72.779666423854L993.0866666666666,72.71652503493837L994.2933333333333,72.84043104936727L995.5,73.00322032147672L996.7066666666667,72.9719555674437L997.9133333333334,72.83616800179742L999.1199999999999,72.52890734595456L1000.3266666666666,72.50355540229329L1001.5333333333333,73.02297310419952L1002.74,73.22101059668123L1003.9466666666667,72.91683990903418L1005.1533333333334,72.20968573062251L1006.3599999999999,71.4937652204552L1007.5666666666666,70.92767941559079L1008.7733333333333,70.52465985062562L1009.98,70.16874062206044L1011.1866666666667,69.38725826731743L1012.3933333333334,68.33034900660164L1013.5999999999999,67.59957836052693L1014.8066666666666,67.26978549230643L1016.0133333333333,67.30749522250014L1017.22,67.33969368577671L1018.4266666666667,66.93116585517328L1019.6333333333334,66.07416515889403L1020.8399999999999,65.44967731322448L1022.0466666666666,65.44135099223602L1023.2533333333333,65.5375643633089L1024.46,65.70975941075591L1025.6666666666667,65.61892742188996L1026.8733333333332,65.64415516300355L1028.08,65.78580326225357L1029.2866666666666,66.00498864165544L1030.4933333333333,66.15685855097537L1031.7,66.40658046929225L1032.9066666666668,66.56535705881234L1034.1133333333332,66.85827749822667L1035.32,67.02553574236727L1036.5266666666666,66.89048500533393L1037.7333333333333,66.91812408253827L1038.94,67.21325743845281L1040.1466666666668,67.46435676485986L1041.3533333333332,67.49313392204463L1042.56,67.4578181908275L1043.7666666666667,67.55725281749643L1044.9733333333334,67.79438916513018L1046.18,67.95073778908655L1047.3866666666668,68.04881644416574L1048.5933333333332,68.27956641297773L1049.8,68.64600666392592L1051.0066666666667,68.9494178106113L1052.2133333333334,69.02998568354387L1053.42,69.42595202051601L1054.6266666666668,69.91695920898316L1055.8333333333333,70.36580413027879L1057.04,70.73924147036246L1058.2466666666667,71.02505404798138L1059.4533333333334,71.41873435883484L1060.66,71.7953410476969L1061.8666666666666,72.16170356336386L1063.0733333333333,72.54182883777118L1064.28,72.62222491191574L1065.4866666666667,72.58651108316647L1066.6933333333334,72.47119915230303L1067.9,72.23959195937653L1069.1066666666666,72.13927767947885L1070.3133333333333,72.11796385690909L1071.52,71.9467104163488L1072.7266666666667,71.86926064292915L1073.9333333333334,71.82288066268154L1075.14,72.06645682168104L1076.3466666666666,72.65226914591845L1077.5533333333333,73.19947852437053L1078.76,73.54335404958917L1079.9666666666667,73.70963612989542L1081.1733333333334,73.78432779667371L1082.38,73.8294124481535L1083.5866666666666,73.90832619413486L1084.7933333333333,74.03346887436354L1086,73.96249330047868L1087.2066666666667,73.84993341448374L1088.4133333333334,73.54222795774032L1089.62,73.3187299383254L1090.8266666666666,73.21712412193844L1092.0333333333333,73.28244737717766L1093.24,73.1219195171193L1094.4466666666667,72.59550879740691L1095.6533333333334,72.27152788128835L1096.86,72.14145119360893L1098.0666666666666,72.54675533873932L1099.2733333333333,72.90804514469562L1100.48,73.15955911863942L1101.6866666666667,73.29572655909722L1102.8933333333334,72.99600509973435L1104.1,72.70458148105178L1105.3066666666666,72.54064819206737L1106.5133333333333,72.70951276892394L1107.72,72.98138603373745L1108.9266666666667,73.0143582439682L1110.1333333333334,72.5509262380757L1111.34,72.10334617959009L1112.5466666666666,71.76405959049798L1113.7533333333333,71.50359118890718L1114.96,71.39076896734217L1116.1666666666667,71.5015848697854L1117.3733333333332,71.69175452599727L1118.58,71.79839596396573L1119.7866666666666,71.33080800799078L1120.9933333333333,71.09793859259825L1122.2,71.1318275114091L1123.4066666666668,71.23444948555183L1124.6133333333332,71.15414108491632L1125.82,71.01234206233438L1127.0266666666666,71.00824795647854L1128.2333333333333,71.02228517105807L1129.44,70.76110102874422L1130.6466666666668,70.56574050749775L1131.8533333333332,70.05856330970187L1133.06,69.40982225286528L1134.2666666666667,68.81146294800982L1135.4733333333334,68.471053312591L1136.68,68.48378703497126L1137.8866666666668,68.54234644354759L1139.0933333333332,68.4953282915436L1140.3,68.64050325887706L1141.5066666666667,68.6964635010796L1142.7133333333334,69.0165442726754L1143.92,69.24077113757987L1145.1266666666668,69.6596996133951L1146.3333333333333,69.88782173546718L1147.54,70.02199849458093L1148.7466666666667,69.99226206404886L1149.9533333333334,70.02587868370351L1151.16,69.85823644636719L1152.3666666666666,69.95809198760173L1153.5733333333333,70.09548515166738L1154.78,70.05410610965447L1155.9866666666667,69.82326500494213L1157.1933333333334,69.59128118562055L1158.4,69.29070452336885L1159.6066666666666,68.91949026754156L1160.8133333333333,68.68085228068041L1162.02,68.58733029045119L1163.2266666666667,68.69840097235101L1164.4333333333334,68.51736855868378L1165.64,68.41886103846964L1166.8466666666666,68.2305485576293L1168.0533333333333,68.01176783143883L1169.26,68.11882630288247L1170.4666666666667,68.37132301389947L1171.6733333333334,68.64528772389748L1172.88,68.73668090078739L1174.0866666666666,68.2157660983414L1175.2933333333333,67.69801249160844L1176.5,67.48128890308436L1177.7066666666667,67.61686139173932L1178.9133333333334,67.92224026720287L1180.12,68.28460601449349L1181.3266666666666,68.09543607402034L1182.5333333333333,67.724686661769L1183.74,67.62784963095746L1184.9466666666667,67.78632243898242L1186.1533333333334,68.03438835875232L1187.36,68.17945279083268L1188.5666666666666,68.11755398632077L1189.7733333333333,68.05915718389156L1190.98,68.14483305163739L1192.1866666666667,68.24832623688921L1193.3933333333334,68.38947495394079L1194.6,68.19498508794977L1195.8066666666666,67.99182294859813L1197.0133333333333,67.83185987385711L1198.22,67.9372666925941L1199.4266666666667,68.5652956682892L1200.6333333333334,68.8340727209121L1201.84,68.83966020340151L1203.0466666666666,68.72184932466996L1204.2533333333333,68.58482854984189L1205.46,68.65240744484659L1206.6666666666667,68.83290386517776L1207.8733333333332,69.122946769714L1209.08,69.39126062316892L1210.2866666666666,69.35616741611472L1211.4933333333333,68.82740282317349L1212.7,68.40803606569972L1213.9066666666668,68.0139501813663L1215.1133333333332,67.8719215872058L1216.32,67.88926185143993L1217.5266666666666,67.86357766254552L1218.7333333333333,67.49492379822614L1219.94,67.11207545756258L1221.1466666666668,66.82520035361628L1222.3533333333332,66.47294814738846L1223.56,66.05499889941954L1224.7666666666667,65.86018201882807L1225.9733333333334,65.60087100252593L1227.18,65.18426182499576L1228.3866666666668,64.77255041260166L1229.5933333333332,64.51500716005948L1230.8,64.32241541740416L1232.0066666666667,64.40285200713353L1233.2133333333334,64.49776365541373L1234.42,64.45107461799941L1235.6266666666668,64.2901230489598L1236.8333333333333,64.31606373282602L1238.04,64.61597555811588L1239.2466666666667,65.1323127909622L1240.4533333333334,65.56799739862201L1241.66,65.86405836978379L1242.8666666666666,66.25930364274258L1244.0733333333333,66.50332691754868L1245.28,66.98195142320382L1246.4866666666667,67.47958905441509L1247.6933333333334,67.76572272624351L1248.9,67.84239574817292L1250.1066666666666,67.59695132581878L1251.3133333333333,67.31787007336914L1252.52,67.3150884514159L1253.7266666666667,67.55556644708555L1254.9333333333334,67.82861179417748L1256.14,67.7460225528858L1257.3466666666666,67.37926906266098L1258.5533333333333,67.16860982607778L1259.76,67.03192258853291L1260.9666666666667,67.1579912530099L1262.1733333333334,67.20500446001968L1263.38,67.42996803188475L1264.5866666666666,67.85706853904809L1265.7933333333333,68.40360858940176L1267,68.51967649282878L1268.2066666666667,68.70796385658909L1269.4133333333334,69.20429070027565L1270.62,69.74266080875344L1271.8266666666666,70.13615177642792L1273.0333333333333,70.58814725501234L1274.24,71.09470528377834L1275.4466666666667,71.62568659075342L1276.6533333333334,71.87596368365433L1277.86,72.04010687096677L1279.0666666666666,72.24699265136569L1280.2733333333333,72.47453543647674L1281.48,72.77366090956049L1282.6866666666667,72.80307518209648L1283.8933333333334,72.96323451736956L1285.1,73.10872126900783L1286.3066666666666,72.83948921015039L1287.5133333333333,72.81888778001168L1288.72,72.67695941799943L1289.9266666666667,72.4014285032396L1291.1333333333334,72.21318958428172L1292.34,72.09148256198567L1293.5466666666666,72.16833959231383L1294.7533333333333,72.40343450909624L1295.96,72.5626030457363L1297.1666666666667,72.38081263138916L1298.3733333333332,71.78573665281566L1299.58,71.40491679942863L1300.7866666666666,71.30536320469538L1301.9933333333333,71.76466507590884L1303.2,72.17354388044538L1304.4066666666668,72.43320762995656L1305.6133333333332,72.58159046580676L1306.82,72.64316066509656L1308.0266666666666,72.75183006051883L1309.2333333333333,73.01616926624584L1310.44,73.31166582366353L1311.6466666666668,73.5136368624005L1312.8533333333332,73.51882443616607L1314.06,73.44414254778529L1315.2666666666667,73.48598140212242L1316.4733333333334,73.55333010275558L1317.68,73.67584817838309L1318.8866666666668,73.8783422829607L1320.0933333333332,74.11313728105408L1321.3,74.31679811722857L1322.5066666666667,74.37585124639769L1323.7133333333334,74.22104405205314L1324.92,74.07553276801617L1326.1266666666668,73.8135817657977L1327.3333333333333,73.82647132224248" style="fill: none;" fill="none"></path></g></g></g></g><g opacity="0.2"><g><g><g><path stroke="rgb(255, 112, 67)" stroke-width="2px" d="M156.86666666666667,380.4682250142097L158.07333333333332,375.87167961597436L159.28,369.2655570626258L160.48666666666668,363.09626979827874L161.69333333333333,357.411905658245L162.9,351.8172006130218L164.10666666666665,346.55079616308205L165.31333333333333,341.5322463035583L166.52,333.35899962186807L167.72666666666666,325.43630404472344L168.93333333333334,315.32740963697427L170.14,304.0963159322738L171.34666666666666,295.2315257310867L172.55333333333334,287.66207350492476L173.76,280.63922716379165L174.96666666666667,275.34709347486495L176.17333333333335,271.01154817342757L177.38,265.6881798624992L178.58666666666667,260.60648663043975L179.79333333333332,256.5048639297485L181,252.55941433906554L182.20666666666665,248.07454956769942L183.41333333333336,246.61685897111892L184.62,244.7182883143425L185.82666666666665,242.93926311731337L187.03333333333336,241.00855900049208L188.24,239.9352340221405L189.44666666666666,238.66933299303054L190.6533333333333,238.3391223669052L191.86,237.93251050710677L193.06666666666666,236.9300813794136L194.2733333333333,236.19314653873442L195.48000000000002,235.23060334920882L196.68666666666667,235.6411476254463L197.89333333333332,234.9638731598854L199.10000000000002,234.88522483110427L200.30666666666667,234.6146745800972L201.51333333333332,234.5809681534767L202.72000000000003,235.17936958074569L203.92666666666668,236.0037164211273L205.13333333333333,236.42572088241576L206.33999999999997,236.56223191022872L207.54666666666668,236.1282054901123L208.75333333333333,236.50751514434813L209.95999999999998,237.84161550998687L211.16666666666669,238.64270491600035L212.37333333333333,239.4819949388504L213.57999999999998,240.23465944528579L214.7866666666667,241.3995535492897L215.99333333333334,241.5811188340187L217.2,242.47804684638976L218.4066666666667,242.90510727167128L219.61333333333334,244.12134749889373L220.82,244.34560759067534L222.02666666666664,244.61121423244475L223.23333333333335,244.95310975313186L224.44,245.4092700600624L225.64666666666665,246.47214604616164L226.85333333333335,246.68876601457595L228.06,246.86853362321853L229.26666666666665,247.39435387849807L230.47333333333336,247.38750023841857L231.68,248.10645831823348L232.88666666666666,248.98057831525801L234.0933333333333,249.42258192300795L235.3,250.0259269595146L236.50666666666666,250.2550183057785L237.7133333333333,250.4582680583L238.92000000000002,251.02700783014296L240.12666666666667,251.81090695858L241.33333333333331,252.0541550040245" style="fill: none;" fill="none"></path></g><g><path stroke="rgb(0, 119, 187)" stroke-width="2px" d="M132.73333333333332,381.0552786111831L133.94,356.80193169116967L135.14666666666668,304.1527180194854L136.35333333333332,263.7289376378059L137.56,252.145499420166L138.76666666666668,249.45628834962844L139.97333333333333,243.7718118548393L141.18,242.91038794517516L142.38666666666666,244.6293033480644L143.59333333333333,243.91562594175338L144.8,237.56937993764876L146.00666666666666,239.45053560733794L147.21333333333334,240.02893788814544L148.42,232.36645592451094L149.62666666666667,229.61410148143767L150.83333333333334,229.31726021766661L152.04,225.6982011914253L153.24666666666667,222.53271831274031L154.45333333333335,218.85163946151738L155.66,215.0247241377831L156.86666666666667,211.94496793746953L158.07333333333332,208.38242335319524L159.28,202.06606371402745L160.48666666666668,194.40459294319157L161.69333333333333,182.93732954263692L162.9,172.66147596836095L164.10666666666665,160.59277756214146L165.31333333333333,148.66373611688618L166.52,137.7668978095055L167.72666666666666,132.18657417297368L168.93333333333334,129.93768138885503L170.14,128.4433631420136L171.34666666666666,125.74954552650455L172.55333333333334,124.58498848676685L173.76,124.25050837993625L174.96666666666667,121.87532885074619L176.17333333333335,117.83774836063388L177.38,111.86418308019641L178.58666666666667,108.92509503364566L179.79333333333332,105.93342496156696L181,99.94963539838794L182.20666666666665,93.22306854724887L183.41333333333336,91.21888442039493L184.62,92.10693640708926L185.82666666666665,91.16619004011157L187.03333333333336,87.16433836221698L188.24,85.05364192724231L189.44666666666666,82.43633790016177L190.6533333333333,81.96107728481296L191.86,83.29484058618549L193.06666666666666,83.6238153100014L194.2733333333333,81.61850763559345L195.48000000000002,79.01333792209628L196.68666666666667,78.21415854692462L197.89333333333332,78.76132620573047L199.10000000000002,78.26921237707141L200.30666666666667,79.87386299371722L201.51333333333332,78.4005550861359L202.72000000000003,76.33356465101245L203.92666666666668,74.77205826044086L205.13333333333333,76.22896237373355L206.33999999999997,79.26456315517429L207.54666666666668,80.80269975662235L208.75333333333333,79.91273773908618L209.95999999999998,78.7633485913277L211.16666666666669,79.72173465490344L212.37333333333333,81.20773864984515L213.57999999999998,82.79901905059818L214.7866666666667,83.80650414228442L215.99333333333334,84.10750253200534L217.2,83.50988758802417L218.4066666666667,83.28978462219241L219.61333333333334,83.92897082567218L220.82,85.24745388031009L222.02666666666664,85.44924302101138L223.23333333333335,85.70732189416889L224.44,86.79176999330524L225.64666666666665,87.37871123552326L226.85333333333335,88.36675895452503L228.06,88.36777014732364L229.26666666666665,88.42012746334079L230.47333333333336,87.61701567173007L231.68,87.05130947828296L232.88666666666666,86.55065668821338L234.0933333333333,86.51515258550647L235.3,86.09651876688007L236.50666666666666,86.02360053062442L237.7133333333333,86.0778678774834L238.92000000000002,84.44085909128192L240.12666666666667,82.57610721588138L241.33333333333331,82.25960386991504" style="fill: none;" fill="none"></path></g><g><path stroke="rgb(204, 51, 17)" stroke-width="2px" d="M132.73333333333332,382.72576911449426L133.94,369.76160330772393L135.14666666666668,339.78130979537957L136.35333333333332,291.94346381425856L137.56,261.06770290136336L138.76666666666668,249.2868573784828L139.97333333333333,232.87609709501265L141.18,220.3357334256172L142.38666666666666,221.93454159498214L143.59333333333333,218.88646943569188L144.8,216.90947515964513L146.00666666666666,219.2367915630341L147.21333333333334,218.07324571609502L148.42,207.57942391633992L149.62666666666667,197.46648473739629L150.83333333333334,190.52745504379277L152.04,182.18904687166219L153.24666666666667,169.12589652538304L154.45333333333335,158.68027491569524L155.66,150.03491355180745L156.86666666666667,140.17454786300664L158.07333333333332,129.31804491281514L159.28,125.06923748254779L160.48666666666668,122.67900241613391L161.69333333333333,124.777227473259L162.9,123.3682988405228L164.10666666666665,124.85688699483875L165.31333333333333,120.32505793571475L166.52,118.2366077423096L167.72666666666666,120.75998319387439L168.93333333333334,124.07208902835849L170.14,119.08893091678623L171.34666666666666,110.89467389583591L172.55333333333334,106.70148206949237L173.76,106.69957203865054L174.96666666666667,107.76278508901599L176.17333333333335,108.20523811578754L177.38,103.08028830289844L178.58666666666667,98.76238269805911L179.79333333333332,95.85891110897067L181,94.23223896026614L182.20666666666665,93.99842871427539L183.41333333333336,93.58687324523929L184.62,90.29723836183551L185.82666666666665,85.54216040372852L187.03333333333336,79.06030220985416L188.24,75.2768681764603L189.44666666666666,74.93486030101779L190.6533333333333,75.68932248353961L191.86,73.84524388313297L193.06666666666666,70.19989384412769L194.2733333333333,65.70918662548068L195.48000000000002,66.32219417095187L196.68666666666667,67.86313964128497L197.89333333333332,66.42499877214435L199.10000000000002,65.95973773002628L200.30666666666667,63.605568540096314L201.51333333333332,64.21003712415698L202.72000000000003,64.9504549622536L203.92666666666668,64.40856797695163L205.13333333333333,64.6646244645119L206.33999999999997,64.37238974571231L207.54666666666668,63.474562895298035L208.75333333333333,62.87515027523044L209.95999999999998,62.44011266231544L211.16666666666669,61.060283911228254L212.37333333333333,59.46900351047523L213.57999999999998,58.83060379028328L214.7866666666667,58.82644666433342L215.99333333333334,58.38298244476326L217.2,55.755454134941175L218.4066666666667,53.61386014223106L219.61333333333334,52.69670827388771L220.82,52.29987127780922L222.02666666666664,51.58596916198738L223.23333333333335,50.62230242490776L224.44,49.18483568429954L225.64666666666665,48.576322329044416L226.85333333333335,48.7702466368676L228.06,48.59126551151283L229.26666666666665,47.88579000234611L230.47333333333336,47.58108390569694L231.68,47.0762739896775L232.88666666666666,47.692876887321546L234.0933333333333,48.61643297672279L235.3,49.15258986949928L236.50666666666666,48.62800551652916L237.7133333333333,48.09038801193245L238.92000000000002,48.84417606592186L240.12666666666667,49.8303137540818L241.33333333333331,50.61735881567009L242.54000000000002,49.177982044220045L243.74666666666667,49.621446263790205L244.95333333333332,49.349547755718305L246.16000000000003,49.62459219694145L247.36666666666667,50.91172827482231L248.57333333333332,51.64180947542198L249.77999999999997,52.69816888570793L250.98666666666668,53.0169193267823L252.19333333333333,53.55464918613441L253.39999999999998,53.66206033229835L254.60666666666668,55.55344028472908L255.81333333333333,56.309026014804914L257.02,57.04416317939766L258.2266666666667,57.15820325613029L259.43333333333334,57.54380477666862L260.64,59.191599619388654L261.8466666666667,59.497092199325635L263.05333333333334,60.209758412838056L264.26,60.197174680233076L265.46666666666664,60.8615283489228L266.67333333333335,62.27101875543602L267.88,62.657856178283765L269.08666666666664,63.144801688194306L270.29333333333335,63.719945681095155L271.5,63.88184888362888L272.70666666666665,64.25486667156223L273.91333333333336,65.42683912515643L275.12,66.83565540313724L276.32666666666665,67.63393594026569L277.53333333333336,66.85801399946216L278.74,66.2542195439339L279.94666666666666,67.02216429710391L281.1533333333333,68.86568112373355L282.36,69.61946917772296L283.56666666666666,68.89208449125293L284.7733333333333,68.1302068948746L285.98,69.05432475805286L287.18666666666667,70.55235071182254L288.3933333333333,70.78458799123767L289.6,70.5425758481026L290.8066666666667,70.32303465604785L292.0133333333333,70.91300947666171L293.22,71.6164626002312L294.4266666666667,71.3866971254349L295.6333333333333,70.54156465530399L296.84,70.38134677410129L298.0466666666667,70.1446153044701L299.25333333333333,70.70414198637012L300.46,71.58005965948108L301.6666666666667,70.60639334917072L302.87333333333333,69.04735876321796L304.08,68.26885266304019L305.2866666666667,68.47008002996448L306.49333333333334,69.2525185465813L307.7,69.3154372096062L308.9066666666667,68.89444394111636L310.11333333333334,67.89617193937305L311.32,67.04373641014102L312.52666666666664,66.80700494050983L313.73333333333335,67.1051944613457L314.94,66.70689685344699L316.14666666666665,66.69611079692844L317.35333333333335,66.40971852540973L318.56,66.07422722578052L319.76666666666665,65.77806009054187L320.97333333333336,65.64694209098819L322.18,65.51874531507495L323.38666666666666,65.41110945940021L324.5933333333333,65.95928831100467L325.8,65.85479838848117L327.00666666666666,66.3171382069588L328.2133333333333,67.21170676946643L329.42,67.66528291702274L330.62666666666667,68.1366111159325L331.8333333333333,69.45251001119617L333.04,70.67897452116016L334.24666666666667,70.50313932895664L335.4533333333333,70.79795820713046L336.66,70.14877243041995L337.8666666666667,69.55744935274127L339.0733333333333,71.38186587095264L340.28,71.8739796996117L341.4866666666667,71.27389295101169L342.6933333333333,70.03046287298206L343.9,69.41228700876239L345.1066666666667,70.59234900474551L346.31333333333333,71.09536124467853L347.52,71.78802831172946L348.7266666666667,71.95375157594684L349.93333333333334,70.58886600732806L351.14,70.55089010000232L352.3466666666667,70.9752540111542L353.55333333333334,72.07397116422656L354.76,71.64623661041263L355.96666666666664,72.6415873885155L357.17333333333335,72.79416514635089L358.38,73.14864439964298L359.58666666666664,73.20414764881137L360.79333333333335,74.09051431417468L362,75.25293661355975L363.2066666666667,74.67105133533481L364.4133333333333,74.30353893041614L365.62,74.52094538211826L366.8266666666667,75.09103341102603L368.0333333333333,76.16390897035602L369.24,76.82680202722553L370.4466666666667,75.7858352184296L371.6533333333333,76.17739154100421L372.86,77.24667174816135L374.0666666666667,78.6032430648804L375.2733333333333,79.10299701690677L376.48,79.11715371608737L377.6866666666666,78.4635861039162L378.8933333333333,79.6075822234154L380.1,80.8484281420708L381.3066666666666,80.99156810045245L382.5133333333333,79.87723363637927L383.72,78.90525264739993L384.9266666666666,79.38242329359058L386.1333333333333,80.21182609796527L387.34000000000003,79.82790989875797L388.5466666666666,79.86105455160144L389.75333333333333,78.51189864873889L390.96000000000004,78.47145093679431L392.16666666666663,79.33804316520694L393.37333333333333,80.22351099252704L394.58000000000004,80.2275557637215L395.78666666666663,79.56117970943454L396.99333333333334,78.81469471454623L398.20000000000005,78.4915624380112L399.40666666666664,80.22991521358493L400.61333333333334,80.27418298721317L401.82000000000005,79.67353446483615L403.02666666666664,77.40958614349368L404.23333333333335,76.69017864465717L405.44000000000005,76.27884788513187L406.64666666666665,75.67561520338062L407.85333333333335,75.43865902423862L409.05999999999995,75.30181093215946L410.26666666666665,74.28567452430728L411.47333333333336,72.98606706857684L412.67999999999995,72.57316334247592L413.88666666666666,72.27059198617938L415.09333333333336,72.61641992330554L416.29999999999995,71.22243447303775L417.50666666666666,69.67272533178333L418.71333333333337,69.54677565097812L419.91999999999996,70.12180728912357L421.12666666666667,70.10753823518756L422.33333333333337,69.5385737538338L423.53999999999996,67.98819048404697L424.74666666666667,67.87650985717777L425.9533333333334,68.85410858392719L427.15999999999997,69.32779623270038L428.3666666666667,68.80298717021945L429.5733333333334,68.43749715089801L430.78,67.69325925111774L431.9866666666667,68.22649492025378L433.1933333333334,69.41633177995685L434.4,69.53924788236621L435.6066666666667,68.89107329845432L436.8133333333334,69.13847846984866L438.02,70.13000918626788L439.2266666666667,70.91379595994952L440.4333333333333,70.79121692180637L441.64,71.24737722873691L442.8466666666667,71.09097940921787L444.0533333333333,71.60320473909381L445.26,71.81701583862308L446.4666666666667,71.4282683849335L447.6733333333333,70.52212728261951L448.88,70.45583797693256L450.0866666666667,71.46781725883487L451.2933333333333,71.93375242948535L452.5,72.85236490964893L453.7066666666667,73.11167968511585L454.9133333333333,71.77409632205966L456.12,70.56875450611118L457.3266666666667,71.477367413044L458.5333333333333,72.14891178607944L459.74,71.83836324214938L460.9466666666667,71.73308683633807L462.1533333333333,71.25063551664356L463.36,72.61743111610416L464.5666666666667,72.54058046340946L465.7733333333333,71.99903054237369L466.98,72.69360764026645L468.1866666666666,72.81101835966113L469.3933333333333,73.38155580759052L470.6,73.07246787548068L471.8066666666666,72.58226407766345L473.0133333333333,71.449391078949L474.22,71.39085425138477L475.4266666666666,72.34463376998904L476.6333333333333,71.36928213834766L477.84000000000003,70.76312823295596L479.0466666666666,70.68009806871417L480.25333333333333,71.15872932672504L481.46000000000004,71.87184495925906L482.66666666666663,71.82094825506213L483.87333333333333,70.62481952905658L485.08000000000004,70.28517110347751L486.28666666666663,70.4935891747475L487.49333333333334,71.41062868833545L488.70000000000005,70.61032576560977L489.90666666666664,69.87945808172229L491.11333333333334,69.13263602256778L492.32000000000005,68.39738650321964L493.52666666666664,67.57607324123386L494.73333333333335,67.87415040731433L495.94000000000005,67.70314646959308L497.14666666666665,67.57764620780948L498.35333333333335,67.21979631185535L499.55999999999995,65.42223258018497L500.76666666666665,65.37279648780826L501.97333333333336,65.81974370479587L503.17999999999995,66.36747313737872L504.38666666666666,65.83390040397647L505.59333333333336,65.30706895589832L506.79999999999995,63.789605629444154L508.00666666666666,62.3462964415551L509.21333333333337,62.67987771034248L510.41999999999996,62.700438630580976L511.62666666666667,62.798636686801984L512.8333333333334,62.055409979820325L514.04,59.95606137514122L515.2466666666667,59.02621341943748L516.4533333333334,58.82734550237663L517.66,59.28620232343681L518.8666666666667,59.243170452117994L520.0733333333334,59.42091567516334L521.28,58.5462339043618L522.4866666666667,57.80514193773277L523.6933333333334,57.70188791751869L524.9,58.86543376445778L526.1066666666667,59.128905665874555L527.3133333333334,58.46634967327125L528.52,58.078725767135694L529.7266666666667,57.25831134319313L530.9333333333333,57.54728777408607L532.14,57.59582502841957L533.3466666666667,57.62088013887413L534.5533333333333,57.62290252447136L535.76,56.8660808920861L536.9666666666667,56.06768800020225L538.1733333333333,55.818934571743085L539.38,57.11573315858848L540.5866666666667,58.050300014019086L541.7933333333333,57.951877248287275L543,57.01854629516609L544.2066666666667,57.10831774473198L545.4133333333333,56.873833370208814L546.62,58.07838870286949L547.8266666666667,57.499986422061994L549.0333333333333,57.45807809829719L550.24,57.35684646368034L551.4466666666667,57.37134022712715L552.6533333333333,57.18516839742668L553.86,57.11562080383308L555.0666666666667,57.0124791383744L556.2733333333333,56.49890555143364L557.48,55.83825958967216L558.6866666666666,56.146561038494184L559.8933333333333,55.67556990385063L561.1,55.33962918519981L562.3066666666666,54.52528191804893L563.5133333333333,54.757631552219465L564.72,54.72954286336906L565.9266666666666,54.57808865308769L567.1333333333333,55.92331213951118L568.34,56.32565451860435L569.5466666666666,56.08633888959892L570.7533333333333,55.45782638788231L571.96,54.68920750617988L573.1666666666666,55.30041737556465L574.3733333333333,56.187121105194166L575.58,56.432503890991285L576.7866666666666,55.1504237771035L577.9933333333333,53.85665876865394L579.2,53.37611747980125L580.4066666666666,54.424387347698286L581.6133333333333,55.31704587936409L582.82,55.00683439970024L584.0266666666666,54.689993989467695L585.2333333333333,54.105749261379316L586.44,54.01283187866218L587.6466666666666,54.8716716289521L588.8533333333334,55.4715336680413L590.06,55.727477800846174L591.2666666666667,55.64635766744621L592.4733333333334,55.528834593296125L593.68,55.02851886749275L594.8866666666667,55.54366542100914L596.0933333333334,56.69204337596901L597.3,56.81102706193931L598.5066666666667,56.947875154018476L599.7133333333334,56.78754491806038L600.92,56.9425944805146L602.1266666666667,57.80626548528679L603.3333333333334,58.2324270725251L604.54,57.864128184318616L605.7466666666667,58.310288918018415L606.9533333333334,58.44736171960838L608.16,58.63061232566841L609.3666666666667,58.289278578758314L610.5733333333334,58.00176275968559L611.78,58.10153378248222L612.9866666666667,58.543087971210554L614.1933333333334,59.00711311101921L615.4,58.81757063865669L616.6066666666667,58.427362573146894L617.8133333333334,58.01547003984459L619.02,57.6818887710572L620.2266666666667,58.02007658481605L621.4333333333333,58.352084887027814L622.64,57.912103664875104L623.8466666666667,57.15112490653999L625.0533333333333,56.91944940090187L626.26,57.6676197171212L627.4666666666667,57.8422190070153L628.6733333333333,58.387027215957715L629.88,58.68982328176506L631.0866666666667,58.64746553897865L632.2933333333333,59.05621213912971L633.5,59.62843490839012L634.7066666666667,60.503903162479475L635.9133333333333,60.8615283489228L637.12,61.46374983787544L638.3266666666667,61.095226240158155L639.5333333333333,61.53498275280006L640.74,62.59460045099266L641.9466666666667,63.419396710395844L643.1533333333333,62.680102419853284L644.36,61.91069705486305L645.5666666666667,62.4652801275254L646.7733333333333,63.22884304523471L647.98,63.735338282585175L649.1866666666666,63.524673116207154L650.3933333333333,62.265962791442945L651.6,62.952899765968354L652.8066666666666,62.978741359710725L654.0133333333333,63.59905196428302L655.22,63.507932257652314L656.4266666666666,62.93042881488803L657.6333333333333,61.82822866439827L658.84,61.32701410055168L660.0466666666666,61.46712048053749L661.2533333333333,61.72048045396812L662.46,61.81733025312431L663.6666666666666,61.4121790051461L664.8733333333333,61.29656596183784L666.08,62.035860252380445L667.2866666666666,62.390676569938734L668.4933333333333,61.88485546112068L669.7,62.45921297073372L670.9066666666666,62.693472635746076L672.1133333333333,63.526920211315186L673.32,64.0504933714867L674.5266666666666,64.41969109773639L675.7333333333333,63.95858718156818L676.94,63.958474826812775L678.1466666666666,64.47553141117099L679.3533333333334,64.89506406784061L680.56,64.83753843307498L681.7666666666667,64.44261146783832L682.9733333333334,63.81230129003528L684.18,63.531077337265046L685.3866666666667,63.69376702308658L686.5933333333334,63.78926856517795L687.8,63.72432751655582L689.0066666666667,63.6742172956467L690.2133333333334,63.16468847990039L691.42,63.20760799646381L692.6266666666667,63.09345556497577L693.8333333333334,62.858746480941804L695.04,63.105589878559144L696.2466666666667,63.288391065597565L697.4533333333334,63.56366021633151L698.66,65.41200829744342L699.8666666666667,66.56488044261935L701.0733333333334,65.96322072744373L702.28,65.6199769496918L703.4866666666667,65.27976675033572L704.6933333333334,64.85180748701099L705.9,65.91805411577228L707.1066666666667,66.44634617567066L708.3133333333334,65.77626241445545L709.52,64.07970560789111L710.7266666666667,63.077838253974946L711.9333333333333,63.47085518836978L713.14,63.81084067821506L714.3466666666667,63.869826924800904L715.5533333333333,62.36887974739082L716.76,61.20230032205589L717.9666666666667,61.03197051286705L719.1733333333333,61.49374855756767L720.38,61.90631521940239L721.5866666666667,61.224209499359205L722.7933333333333,60.22458924055107L724,59.54630358219154L725.2066666666667,59.241934549808576L726.4133333333334,59.82606692314155L727.6199999999999,60.098077785968854L728.8266666666666,60.41772706508644L730.0333333333333,60.1359413385392L731.24,59.22216011285789L732.4466666666667,58.48758472204216L733.6533333333334,57.97682000398643L734.8599999999999,58.3648933291436L736.0666666666666,58.51926876306541L737.2733333333333,59.197217357158735L738.48,59.44664491415031L739.6866666666667,59.77157486677177L740.8933333333334,59.5227090835572L742.0999999999999,58.866107892990186L743.3066666666666,58.840828073024824L744.5133333333333,59.01902271509178L745.72,59.307325017452314L746.9266666666667,58.423991930484846L748.1333333333334,56.018251907825544L749.3399999999999,55.10952664613731L750.5466666666666,55.46501709222801L751.7533333333333,56.66597707271583L752.96,56.25835402011879L754.1666666666667,54.83807755708702L755.3733333333332,53.95980043411262L756.5799999999999,54.08844662904747L757.7866666666666,54.247203898429945L758.9933333333333,54.435510468483045L760.2,53.594535124301984L761.4066666666668,53.165115249157026L762.6133333333332,53.866433632373884L763.8199999999999,54.64100731611259L765.0266666666666,54.52932668924339L766.2333333333333,54.4950584888459L767.44,53.798908424377515L768.6466666666668,53.71981067657478L769.8533333333332,53.58981622457512L771.06,53.53150410652168L772.2666666666667,53.42566592693336L773.4733333333334,52.95849485397346L774.6800000000001,51.84966577291496L775.8866666666668,51.766410899162366L777.0933333333332,51.619113814830854L778.3,50.87431414127357L779.5066666666667,51.09329355955131L780.7133333333334,51.21317608356483L781.9200000000001,51.33159799575813L783.1266666666668,50.07906718254097L784.3333333333333,49.96536417007454L785.54,50.15333367586143L786.7466666666667,50.32029284238823L787.9533333333334,50.626908969879224L789.1600000000001,50.084460210800245L790.3666666666666,48.80597544908531L791.5733333333333,48.09083743095405L792.78,48.310603332519605L793.9866666666667,47.886576485633924L795.1933333333334,47.618273329734876L796.4000000000001,47.64984501600273L797.6066666666666,47.26795120239265L798.8133333333333,46.922235620021894L800.02,46.201367509365156L801.2266666666667,45.63004357814796L802.4333333333334,46.02586938142784L803.6400000000001,47.070094478130414L804.8466666666666,46.4552892565728L806.0533333333333,45.679816734790876L807.26,45.8000363230706L808.4666666666667,46.796061229705884L809.6733333333334,47.93736083507545L810.8800000000001,47.63164354562767L812.0866666666666,46.46124405860908L813.2933333333333,46.31866587400444L814.5,45.81554127931602L815.7066666666667,45.359605681896284L816.9133333333334,46.22866971492775L818.1199999999999,47.174809110164716L819.3266666666666,47.13964207172401L820.5333333333333,46.12519098520286L821.74,44.99535156488426L822.9466666666667,44.402343165874555L824.1533333333334,45.520048272609785L825.3599999999999,45.903627407550886L826.5666666666666,45.9742985486985L827.7733333333333,45.08029175996788L828.98,44.334705603122785L830.1866666666667,44.380658698082044L831.3933333333334,45.64509911537178L832.5999999999999,46.0160945177079L833.8066666666666,45.74846549034126L835.0133333333333,46.24293876886375L836.22,46.5250615596772L837.4266666666667,46.75269229412086L838.6333333333334,47.23446948528297L839.8399999999999,48.173305821418836L841.0466666666666,48.30689562559135L842.2533333333333,48.28004283905037L843.46,47.98129154443748L844.6666666666667,48.2337526798249L845.8733333333332,49.03663976192482L847.0799999999999,49.15112925767906L848.2866666666666,49.28235961198814L849.4933333333333,48.851591479778364L850.7,49.56965072155006L851.9066666666668,49.924129974842145L853.1133333333332,49.867615532875135L854.3199999999999,49.73694695234306L855.5266666666666,49.173824918270185L856.7333333333333,49.26876468658455L857.94,49.063717257976606L859.1466666666668,49.84222335815437L860.3533333333332,50.328607094287946L861.56,50.96745623350151L862.7666666666667,51.11812396049507L863.9733333333334,52.22481830120094L865.1800000000001,52.72356106042869L866.3866666666668,53.26027972698219L867.5933333333332,53.76655025482185L868.8,54.45607138872154L870.0066666666667,54.909647536277845L871.2133333333334,55.15907509326942L872.4200000000001,55.074921381473615L873.6266666666668,54.96458901166923L874.8333333333333,54.86189676523216L876.04,55.392885339260175L877.2466666666667,55.70691688060768L878.4533333333334,56.64631499052055L879.6600000000001,56.53407258987434L880.8666666666666,55.141884815692976L882.0733333333333,54.38236666917808L883.28,54.554831218719556L884.4866666666667,55.5131049275399L885.6933333333334,56.10869748592384L886.9000000000001,55.93645764589317L888.1066666666666,55.528048110008314L889.3133333333333,55.219297242164686L890.52,55.71624232530601L891.7266666666667,56.19217706918724L892.9333333333334,56.87068743705757L894.1400000000001,56.38419134616859L895.3466666666666,55.45939935445793L896.5533333333333,55.4854656577111L897.76,56.03881282806404L898.9666666666667,56.22307462692268L900.1733333333334,56.19599713087089L901.3800000000001,56.225434076786115L902.5866666666666,55.44838858842857L903.7933333333333,55.003014338016584L905,55.853090417385175L906.2066666666667,57.460212838649824L907.4133333333334,58.402981591224744L908.6199999999999,58.67802603244789L909.8266666666666,58.01198704242714L911.0333333333333,58.30085111856468L912.24,59.7875292420388L913.4466666666667,61.420156192779615L914.6533333333334,62.57291598320015L915.8599999999999,62.40977687835701L917.0666666666666,62.15754045248039L918.2733333333333,61.91260708570488L919.48,62.870768439769776L920.6866666666667,64.1901503324509L921.8933333333334,64.93090523481372L923.0999999999999,64.62664855718616L924.3066666666666,64.57990897893909L925.5133333333333,64.3505929231644L926.72,64.47867734432224L927.9266666666667,64.94742138385776L929.1333333333334,65.18538875579837L930.3399999999999,64.6506924748421L931.5466666666666,64.38688350915912L932.7533333333333,64.65541137456897L933.96,65.05415840148929L935.1666666666667,65.17067028284076L936.3733333333332,65.25156570672992L937.5799999999999,64.85191984176639L938.7866666666666,64.60811002254489L939.9933333333333,65.86064083576206L941.2,66.76093949079517L942.4066666666668,66.42758293151859L943.6133333333332,65.97232146263126L944.8199999999999,65.65626753568652L946.0266666666666,66.3934270858765L947.2333333333333,67.02014191150668L948.44,67.83235443830493L949.6466666666668,68.813211452961L950.8533333333332,69.23633946180347L952.06,69.39678205251697L953.2666666666667,68.76130355596545L954.4733333333334,68.30019963979724L955.6800000000001,68.51962847709659L956.8866666666668,69.76328326463702L958.0933333333332,70.49976868629459L959.3,70.8845837235451L960.5066666666667,70.68346871137622L961.7133333333334,69.84687520265582L962.9200000000001,69.41183758974078L964.1266666666668,69.53733785152438L965.3333333333333,70.07911248207095L966.54,70.14158172607425L967.7466666666667,70.17584992647174L968.9533333333334,69.62699694633487L970.1600000000001,69.58879632949832L971.3666666666666,69.74013818502429L972.5733333333333,69.76350797414783L973.78,70.40482891798023L974.9866666666667,70.96143437623981L976.1933333333334,71.12614644765857L977.4000000000001,71.57668901681903L978.6066666666666,72.4386747002602L979.8133333333333,72.90876699686054L981.02,73.01651520729068L982.2266666666667,72.90989054441455L983.4333333333334,73.68221713304523L984.6400000000001,74.36477227211002L985.8466666666666,74.79149563312534L987.0533333333333,73.9244539856911L988.26,73.55795277357105L989.4666666666667,73.11965687274936L990.6733333333334,72.39350808858875L991.8800000000001,72.32216281890872L993.0866666666666,72.62181295156482L994.2933333333333,73.02629007101062L995.5,73.24740422964099L996.7066666666667,72.92505843639377L997.9133333333334,72.63248665332797L999.1199999999999,72.06801636219028L1000.3266666666666,72.46552748680118L1001.5333333333333,73.80209965705875L1002.74,73.51806683540347L1003.9466666666667,72.46058387756351L1005.1533333333334,71.1489544630051L1006.3599999999999,70.41988445520404L1007.5666666666666,70.07855070829395L1008.7733333333333,69.92013050317767L1009.98,69.63486177921298L1011.1866666666667,68.21503473520282L1012.3933333333334,66.74498511552814L1013.5999999999999,66.50342239141467L1014.8066666666666,66.77509618997577L1016.0133333333333,67.36405981779102L1017.22,67.38799138069156L1018.4266666666667,66.31837410926822L1019.6333333333334,64.78866411447528L1020.8399999999999,64.51294554471973L1022.0466666666666,65.42886151075366L1023.2533333333333,65.68188441991809L1024.46,65.968051981926L1025.6666666666667,65.48267943859103L1026.8733333333332,65.6819967746735L1028.08,65.99827541112903L1029.2866666666666,66.33376671075824L1030.4933333333333,66.38466341495517L1031.7,66.78116334676746L1032.9066666666668,66.80352194309238L1034.1133333333332,67.29765815734866L1035.32,67.27642310857776L1036.5266666666666,66.68790889978412L1037.7333333333333,66.95958269834522L1038.94,67.6559574723244L1040.1466666666668,67.84100575447086L1041.3533333333332,67.53629965782169L1042.56,67.4048445940018L1043.7666666666667,67.70640475749973L1044.9733333333334,68.15009368658069L1046.18,68.1852607250214L1047.3866666666668,68.19593442678455L1048.5933333333332,68.62569136619571L1049.8,69.19566704034808L1051.0066666666667,69.40453453063968L1052.2133333333334,69.15083749294284L1053.42,70.0199015259743L1054.6266666666668,70.65346999168399L1055.8333333333333,71.03907151222232L1057.04,71.29939748048785L1058.2466666666667,71.45377291440967L1059.4533333333334,72.00925482511524L1060.66,72.36025108098987L1061.8666666666666,72.7112473368645L1063.0733333333333,73.11201674938205L1064.28,72.74281902313236L1065.4866666666667,72.53294034004215L1066.6933333333334,72.29823125600818L1067.9,71.89218116998676L1069.1066666666666,71.98880625963214L1070.3133333333333,72.08599312305454L1071.52,71.68983025550845L1072.7266666666667,71.75308598279956L1073.9333333333334,71.75331069231036L1075.14,72.4318210601807L1076.3466666666666,73.53098763227466L1077.5533333333333,74.02029259204868L1078.76,74.05916733741763L1079.9666666666667,73.9590592503548L1081.1733333333334,73.8963652968407L1082.38,73.89703942537311L1083.5866666666666,74.02669681310657L1084.7933333333333,74.22118289470676L1086,73.85602993965152L1087.2066666666667,73.68109358549121L1088.4133333333334,73.080669772625L1089.62,72.9834829092026L1090.8266666666666,73.06471539735797L1092.0333333333333,73.3804322600365L1093.24,72.88112772703174L1094.4466666666667,71.80589271783832L1095.6533333333334,71.78555650711063L1096.86,71.94633616209033L1098.0666666666666,73.15471155643466L1099.2733333333333,73.4499798536301L1100.48,73.53683007955554L1101.6866666666667,73.49997771978381L1102.8933333333334,72.54642291069034L1104.1,72.26744605302814L1105.3066666666666,72.29474825859073L1106.5133333333333,72.96280963420871L1107.72,73.38919593095783L1108.9266666666667,73.06381655931476L1110.1333333333334,71.85577822923663L1111.34,71.43197609186176L1112.5466666666666,71.25512970685962L1113.7533333333333,71.11288858652118L1114.96,71.22153563499454L1116.1666666666667,71.66780872344974L1117.3733333333332,71.97700901031497L1118.58,71.9583581209183L1119.7866666666666,70.62942607402805L1120.9933333333333,70.74863446950916L1122.2,71.18266088962558L1123.4066666666668,71.38838244676593L1124.6133333333332,71.03367848396304L1125.82,70.79964352846149L1127.0266666666666,71.00210679769519L1128.2333333333333,71.04334099292758L1129.44,70.36932481527332L1130.6466666666668,70.27269972562793L1131.8533333333332,69.29779751300815L1133.06,68.4367106676102L1134.2666666666667,67.9139239907265L1135.4733333333334,67.96043885946277L1136.68,68.50288761854175L1137.8866666666668,68.63018555641177L1139.0933333333332,68.42480106353763L1140.3,68.85826570987705L1141.5066666666667,68.78040386438373L1142.7133333333334,69.496665430069L1143.92,69.57711143493655L1145.1266666666668,70.28809232711795L1146.3333333333333,70.23000491857532L1147.54,70.22326363325122L1148.7466666666667,69.94765741825107L1149.9533333333334,70.07630361318591L1151.16,69.60677309036258L1152.3666666666666,70.10787529945377L1153.5733333333333,70.30157489776614L1154.78,69.9920375466347L1155.9866666666667,69.47700334787372L1157.1933333333334,69.24330545663837L1158.4,68.83983952999118L1159.6066666666666,68.36266888380054L1160.8133333333333,68.32289530038837L1162.02,68.44704730510715L1163.2266666666667,68.86500699520114L1164.4333333333334,68.24581993818286L1165.64,68.27109975814822L1166.8466666666666,67.94807983636859L1168.0533333333333,67.6835967421532L1169.26,68.27941401004794L1170.4666666666667,68.7500680804253L1171.6733333333334,69.05623478889468L1172.88,68.87377066612247L1174.0866666666666,67.43439389467243L1175.2933333333333,66.92138208150867L1176.5,67.15620352029804L1177.7066666666667,67.82022012472156L1178.9133333333334,68.38030858039859L1180.12,68.82815463542941L1181.3266666666666,67.81168116331104L1182.5333333333333,67.16856254339221L1183.74,67.48259408473972L1184.9466666666667,68.02403165102008L1186.1533333333334,68.40648723840717L1187.36,68.39704943895343L1188.5666666666666,68.02470577955249L1189.7733333333333,67.97156198024753L1190.98,68.27334685325626L1192.1866666666667,68.40356601476672L1193.3933333333334,68.60119802951816L1194.6,67.90325028896335L1195.8066666666666,67.68707973957065L1197.0133333333333,67.59191526174548L1198.22,68.0953769207001L1199.4266666666667,69.50733913183215L1200.6333333333334,69.23723829984668L1201.84,68.8480414271355L1203.0466666666666,68.54513300657275L1204.2533333333333,68.37929738759998L1205.46,68.75377578735355L1206.6666666666667,69.10364849567416L1207.8733333333332,69.55801112651828L1209.08,69.79373140335086L1210.2866666666666,69.30352760553363L1211.4933333333333,68.03425593376163L1212.7,67.77898592948917L1213.9066666666668,67.42282135486606L1215.1133333333332,67.65887869596484L1216.32,67.91527224779132L1217.5266666666666,67.82505137920383L1218.7333333333333,66.94194300174716L1219.94,66.53780294656757L1221.1466666666668,66.39488769769672L1222.3533333333332,65.94456983804706L1223.56,65.42807502746585L1224.7666666666667,65.56795669794086L1225.9733333333334,65.21190447807315L1227.18,64.55934805870059L1228.3866666666668,64.1549832940102L1229.5933333333332,64.12869228124622L1230.8,64.03352780342105L1232.0066666666667,64.52350689172748L1233.2133333333334,64.64013112783435L1234.42,64.38104106187824L1235.6266666666668,64.04869569540027L1236.8333333333333,64.35497475862506L1238.04,65.06584329605106L1239.2466666666667,65.90681864023212L1240.4533333333334,66.22152431011203L1241.66,66.30814982652667L1242.8666666666666,66.85217155218128L1244.0733333333333,66.86936182975772L1245.28,67.69988818168643L1246.4866666666667,68.22604550123218L1247.6933333333334,68.19492323398593L1248.9,67.95740528106693L1250.1066666666666,67.22878469228748L1251.3133333333333,66.89924819469455L1252.52,67.31091601848605L1253.7266666666667,67.91628344058994L1254.9333333333334,68.23817981481555L1256.14,67.62213869094852L1257.3466666666666,66.82913882732394L1258.5533333333333,66.85262097120288L1259.76,66.82689173221591L1260.9666666666667,67.34709424972537L1262.1733333333334,67.27552427053455L1263.38,67.7674133896828L1264.5866666666666,68.49771929979327L1265.7933333333333,69.22341866493228L1267,68.69377834796909L1268.2066666666667,68.99039490222934L1269.4133333333334,69.94878096580508L1270.62,70.55021597146991L1271.8266666666666,70.72638822793964L1273.0333333333333,71.26614047288898L1274.24,71.85454232692722L1275.4466666666667,72.42215855121616L1276.6533333333334,72.25137932300571L1277.86,72.28632165193561L1279.0666666666666,72.5573213219643L1280.2733333333333,72.8158496141434L1281.48,73.22234911918643L1282.6866666666667,72.84719659090045L1283.8933333333334,73.20347352027896L1285.1,73.32695139646533L1286.3066666666666,72.43564112186435L1287.5133333333333,72.7879856348038L1288.72,72.46406687498096L1289.9266666666667,71.98813213109973L1291.1333333333334,71.93083120584491L1292.34,71.9089220285416L1293.5466666666666,72.28362513780597L1294.7533333333333,72.75607688426975L1295.96,72.8013558506966L1297.1666666666667,72.10812700986865L1298.3733333333332,70.89312268495563L1299.58,70.83368701934818L1300.7866666666666,71.1560328125954L1301.9933333333333,72.45361788272861L1303.2,72.78686208724979L1304.4066666666668,72.8227032542229L1305.6133333333332,72.80416471958164L1306.82,72.73551596403125L1308.0266666666666,72.91483415365222L1309.2333333333333,73.41267807483676L1310.44,73.75491065979007L1311.6466666666668,73.81659342050555L1312.8533333333332,73.526605796814L1314.06,73.3321197152138L1315.2666666666667,73.54873968362811L1316.4733333333334,73.65435315370563L1317.68,73.85962529182437L1318.8866666666668,74.182083439827L1320.0933333333332,74.46532977819446L1321.3,74.62228937149051L1322.5066666666667,74.46443094015125L1323.7133333333334,73.98883326053623L1324.92,73.85726584196094L1326.1266666666668,73.42065526247028L1327.3333333333333,73.84580565690997" style="fill: none;" fill="none"></path></g></g></g></g></g></g><g transform="translate(50, 377)" clip-path="url(#clip_1)"><clipPath id="clip_1"><rect width="1448" height="23"></rect></clipPath><g><g><line x1="0" y1="0" x2="0" y2="5" style="visibility: inherit;" fill="rgb(0, 0, 0)" stroke="rgb(204, 204, 204)" stroke-width="1px"></line><line x1="120.66666666666666" y1="0" x2="120.66666666666666" y2="5" style="visibility: inherit;" fill="rgb(0, 0, 0)" stroke="rgb(204, 204, 204)" stroke-width="1px"></line><line x1="241.33333333333331" y1="0" x2="241.33333333333331" y2="5" style="visibility: inherit;" fill="rgb(0, 0, 0)" stroke="rgb(204, 204, 204)" stroke-width="1px"></line><line x1="362" y1="0" x2="362" y2="5" style="visibility: inherit;" fill="rgb(0, 0, 0)" stroke="rgb(204, 204, 204)" stroke-width="1px"></line><line x1="482.66666666666663" y1="0" x2="482.66666666666663" y2="5" style="visibility: inherit;" fill="rgb(0, 0, 0)" stroke="rgb(204, 204, 204)" stroke-width="1px"></line><line x1="603.3333333333334" y1="0" x2="603.3333333333334" y2="5" style="visibility: inherit;" fill="rgb(0, 0, 0)" stroke="rgb(204, 204, 204)" stroke-width="1px"></line><line x1="724" y1="0" x2="724" y2="5" style="visibility: inherit;" fill="rgb(0, 0, 0)" stroke="rgb(204, 204, 204)" stroke-width="1px"></line><line x1="844.6666666666667" y1="0" x2="844.6666666666667" y2="5" style="visibility: inherit;" fill="rgb(0, 0, 0)" stroke="rgb(204, 204, 204)" stroke-width="1px"></line><line x1="965.3333333333333" y1="0" x2="965.3333333333333" y2="5" style="visibility: inherit;" fill="rgb(0, 0, 0)" stroke="rgb(204, 204, 204)" stroke-width="1px"></line><line x1="1086" y1="0" x2="1086" y2="5" style="visibility: inherit;" fill="rgb(0, 0, 0)" stroke="rgb(204, 204, 204)" stroke-width="1px"></line><line x1="1206.6666666666667" y1="0" x2="1206.6666666666667" y2="5" style="visibility: inherit;" fill="rgb(0, 0, 0)" stroke="rgb(204, 204, 204)" stroke-width="1px"></line><line x1="1327.3333333333333" y1="0" x2="1327.3333333333333" y2="5" style="visibility: inherit;" fill="rgb(0, 0, 0)" stroke="rgb(204, 204, 204)" stroke-width="1px"></line><line x1="1448" y1="0" x2="1448" y2="5" style="visibility: inherit;" fill="rgb(0, 0, 0)" stroke="rgb(204, 204, 204)" stroke-width="1px"></line></g><g transform="translate(0, 8)"><text x="0" y="0" dx="0em" dy="0.95em" style="text-anchor: middle; visibility: hidden; font-family: Roboto, sans-serif; font-size: 12px; font-weight: 200;" fill="rgb(255, 255, 255)" stroke="none" stroke-width="1px">-100</text><text x="120.66666666666666" y="0" dx="0em" dy="0.95em" style="text-anchor: middle; visibility: inherit; font-family: Roboto, sans-serif; font-size: 12px; font-weight: 200;" fill="rgb(255, 255, 255)" stroke="none" stroke-width="1px">0</text><text x="241.33333333333331" y="0" dx="0em" dy="0.95em" style="text-anchor: middle; visibility: inherit; font-family: Roboto, sans-serif; font-size: 12px; font-weight: 200;" fill="rgb(255, 255, 255)" stroke="none" stroke-width="1px">100</text><text x="362" y="0" dx="0em" dy="0.95em" style="text-anchor: middle; visibility: inherit; font-family: Roboto, sans-serif; font-size: 12px; font-weight: 200;" fill="rgb(255, 255, 255)" stroke="none" stroke-width="1px">200</text><text x="482.66666666666663" y="0" dx="0em" dy="0.95em" style="text-anchor: middle; visibility: inherit; font-family: Roboto, sans-serif; font-size: 12px; font-weight: 200;" fill="rgb(255, 255, 255)" stroke="none" stroke-width="1px">300</text><text x="603.3333333333334" y="0" dx="0em" dy="0.95em" style="text-anchor: middle; visibility: inherit; font-family: Roboto, sans-serif; font-size: 12px; font-weight: 200;" fill="rgb(255, 255, 255)" stroke="none" stroke-width="1px">400</text><text x="724" y="0" dx="0em" dy="0.95em" style="text-anchor: middle; visibility: inherit; font-family: Roboto, sans-serif; font-size: 12px; font-weight: 200;" fill="rgb(255, 255, 255)" stroke="none" stroke-width="1px">500</text><text x="844.6666666666667" y="0" dx="0em" dy="0.95em" style="text-anchor: middle; visibility: inherit; font-family: Roboto, sans-serif; font-size: 12px; font-weight: 200;" fill="rgb(255, 255, 255)" stroke="none" stroke-width="1px">600</text><text x="965.3333333333333" y="0" dx="0em" dy="0.95em" style="text-anchor: middle; visibility: inherit; font-family: Roboto, sans-serif; font-size: 12px; font-weight: 200;" fill="rgb(255, 255, 255)" stroke="none" stroke-width="1px">700</text><text x="1086" y="0" dx="0em" dy="0.95em" style="text-anchor: middle; visibility: inherit; font-family: Roboto, sans-serif; font-size: 12px; font-weight: 200;" fill="rgb(255, 255, 255)" stroke="none" stroke-width="1px">800</text><text x="1206.6666666666667" y="0" dx="0em" dy="0.95em" style="text-anchor: middle; visibility: inherit; font-family: Roboto, sans-serif; font-size: 12px; font-weight: 200;" fill="rgb(255, 255, 255)" stroke="none" stroke-width="1px">900</text><text x="1327.3333333333333" y="0" dx="0em" dy="0.95em" style="text-anchor: middle; visibility: inherit; font-family: Roboto, sans-serif; font-size: 12px; font-weight: 200;" fill="rgb(255, 255, 255)" stroke="none" stroke-width="1px">1k</text><text x="1448" y="0" dx="0em" dy="0.95em" style="text-anchor: middle; visibility: hidden; font-family: Roboto, sans-serif; font-size: 12px; font-weight: 200;" fill="rgb(255, 255, 255)" stroke="none" stroke-width="1px">1.1k</text></g><line x1="0" y1="0" x2="1448" y2="0" fill="rgb(0, 0, 0)" stroke="rgb(204, 204, 204)" stroke-width="1px"></line></g></g></g></g></svg>