<svg viewBox="0 0 1498 400" xmlns="http://www.w3.org/2000/svg"><g><g><g><g><g><line x1="50" y1="377" x2="45" y2="377" style="visibility: inherit;" fill="rgb(0, 0, 0)" stroke="rgb(204, 204, 204)" stroke-width="1px"></line><line x1="50" y1="342.72727272727286" x2="45" y2="342.72727272727286" style="visibility: inherit;" fill="rgb(0, 0, 0)" stroke="rgb(204, 204, 204)" stroke-width="1px"></line><line x1="50" y1="308.4545454545456" x2="45" y2="308.4545454545456" style="visibility: inherit;" fill="rgb(0, 0, 0)" stroke="rgb(204, 204, 204)" stroke-width="1px"></line><line x1="50" y1="274.1818181818183" x2="45" y2="274.1818181818183" style="visibility: inherit;" fill="rgb(0, 0, 0)" stroke="rgb(204, 204, 204)" stroke-width="1px"></line><line x1="50" y1="239.90909090909093" x2="45" y2="239.90909090909093" style="visibility: inherit;" fill="rgb(0, 0, 0)" stroke="rgb(204, 204, 204)" stroke-width="1px"></line><line x1="50" y1="205.63636363636365" x2="45" y2="205.63636363636365" style="visibility: inherit;" fill="rgb(0, 0, 0)" stroke="rgb(204, 204, 204)" stroke-width="1px"></line><line x1="50" y1="171.36363636363635" x2="45" y2="171.36363636363635" style="visibility: inherit;" fill="rgb(0, 0, 0)" stroke="rgb(204, 204, 204)" stroke-width="1px"></line><line x1="50" y1="137.0909090909092" x2="45" y2="137.0909090909092" style="visibility: inherit;" fill="rgb(0, 0, 0)" stroke="rgb(204, 204, 204)" stroke-width="1px"></line><line x1="50" y1="102.81818181818194" x2="45" y2="102.81818181818194" style="visibility: inherit;" fill="rgb(0, 0, 0)" stroke="rgb(204, 204, 204)" stroke-width="1px"></line><line x1="50" y1="68.5454545454546" x2="45" y2="68.5454545454546" style="visibility: inherit;" fill="rgb(0, 0, 0)" stroke="rgb(204, 204, 204)" stroke-width="1px"></line><line x1="50" y1="34.27272727272732" x2="45" y2="34.27272727272732" style="visibility: inherit;" fill="rgb(0, 0, 0)" stroke="rgb(204, 204, 204)" stroke-width="1px"></line><line x1="50" y1="0" x2="45" y2="0" style="visibility: inherit;" fill="rgb(0, 0, 0)" stroke="rgb(204, 204, 204)" stroke-width="1px"></line></g><g transform="translate(40, 0)"><text x="0" y="377" dx="0em" dy="0.3em" style="text-anchor: end; visibility: hidden; font-family: Roboto, sans-serif; font-size: 12px; font-weight: 200;" fill="rgb(255, 255, 255)" stroke="none" stroke-width="1px">0.68</text><text x="0" y="342.72727272727286" dx="0em" dy="0.3em" style="text-anchor: end; visibility: inherit; font-family: Roboto, sans-serif; font-size: 12px; font-weight: 200;" fill="rgb(255, 255, 255)" stroke="none" stroke-width="1px">0.7</text><text x="0" y="308.4545454545456" dx="0em" dy="0.3em" style="text-anchor: end; visibility: inherit; font-family: Roboto, sans-serif; font-size: 12px; font-weight: 200;" fill="rgb(255, 255, 255)" stroke="none" stroke-width="1px">0.72</text><text x="0" y="274.1818181818183" dx="0em" dy="0.3em" style="text-anchor: end; visibility: inherit; font-family: Roboto, sans-serif; font-size: 12px; font-weight: 200;" fill="rgb(255, 255, 255)" stroke="none" stroke-width="1px">0.74</text><text x="0" y="239.90909090909093" dx="0em" dy="0.3em" style="text-anchor: end; visibility: inherit; font-family: Roboto, sans-serif; font-size: 12px; font-weight: 200;" fill="rgb(255, 255, 255)" stroke="none" stroke-width="1px">0.76</text><text x="0" y="205.63636363636365" dx="0em" dy="0.3em" style="text-anchor: end; visibility: inherit; font-family: Roboto, sans-serif; font-size: 12px; font-weight: 200;" fill="rgb(255, 255, 255)" stroke="none" stroke-width="1px">0.78</text><text x="0" y="171.36363636363635" dx="0em" dy="0.3em" style="text-anchor: end; visibility: inherit; font-family: Roboto, sans-serif; font-size: 12px; font-weight: 200;" fill="rgb(255, 255, 255)" stroke="none" stroke-width="1px">0.8</text><text x="0" y="137.0909090909092" dx="0em" dy="0.3em" style="text-anchor: end; visibility: inherit; font-family: Roboto, sans-serif; font-size: 12px; font-weight: 200;" fill="rgb(255, 255, 255)" stroke="none" stroke-width="1px">0.82</text><text x="0" y="102.81818181818194" dx="0em" dy="0.3em" style="text-anchor: end; visibility: inherit; font-family: Roboto, sans-serif; font-size: 12px; font-weight: 200;" fill="rgb(255, 255, 255)" stroke="none" stroke-width="1px">0.84</text><text x="0" y="68.5454545454546" dx="0em" dy="0.3em" style="text-anchor: end; visibility: inherit; font-family: Roboto, sans-serif; font-size: 12px; font-weight: 200;" fill="rgb(255, 255, 255)" stroke="none" stroke-width="1px">0.86</text><text x="0" y="34.27272727272732" dx="0em" dy="0.3em" style="text-anchor: end; visibility: inherit; font-family: Roboto, sans-serif; font-size: 12px; font-weight: 200;" fill="rgb(255, 255, 255)" stroke="none" stroke-width="1px">0.88</text><text x="0" y="0" dx="0em" dy="0.3em" style="text-anchor: end; visibility: hidden; font-family: Roboto, sans-serif; font-size: 12px; font-weight: 200;" fill="rgb(255, 255, 255)" stroke="none" stroke-width="1px">0.9</text></g><line x1="50" y1="0" x2="50" y2="377" fill="rgb(0, 0, 0)" stroke="rgb(204, 204, 204)" stroke-width="1px"></line></g></g><g transform="translate(50, 0)" clip-path="url(#clip_0)"><clipPath id="clip_0"><rect width="1448" height="377"></rect></clipPath><g><g><g><line x1="0" y1="0" x2="0" y2="377" fill="rgb(0, 0, 0)" stroke="rgb(189, 189, 189)" stroke-width="1px" opacity="0.25"></line><line x1="120.66666666666666" y1="0" x2="120.66666666666666" y2="377" fill="rgb(0, 0, 0)" stroke="rgb(189, 189, 189)" stroke-width="1px" opacity="0.25"></line><line x1="241.33333333333331" y1="0" x2="241.33333333333331" y2="377" fill="rgb(0, 0, 0)" stroke="rgb(189, 189, 189)" stroke-width="1px" opacity="0.25"></line><line x1="362" y1="0" x2="362" y2="377" fill="rgb(0, 0, 0)" stroke="rgb(189, 189, 189)" stroke-width="1px" opacity="0.25"></line><line x1="482.66666666666663" y1="0" x2="482.66666666666663" y2="377" fill="rgb(0, 0, 0)" stroke="rgb(189, 189, 189)" stroke-width="1px" opacity="0.25"></line><line x1="603.3333333333334" y1="0" x2="603.3333333333334" y2="377" fill="rgb(0, 0, 0)" stroke="rgb(189, 189, 189)" stroke-width="1px" opacity="0.25"></line><line x1="724" y1="0" x2="724" y2="377" fill="rgb(0, 0, 0)" stroke="rgb(189, 189, 189)" stroke-width="1px" opacity="0.25"></line><line x1="844.6666666666667" y1="0" x2="844.6666666666667" y2="377" fill="rgb(0, 0, 0)" stroke="rgb(189, 189, 189)" stroke-width="1px" opacity="0.25"></line><line x1="965.3333333333333" y1="0" x2="965.3333333333333" y2="377" fill="rgb(0, 0, 0)" stroke="rgb(189, 189, 189)" stroke-width="1px" opacity="0.25"></line><line x1="1086" y1="0" x2="1086" y2="377" fill="rgb(0, 0, 0)" stroke="rgb(189, 189, 189)" stroke-width="1px" opacity="0.25"></line><line x1="1206.6666666666667" y1="0" x2="1206.6666666666667" y2="377" fill="rgb(0, 0, 0)" stroke="rgb(189, 189, 189)" stroke-width="1px" opacity="0.25"></line><line x1="1327.3333333333333" y1="0" x2="1327.3333333333333" y2="377" fill="rgb(0, 0, 0)" stroke="rgb(189, 189, 189)" stroke-width="1px" opacity="0.25"></line><line x1="1448" y1="0" x2="1448" y2="377" fill="rgb(0, 0, 0)" stroke="rgb(189, 189, 189)" stroke-width="1px" opacity="0.25"></line></g><g><line x1="0" y1="377" x2="1448" y2="377" fill="rgb(0, 0, 0)" stroke="rgb(189, 189, 189)" stroke-width="1px" opacity="0.25"></line><line x1="0" y1="342.72727272727286" x2="1448" y2="342.72727272727286" fill="rgb(0, 0, 0)" stroke="rgb(189, 189, 189)" stroke-width="1px" opacity="0.25"></line><line x1="0" y1="308.4545454545456" x2="1448" y2="308.4545454545456" fill="rgb(0, 0, 0)" stroke="rgb(189, 189, 189)" stroke-width="1px" opacity="0.25"></line><line x1="0" y1="274.1818181818183" x2="1448" y2="274.1818181818183" fill="rgb(0, 0, 0)" stroke="rgb(189, 189, 189)" stroke-width="1px" opacity="0.25"></line><line x1="0" y1="239.90909090909093" x2="1448" y2="239.90909090909093" fill="rgb(0, 0, 0)" stroke="rgb(189, 189, 189)" stroke-width="1px" opacity="0.25"></line><line x1="0" y1="205.63636363636365" x2="1448" y2="205.63636363636365" fill="rgb(0, 0, 0)" stroke="rgb(189, 189, 189)" stroke-width="1px" opacity="0.25"></line><line x1="0" y1="171.36363636363635" x2="1448" y2="171.36363636363635" fill="rgb(0, 0, 0)" stroke="rgb(189, 189, 189)" stroke-width="1px" opacity="0.25"></line><line x1="0" y1="137.0909090909092" x2="1448" y2="137.0909090909092" fill="rgb(0, 0, 0)" stroke="rgb(189, 189, 189)" stroke-width="1px" opacity="0.25"></line><line x1="0" y1="102.81818181818194" x2="1448" y2="102.81818181818194" fill="rgb(0, 0, 0)" stroke="rgb(189, 189, 189)" stroke-width="1px" opacity="0.25"></line><line x1="0" y1="68.5454545454546" x2="1448" y2="68.5454545454546" fill="rgb(0, 0, 0)" stroke="rgb(189, 189, 189)" stroke-width="1px" opacity="0.25"></line><line x1="0" y1="34.27272727272732" x2="1448" y2="34.27272727272732" fill="rgb(0, 0, 0)" stroke="rgb(189, 189, 189)" stroke-width="1px" opacity="0.25"></line><line x1="0" y1="0" x2="1448" y2="0" fill="rgb(0, 0, 0)" stroke="rgb(189, 189, 189)" stroke-width="1px" opacity="0.25"></line></g></g></g><g><g><line x1="0" y1="1542.2727272727275" x2="1448" y2="1542.2727272727275" fill="rgb(0, 0, 0)" stroke="rgb(153, 153, 153)" stroke-width="1.5px"></line></g></g><g><g><line x1="120.66666666666666" y1="0" x2="120.66666666666666" y2="377" fill="rgb(0, 0, 0)" stroke="rgb(153, 153, 153)" stroke-width="1.5px"></line></g></g><g><g><g><g><g><path stroke="rgb(255, 112, 67)" stroke-width="2px" d="M161.69333333333333,381.28133880789915L162.9,371.3294358626963L164.10666666666665,361.72118688196537L165.31333333333333,352.2214837517409L166.52,341.64456667064934L167.72666666666666,330.74915196264595L168.93333333333334,318.2587762163984L170.14,304.59619299029043L171.34666666666666,290.9719492294043L172.55333333333334,278.8573464135073L173.76,267.96638998025645L174.96666666666667,258.6903192331544L176.17333333333335,250.9361287189747L177.38,243.7970606766839L178.58666666666667,237.089984780452L179.79333333333332,231.0162659354323L181,225.46490458213273L182.20666666666665,219.99518007752235L183.41333333333336,215.6041792294451L184.62,212.0027966925804L185.82666666666665,208.85197877841512L187.03333333333336,205.85563124284266L188.24,203.25654946225038L189.44666666666666,200.9653645141708L190.6533333333333,199.0443642964234L191.86,197.40173400712527L193.06666666666666,195.59502642479677L194.2733333333333,193.73293498017486L195.48000000000002,191.946862896702L196.68666666666667,190.53750168001852L197.89333333333332,189.24818580685871L199.10000000000002,188.1650282896254L200.30666666666667,187.3081967479728L201.51333333333332,186.65837327845628L202.72000000000003,186.258551121996L203.92666666666668,186.50864713049518L205.13333333333333,186.77792334514447L206.33999999999997,186.81034238963414L207.54666666666668,186.4059916789532L208.75333333333333,185.9249848897198L209.95999999999998,185.8979426867548L211.16666666666669,186.11680436955047L212.37333333333333,186.9732385424526L213.57999999999998,188.10292567461875L214.7866666666667,189.13998717728086L215.99333333333334,189.3367876905155L217.2,189.2363277851315L218.4066666666667,189.16943312540099L219.61333333333334,189.2584021575879L220.82,189.48395191845L222.02666666666664,189.8709155707922L223.23333333333335,190.4308836540473L224.44,190.6145931682252L225.64666666666665,190.71815930395707L226.85333333333335,190.75713347764628L228.06,190.93613953215979L229.26666666666665,191.18592728216757L230.47333333333336,191.37882158942244L231.68,191.55747683680033L232.88666666666666,191.72427929000176L234.0933333333333,191.787916964898L235.3,191.9221118153606L236.50666666666666,192.11191926043813L237.7133333333333,192.41120950203458L238.92000000000002,192.76626134679233L240.12666666666667,193.29053555424693L241.33333333333331,193.6150281534696" style="fill: none;" fill="none"></path></g><g><path stroke="rgb(0, 119, 187)" stroke-width="2px" d="M133.94,395.6559868866972L135.14666666666668,349.23163643139685L136.35333333333332,300.9963019109118L137.56,266.35963894798914L138.76666666666668,244.3163943704012L139.97333333333333,228.00706805683117L141.18,216.77728837040536L142.38666666666666,210.52409775349565L143.59333333333333,206.3222445534508L144.8,201.47027909819752L146.00666666666666,198.58903909549522L147.21333333333334,196.9530396534648L148.42,192.57104088555818L149.62666666666667,188.51813842241071L150.83333333333334,186.17249365075892L152.04,183.41423688502172L153.24666666666667,178.9780738032173L154.45333333333335,174.81319387842657L155.66,171.38057877088673L156.86666666666667,167.8906728789303L158.07333333333332,164.2835766473488L159.28,159.93077097403616L160.48666666666668,154.1538294714391L161.69333333333333,146.53899592656907L162.9,137.42908435435402L164.10666666666665,126.82615547248213L165.31333333333333,115.24962584828035L166.52,103.76437170315712L167.72666666666666,94.01916331216954L168.93333333333334,87.11251251848151L170.14,81.7434466505705L171.34666666666666,77.34330360716287L172.55333333333334,73.85892286573015L173.76,71.54313549165039L174.96666666666667,69.31598686737247L176.17333333333335,66.7016725642496L177.38,63.269016449611144L178.58666666666667,60.328684067365714L179.79333333333332,57.92218314362698L181,54.74001152636625L182.20666666666665,51.34076193056966L183.41333333333336,48.6323949564006L184.62,47.33847402200457L185.82666666666665,46.439634349843274L187.03333333333336,44.96329188649708L188.24,43.49810357708933L189.44666666666666,41.72170508667014L190.6533333333333,40.311529309319226L191.86,39.63097346795873L193.06666666666666,39.454376753192705L194.2733333333333,39.02728840525779L195.48000000000002,38.04922759152232L196.68666666666667,37.12467313668122L197.89333333333332,36.67919014230148L199.10000000000002,36.58075932897353L200.30666666666667,37.26998351195173L201.51333333333332,37.395481285163534L202.72000000000003,36.98736850694093L203.92666666666668,36.338554852132475L205.13333333333333,36.54523713817203L206.33999999999997,37.69898805712032L207.54666666666668,39.07329325818928L208.75333333333333,39.85812322355548L209.95999999999998,40.06745933220071L211.16666666666669,40.299001317662714L212.37333333333333,40.726004101789584L213.57999999999998,41.720560368490396L214.7866666666667,42.787427281385995L215.99333333333334,43.62292213469788L217.2,44.02816594488524L218.4066666666667,44.18522806022284L219.61333333333334,44.47153067675024L220.82,45.01081443751659L222.02666666666664,45.3376940522264L223.23333333333335,45.62652470832738L224.44,46.14746914333782L225.64666666666665,46.61565735464382L226.85333333333335,46.97272637745254L228.06,47.37237356568785L229.26666666666665,47.79429915120356L230.47333333333336,47.82560493093815L231.68,47.64905454947909L232.88666666666666,47.370955979053576L234.0933333333333,47.207406195048335L235.3,47.11258568289513L236.50666666666666,47.32718332092824L237.7133333333333,47.846650458622825L238.92000000000002,47.47954459351516L240.12666666666667,46.406733190463115L241.33333333333331,45.78122739086943" style="fill: none;" fill="none"></path></g><g><path stroke="rgb(204, 51, 17)" stroke-width="2px" d="M135.14666666666668,385.4296519189541L136.35333333333332,341.9680424701875L137.56,299.97256775418396L138.76666666666668,268.4064932919193L139.97333333333333,240.58057348634244L141.18,216.43247314662196L142.38666666666666,201.91971077170373L143.59333333333333,191.75609574581506L144.8,184.32063977461203L146.00666666666666,180.40253198325442L147.21333333333334,177.77360999563282L148.42,171.71978500364497L149.62666666666667,163.8792635164585L150.83333333333334,157.30097346570955L152.04,151.01645651709185L153.24666666666667,142.2163815031181L154.45333333333335,131.69836034564696L155.66,121.33162533308005L156.86666666666667,111.79066546022507L158.07333333333332,102.66570440537113L159.28,94.15126660579918L160.48666666666668,86.56266922382164L161.69333333333333,81.40361245551756L162.9,77.50032735577322L164.10666666666665,75.29739024307989L165.31333333333333,72.51550643604509L166.52,69.94247193821164L167.72666666666666,68.84892825000422L168.93333333333334,69.10332497763085L170.14,68.45473061037153L171.34666666666666,66.40014966429798L172.55333333333334,64.42242778434688L173.76,63.447675297328615L174.96666666666667,63.3263790979238L176.17333333333335,63.760178328220334L177.38,63.27548455362832L178.58666666666667,62.14037337236605L179.79333333333332,60.95272971371837L181,60.03153137996321L182.20666666666665,59.833117993841434L183.41333333333336,59.65446065739396L184.62,58.40496567142437L185.82666666666665,55.91368825856766L187.03333333333336,52.525070053804775L188.24,49.409207851623194L189.44666666666666,47.47346250903991L190.6533333333333,46.480874286790204L191.86,45.03440772044081L193.06666666666666,43.0341552712817L194.2733333333333,40.41028519761181L195.48000000000002,39.17037176175959L196.68666666666667,38.98599123842314L197.89333333333332,38.411848488046346L199.10000000000002,37.838894549745284L200.30666666666667,36.74353015753991L201.51333333333332,36.175705051241664L202.72000000000003,36.07009699203785L203.92666666666668,35.870966755715386L205.13333333333333,35.900491447721905L206.33999999999997,35.88511268042562L207.54666666666668,35.78645103474842L208.75333333333333,35.54515763104191L209.95999999999998,35.54607506436806L211.16666666666669,35.26189814603862L212.37333333333333,34.747014455666154L213.57999999999998,34.19143491113023L214.7866666666667,33.978940044946064L215.99333333333334,33.84151505048568L217.2,32.97768380033461L218.4066666666667,31.60181184446938L219.61333333333334,30.2564742880503L220.82,29.41617817169866L222.02666666666664,28.842463122363025L223.23333333333335,27.971800993361715L224.44,26.783895857510956L225.64666666666665,25.680444221125846L226.85333333333335,24.905814202519633L228.06,24.17281474800627L229.26666666666665,23.216510050648345L230.47333333333336,22.281843757883685L231.68,21.317097994350117L232.88666666666666,20.890562728279782L234.0933333333333,20.829975417937668L235.3,20.810169822982466L236.50666666666666,20.437402991659287L237.7133333333333,20.07135877556574L238.92000000000002,20.053725667984228L240.12666666666667,20.688797512385076L241.33333333333331,21.685667247450283L242.54000000000002,21.773902780339778L243.74666666666667,22.095024687148378L244.95333333333332,22.61548772308344L246.16000000000003,23.239008645244404L247.36666666666667,23.960767239890913L248.57333333333332,24.78784030980355L249.77999999999997,25.760836021126096L250.98666666666668,26.626092324269194L252.19333333333333,27.45644835048033L253.39999999999998,28.01427127098194L254.60666666666668,29.140269351507893L255.81333333333333,30.226432904198248L257.02,31.017205794862253L258.2266666666667,31.53804140103537L259.43333333333334,32.15512629256434L260.64,33.197503802431605L261.8466666666667,33.92225191212685L263.05333333333334,34.22137623341901L264.26,34.43394440869434L265.46666666666664,34.87934713095942L266.67333333333335,36.017358546818265L267.88,36.90215881840838L269.08666666666664,37.54559801813729L270.29333333333335,37.7959369934497L271.5,37.982543319387226L272.70666666666665,38.4553905892997L273.91333333333336,39.34172900294676L275.12,40.3801090010347L276.32666666666665,41.03953994063775L277.53333333333336,41.061077597049696L278.74,41.070649976372046L279.94666666666666,41.57635163736516L281.1533333333333,42.62143658843586L282.36,43.30809686385309L283.56666666666666,43.147288057928726L284.7733333333333,42.80247833679898L285.98,43.072385229771044L287.18666666666667,43.80382497847911L288.3933333333333,44.24599818595407L289.6,44.183512218589016L290.8066666666667,44.0698645421451L292.0133333333333,44.43871550665358L293.22,44.81564763565862L294.4266666666667,45.03849755481167L295.6333333333333,44.66232119815353L296.84,44.26775640085886L298.0466666666667,44.01778008948202L299.25333333333333,44.29159644003069L300.46,44.90947261198493L301.6666666666667,44.952408423307595L302.87333333333333,44.31266205165144L304.08,43.67718043283285L305.2866666666667,43.56742226314121L306.49333333333334,44.044547251976326L307.7,44.25797550750237L308.9066666666667,44.21386411926819L310.11333333333334,43.8397512449777L311.32,43.73777063192845L312.52666666666664,43.62694189034863L313.73333333333335,43.54720721240085L314.94,43.406663518357234L316.14666666666665,43.855389117830896L317.35333333333335,44.449105011114945L318.56,44.70601294331036L319.76666666666665,44.5985958320528L320.97333333333336,44.40499888099833L322.18,44.500721350915626L323.38666666666666,45.11772237104072L324.5933333333333,46.14848723232806L325.8,46.62619628278821L327.00666666666666,47.06513390511407L328.2133333333333,47.73244246638427L329.42,48.252005356421655L330.62666666666667,48.74257100476876L331.8333333333333,49.76860541722706L333.04,50.9669591106268L334.24666666666667,51.834974160466516L335.4533333333333,52.43524864464537L336.66,52.57356376357773L337.8666666666667,52.514209573912055L339.0733333333333,53.101042405037504L340.28,53.81733493631288L341.4866666666667,54.16601074981548L342.6933333333333,53.7676425769797L343.9,53.227347503703285L345.1066666666667,53.237579068087214L346.31333333333333,53.70061372659256L347.52,54.716789117920584L348.7266666666667,55.56820007379214L349.93333333333334,55.125461196015735L351.14,54.77042434032475L352.3466666666667,54.90508912453482L353.55333333333334,55.49246494496057L354.76,55.8382308644415L355.96666666666664,56.49931763402959L357.17333333333335,57.03835381308225L358.38,57.3882503865141L359.58666666666664,57.475660362773446L360.79333333333335,57.93536169465375L362,58.71775944368179L363.2066666666667,59.08125777282363L364.4133333333333,59.080816556984054L365.62,59.07062375273037L366.8266666666667,59.312832507752894L368.0333333333333,59.85217567389112L369.24,60.44396216064899L370.4466666666667,60.43815057835388L371.6533333333333,60.69622549955167L372.86,61.64572499501984L374.0666666666667,62.78818880720082L375.2733333333333,63.35779869948447L376.48,63.68301784360463L377.6866666666666,63.73245585452668L378.8933333333333,64.34485170700471L380.1,65.4108906594414L381.3066666666666,65.89493333687822L382.5133333333333,65.4999540791157L383.72,64.8226175958335L384.9266666666666,64.74069623946411L386.1333333333333,65.25442032206705L387.34000000000003,65.50304546685388L388.5466666666666,65.47012413742621L389.75333333333333,64.74841968429483L390.96000000000004,64.31870637066588L392.16666666666663,64.57742426341329L393.37333333333333,65.2822536062117L394.58000000000004,65.67536698764053L395.78666666666663,65.26558330754816L396.99333333333334,64.38403032156764L398.20000000000005,64.00736986575467L399.40666666666664,64.75481519306653L400.61333333333334,65.21982918070366L401.82000000000005,65.06179800291088L403.02666666666664,63.55980748331088L404.23333333333335,62.228192317676054L405.44000000000005,61.51861674732009L406.64666666666665,61.10941819635648L407.85333333333335,60.81425869202813L409.05999999999995,60.286166733556655L410.26666666666665,59.47270353959841L411.47333333333336,58.51445161407393L412.67999999999995,58.16135003033396L413.88666666666666,57.98920137908996L415.09333333333336,57.93890277661856L416.29999999999995,57.11406907238622L417.50666666666666,55.953660991397065L418.71333333333337,55.5554218104032L419.91999999999996,55.65088691015689L421.12666666666667,55.837271798034116L422.33333333333337,55.473985112373235L423.53999999999996,54.43324944123916L424.74666666666667,53.772364241533985L425.9533333333334,53.8890696443856L427.15999999999997,54.21403604017134L428.3666666666667,54.14410379254335L429.5733333333334,53.72802353661648L430.78,53.1704416407105L431.9866666666667,53.05774207474165L433.1933333333334,53.529792867560325L434.4,53.90572623052664L435.6066666666667,53.95580854850644L436.8133333333334,54.18785136136896L438.02,54.6813418069366L439.2266666666667,55.252235377851974L440.4333333333333,55.482212483626306L441.64,55.7426858586159L442.8466666666667,55.94534175538461L444.0533333333333,56.49404678907072L445.26,56.972272643082206L446.4666666666667,56.89832468113907L447.6733333333333,56.327481948298654L448.88,56.140597858894395L450.0866666666667,56.59796301817648L451.2933333333333,57.210100080345576L452.5,57.978018947271785L453.7066666666667,58.39901711215275L454.9133333333333,58.05233617390651L456.12,57.55629087438372L457.3266666666667,57.73872492229516L458.5333333333333,58.265368771916975L459.74,58.30655577811498L460.9466666666667,58.20878087030863L462.1533333333333,58.13352827810022L463.36,58.69100677447448L464.5666666666667,59.06851552954933L465.7733333333333,59.00698404601924L466.98,59.258101892476226L468.1866666666666,59.5610847924001L469.3933333333333,60.166676669729284L470.6,60.53003179612701L471.8066666666666,60.23153984731574L473.0133333333333,59.429958476829285L474.22,58.8298319012624L475.4266666666666,58.875336194784595L476.6333333333333,58.573214628060484L477.84000000000003,58.10386409517636L479.0466666666666,57.795778909445566L480.25333333333333,57.855942877332105L481.46000000000004,58.388690133213814L482.66666666666663,58.61232624121779L483.87333333333333,58.15384678534543L485.08000000000004,57.89861526132204L486.28666666666663,58.04017265625777L487.49333333333334,58.48929992581937L488.70000000000005,58.46077061995642L489.90666666666664,58.22515367938853L491.11333333333334,57.765921697947896L492.32000000000005,56.81163721763386L493.52666666666664,55.699355140770784L494.73333333333335,55.17437001195273L495.94000000000005,55.03154727621188L497.14666666666665,54.89952261926702L498.35333333333335,54.383227398450686L499.55999999999995,53.17620561746111L500.76666666666665,52.24668976854227L501.97333333333336,52.01346079279092L503.17999999999995,52.32049105246508L504.38666666666666,52.23321926294469L505.59333333333336,51.71072303635748L506.79999999999995,50.67872685368032L508.00666666666666,49.46355866514923L509.21333333333337,48.969544756605394L510.41999999999996,48.7393235764794L511.62666666666667,48.736956269203766L512.8333333333334,48.18589642141356L514.04,47.01427495448978L515.2466666666667,45.844478279710486L516.4533333333334,45.010144232293115L517.66,44.60555604936762L518.8666666666667,44.42572180263704L520.0733333333334,44.536361467923655L521.28,44.31135831599587L522.4866666666667,43.86515418051396L523.6933333333334,43.3755821276501L524.9,43.52218782455679L526.1066666666667,43.90484755205045L527.3133333333334,43.96889376349687L528.52,43.89803095556488L529.7266666666667,43.52110466245595L530.9333333333333,43.288330170090354L532.14,43.0725093786462L533.3466666666667,43.04237936382921L534.5533333333333,43.15671654121415L535.76,42.88429152279534L536.9666666666667,42.244043786094394L538.1733333333333,41.64470514527364L539.38,41.92409409695606L540.5866666666667,42.72083238566522L541.7933333333333,43.37766241694083L543,43.31155535758106L544.2066666666667,43.1096508551653L545.4133333333333,43.051385960466256L546.62,43.60246942782144L547.8266666666667,43.64839212990957L549.0333333333333,43.72562698118712L550.24,43.70904922892901L551.4466666666667,43.69248386107404L552.6533333333333,43.550088597811246L553.86,43.438176573853504L555.0666666666667,43.30149197995388L556.2733333333333,43.03076609081419L557.48,42.56701553148052L558.6866666666666,42.470861612180094L559.8933333333333,42.201288620049986L561.1,41.81107653669701L562.3066666666666,41.31869677436037L563.5133333333333,40.99679405095816L564.72,40.830127282916834L565.9266666666666,40.81621139286712L567.1333333333333,41.48329779203706L568.34,42.10208984486405L569.5466666666666,42.307815451510145L570.7533333333333,42.21271060217304L571.96,41.83447651722092L573.1666666666666,41.905541733849596L574.3733333333333,42.31237369642647L575.58,42.51676057497267L576.7866666666666,42.01359714265069L577.9933333333333,41.105800529582474L579.2,40.365788712441734L580.4066666666666,40.47468958755721L581.6133333333333,40.96383225000134L582.82,41.08184014766803L584.0266666666666,40.93745488746784L585.2333333333333,40.585952502522595L586.44,40.50084754133072L587.6466666666666,40.943124081515364L588.8533333333334,41.43695829370102L590.06,41.85905529078769L591.2666666666667,42.069291831789386L592.4733333333334,42.178846108865564L593.68,41.97308872978627L594.8866666666667,42.07479323216368L596.0933333333334,42.55961807096483L597.3,42.96307201102084L598.5066666666667,43.33098170110417L599.7133333333334,43.55503687340414L600.92,43.752388639809034L602.1266666666667,43.970121303426964L603.3333333333334,44.170298281122705L604.54,44.51883189954039L605.7466666666667,44.98289522466562L606.9533333333334,45.191836696490746L608.16,45.138373665261135L609.3666666666667,44.73879365567336L610.5733333333334,44.24741185409568L611.78,44.04528566042416L612.9866666666667,44.22863432832104L614.1933333333334,44.55052416960921L615.4,44.53508679208198L616.6066666666667,44.23443741446603L617.8133333333334,43.78255784257139L619.02,43.1571653415847L620.2266666666667,43.09979165809243L621.4333333333333,43.313691885571885L622.64,43.183779509734734L623.8466666666667,42.691958021607725L625.0533333333333,42.188252990156734L626.26,42.31314146691086L627.4666666666667,42.85162984561315L628.6733333333333,43.545534421934626L629.88,44.10095192677728L631.0866666666667,44.31498382013301L632.2933333333333,44.73809926549615L633.5,45.42569874483901L634.7066666666667,46.242204420319425L635.9133333333333,46.99697905443284L637.12,47.52599993092584L638.3266666666667,47.70433769777166L639.5333333333333,48.00671506345378L640.74,48.43315656218815L641.9466666666667,48.692330819678766L643.1533333333333,48.54982970657319L644.36,48.146467221610315L645.5666666666667,48.13953673520739L646.7733333333333,48.479715126465365L647.98,48.83944371152018L649.1866666666666,48.75400669297791L650.3933333333333,48.13986758542803L651.6,48.26141427954787L652.8066666666666,48.6157603160947L654.0133333333333,49.24555135889759L655.22,49.5075575895542L656.4266666666666,49.10188443152337L657.6333333333333,48.32873807905515L658.84,47.80687521378685L660.0466666666666,47.796706771463285L661.2533333333333,47.89327752436891L662.46,47.90153874608746L663.6666666666666,47.59194302026885L664.8733333333333,47.44593874005241L666.08,47.73245707927268L667.2866666666666,48.11298022137952L668.4933333333333,48.165816406843746L669.7,48.439223839196984L670.9066666666666,48.66283674710921L672.1133333333333,49.41949069305628L673.32,50.38667872702432L674.5266666666666,50.99015705515517L675.7333333333333,50.997979294183814L676.94,50.82057622130092L678.1466666666666,51.1180803654462L679.3533333333334,51.81970659308294L680.56,52.224135538415275L681.7666666666667,52.129074939014714L682.9733333333334,51.75086740402434L684.18,51.36501197448028L685.3866666666667,51.32883256605385L686.5933333333334,51.538902567322786L687.8,51.64508841858407L689.0066666666667,51.473712924765984L690.2133333333334,51.18217249567527L691.42,51.003938879970654L692.6266666666667,51.2015822383731L693.8333333333334,51.61155520451437L695.04,51.93369508022393L696.2466666666667,51.769364033275146L697.4533333333334,51.63105310610577L698.66,52.5314362253537L699.8666666666667,53.91596101340214L701.0733333333334,54.48511401565642L702.28,54.505434641659086L703.4866666666667,54.1567026866359L704.6933333333334,53.75543902257198L705.9,54.04442328178342L707.1066666666667,54.45290084188522L708.3133333333334,54.48941609564642L709.52,53.733258352678114L710.7266666666667,52.73985231822261L711.9333333333333,52.55437340192398L713.14,52.651657334444906L714.3466666666667,52.60739673193244L715.5533333333333,52.08750085352515L716.76,51.275605093081175L717.9666666666667,50.65605245053931L719.1733333333333,50.688266852889086L720.38,51.078407043399025L721.5866666666667,51.21647891218005L722.7933333333333,50.84238545729896L724,50.124630723745156L725.2066666666667,49.442344087787994L726.4133333333334,49.340864992288694L727.6199999999999,49.382608497014346L728.8266666666666,49.52025449289953L730.0333333333333,49.51675791965563L731.24,49.03455789180945L732.4466666666667,48.15588611267692L733.6533333333334,47.28434636209758L734.8599999999999,46.79120673599999L736.0666666666666,46.836350285191436L737.2733333333333,47.38991037038071L738.48,47.649199683719445L739.6866666666667,47.97363225502274L740.8933333333334,48.34046013935463L742.0999999999999,48.447956976903946L743.3066666666666,48.783985881033004L744.5133333333333,49.10147161853556L745.72,49.33833493281192L746.9266666666667,49.11952859075314L748.1333333333334,48.051246981743226L749.3399999999999,46.82423561216251L750.5466666666666,46.31980643673893L751.7533333333333,46.44095106885961L752.96,46.36463501433214L754.1666666666667,45.89835260249064L755.3733333333332,45.08222198123598L756.5799999999999,44.476634357183336L757.7866666666666,44.00403210422671L758.9933333333333,43.64762401467776L760.2,43.082823761348465L761.4066666666668,42.383060135001074L762.6133333333332,42.26778548701755L763.8199999999999,42.6754134238771L765.0266666666666,42.837215373467934L766.2333333333333,42.76543755992257L767.44,42.20255648889547L768.6466666666668,41.63635955820433L769.8533333333332,41.190701079514675L771.06,41.10871176685071L772.2666666666667,41.04628074625245L773.4733333333334,40.8333444340934L774.6800000000001,40.15263382512342L775.8866666666668,39.482645589166324L777.0933333333332,38.968093610817135L778.3,38.57658761128249L779.5066666666667,38.32844657856171L780.7133333333334,38.09012757362967L781.9200000000001,37.69881173309539L783.1266666666668,36.72239913057492L784.3333333333333,36.21601702333765L785.54,36.0015812880203L786.7466666666667,35.88946663808001L787.9533333333334,35.81557913161564L789.1600000000001,35.377228714612066L790.3666666666666,34.54803220973544L791.5733333333333,33.93464591178446L792.78,33.927497607363705L793.9866666666667,33.976199212986224L795.1933333333334,33.60478354673501L796.4000000000001,33.097206768659156L797.6066666666666,32.531098831238644L798.8133333333333,32.08876225048655L800.02,31.829979018535408L801.2266666666667,31.615140630864353L802.4333333333334,31.413390860486935L803.6400000000001,31.363512628773133L804.8466666666666,31.020708338157473L806.0533333333333,30.507092021438197L807.26,30.367781214706522L808.4666666666667,30.923227723117176L809.6733333333334,31.680297765538622L810.8800000000001,31.823296690391448L812.0866666666666,31.395900378903356L813.2933333333333,31.29508414231039L814.5,31.029332476304425L815.7066666666667,30.522194579076324L816.9133333333334,30.43645205406413L818.1199999999999,30.76578701918174L819.3266666666666,30.77794136742758L820.5333333333333,30.199191572200228L821.74,29.49105822071393L822.9466666666667,29.039703343822033L824.1533333333334,29.07183969452422L825.3599999999999,29.19873693248299L826.5666666666666,29.350990515008615L827.7733333333333,29.187399510449005L828.98,28.751526941113216L830.1866666666667,28.27150404246181L831.3933333333334,28.102668056545873L832.5999999999999,28.339084431596348L833.8066666666666,28.669690245701243L835.0133333333333,29.387868117064126L836.22,29.494294306282104L837.4266666666667,29.293278790987685L838.6333333333334,29.50376873191109L839.8399999999999,30.057174192089946L841.0466666666666,30.79978217257204L842.2533333333333,31.22875931333647L843.46,31.217965010720242L844.6666666666667,31.1783948466505L845.8733333333332,31.58838296033358L847.0799999999999,32.11910320686838L848.2866666666666,32.79845968541391L849.4933333333333,33.02728651449136L850.7,33.18774811968779L851.9066666666668,33.18139412078051L853.1133333333332,33.57486813653629L854.3199999999999,34.15533008536449L855.5266666666666,34.222148378311786L856.7333333333333,34.053668071779896L857.94,33.459240370960934L859.1466666666668,33.350908188044635L860.3533333333332,33.72793291418209L861.56,34.5716086292769L862.7666666666667,35.28311683865882L863.9733333333334,36.01129593386294L865.1800000000001,36.28600398046016L866.3866666666668,36.526944048168765L867.5933333333332,37.00260733889405L868.8,38.178672101603446L870.0066666666667,39.54981881767894L871.2133333333334,40.36919748907424L872.4200000000001,40.506559934061556L873.6266666666668,40.25125943445388L874.8333333333333,39.94245758438958L876.04,40.197525402976034L877.2466666666667,40.83066817802745L878.4533333333334,41.905845925758136L879.6600000000001,42.630418028671734L880.8666666666666,42.44271594549464L882.0733333333333,41.68113362838889L883.28,41.15795621685047L884.4866666666667,41.171839661777376L885.6933333333334,41.65696245438309L886.9000000000001,42.169844845246764L888.1066666666666,42.45771813026475L889.3133333333333,42.48805798397594L890.52,42.41355900892752L891.7266666666667,42.26953802012349L892.9333333333334,42.56059654871565L894.1400000000001,42.811387761896L895.3466666666666,43.02143093830428L896.5533333333333,43.150766202399375L897.76,43.19858313660636L898.9666666666667,42.740552496730885L900.1733333333334,42.445877963305215L901.3800000000001,42.414766718799875L902.5866666666666,42.384496790084306L903.7933333333333,42.209079031567306L905,42.0508377881823L906.2066666666667,42.25054849522626L907.4133333333334,42.64852443755233L908.6199999999999,43.129015724022885L909.8266666666666,43.56627247343049L911.0333333333333,44.100157324674676L912.24,44.89062138829642L913.4466666666667,45.758917739594075L914.6533333333334,46.58782929272235L915.8599999999999,47.16795103712433L917.0666666666666,47.678264350565605L918.2733333333333,48.10032073365547L919.48,48.92966889293392L920.6866666666667,50.132497945950995L921.8933333333334,50.78800821276098L923.0999999999999,50.97932095077222L924.3066666666666,50.87891859477885L925.5133333333333,50.92461750145804L926.72,51.647328928165216L927.9266666666667,52.31604278876458L929.1333333333334,52.5715776295743L930.3399999999999,52.03291580961014L931.5466666666666,51.62363454685666L932.7533333333333,51.884642739104365L933.96,52.55113396260285L935.1666666666667,53.00401928497685L936.3733333333332,53.163150585351744L937.5799999999999,53.348022894601634L938.7866666666666,53.637774194476314L939.9933333333333,54.55324807260098L941.2,55.423703574825616L942.4066666666668,55.59171211831051L943.6133333333332,55.242240241026394L944.8199999999999,54.92657593810619L946.0266666666666,55.045111098703806L947.2333333333333,55.61288107021226L948.44,56.43364513701694L949.6466666666668,57.45915539299983L950.8533333333332,58.15723635911456L952.06,58.52640370875844L953.2666666666667,58.44001123246981L954.4733333333334,58.19946061389663L955.6800000000001,58.24715473380258L956.8866666666668,58.96444457194587L958.0933333333332,59.77559895495659L959.3,60.619865700863095L960.5066666666667,61.07012580188227L961.7133333333334,61.12509186369362L962.9200000000001,61.0719873300052L964.1266666666668,61.00368081276757L965.3333333333333,61.20440262349985L966.54,61.45067303598914L967.7466666666667,61.773912983282635L968.9533333333334,61.81554475960864L970.1600000000001,61.62198361207946L971.3666666666666,61.459515908061874L972.5733333333333,61.5242755524514L973.78,61.9703866852098L974.9866666666667,62.502924593690004L976.1933333333334,62.835684771778L977.4000000000001,63.2141279366806L978.6066666666666,63.45443126862238L979.8133333333333,63.678078722062494L981.02,64.0274980492013L982.2266666666667,64.45564900253466L983.4333333333334,65.11979492065942L984.6400000000001,65.61098535880933L985.8466666666666,65.76666571892424L987.0533333333333,65.40313735884335L988.26,64.91353039746987L989.4666666666667,64.71246910792091L990.6733333333334,64.7309070932413L991.8800000000001,64.73866052618348L993.0866666666666,64.8691090557238L994.2933333333333,64.81161277264836L995.5,64.70099976305276L996.7066666666667,64.56840393602045L997.9133333333334,64.482227723301L999.1199999999999,64.42721263741949L1000.3266666666666,64.43060652664062L1001.5333333333333,64.79021697627331L1002.74,64.78086517250273L1003.9466666666667,64.42094847611568L1005.1533333333334,63.67856535888367L1006.3599999999999,62.61399950186945L1007.5666666666666,61.76333849083608L1008.7733333333333,61.286076322990866L1009.98,60.90701613500888L1011.1866666666667,59.99417515799508L1012.3933333333334,58.61872244653707L1013.5999999999999,57.677582424637436L1014.8066666666666,57.225457448272685L1016.0133333333333,57.21909454755325L1017.22,57.18876108484702L1018.4266666666667,56.82953368237332L1019.6333333333334,56.17033895401418L1020.8399999999999,55.533116395923656L1022.0466666666666,55.56134756544429L1023.2533333333333,55.64782364668166L1024.46,55.779174749698925L1025.6666666666667,55.735457443709386L1026.8733333333332,55.75890829014063L1028.08,56.041159385074465L1029.2866666666666,56.349584801084426L1030.4933333333333,56.64719908746559L1031.7,56.91185183006919L1032.9066666666668,56.997796737856426L1034.1133333333332,57.13544785330393L1035.32,57.191563656572235L1036.5266666666666,57.033208647483185L1037.7333333333333,57.189829437854655L1038.94,57.67777896892761L1040.1466666666668,58.01030184284621L1041.3533333333332,58.01444086162274L1042.56,57.821590423588546L1043.7666666666667,57.68602401126796L1044.9733333333334,58.015248868250424L1046.18,58.31541474446483L1047.3866666666668,58.594835873968705L1048.5933333333332,58.97110069024566L1049.8,59.49813374958692L1051.0066666666667,59.9269534782415L1052.2133333333334,60.03524248163431L1053.42,60.70280507909481L1054.6266666666668,61.563588571970904L1055.8333333333333,62.37140476252138L1057.04,63.20043115995175L1058.2466666666667,63.883252772959914L1059.4533333333334,64.5346514618397L1060.66,65.0744935089676L1061.8666666666666,65.4877922662693L1063.0733333333333,65.89470242920007L1064.28,66.09578601343372L1065.4866666666667,66.24957060274893L1066.6933333333334,66.23590103606296L1067.9,65.91645619545146L1069.1066666666666,65.50955843600975L1070.3133333333333,65.44089748014468L1071.52,65.28052315335053L1072.7266666666667,65.14789561652393L1073.9333333333334,65.0616595216533L1075.14,65.24500486930577L1076.3466666666666,65.95429191507205L1077.5533333333333,66.76395398090658L1078.76,67.36231025718244L1079.9666666666667,67.57236204542292L1081.1733333333334,67.48316226329224L1082.38,67.4097862445137L1083.5866666666666,67.60746635432164L1084.7933333333333,67.8154679492313L1086,67.71510997635227L1087.2066666666667,67.59859524609993L1088.4133333333334,67.2075560888733L1089.62,66.91001393151251L1090.8266666666666,66.83081024087106L1092.0333333333333,66.94552829328619L1093.24,66.8488094996853L1094.4466666666667,66.58882565772466L1095.6533333333334,66.40301027202345L1096.86,66.49351446267764L1098.0666666666666,67.32257451404472L1099.2733333333333,67.816701186615L1100.48,68.04033045238229L1101.6866666666667,68.17119865359268L1102.8933333333334,68.16032604529396L1104.1,68.34582697136466L1105.3066666666666,68.58296485305695L1106.5133333333333,68.77488795582259L1107.72,68.58876764790676L1108.9266666666667,68.06653075878226L1110.1333333333334,67.15390878813287L1111.34,66.67914148724363L1112.5466666666666,66.70883356555973L1113.7533333333333,66.74650496204966L1114.96,66.66647683791848L1116.1666666666667,66.48604477716482L1117.3733333333332,66.34134174368772L1118.58,66.37704789140105L1119.7866666666666,66.35871842475443L1120.9933333333333,66.62582940659128L1122.2,67.10064845454343L1123.4066666666668,67.53454271711446L1124.6133333333332,67.60616414185704L1125.82,67.57629025892757L1127.0266666666666,67.62459395044488L1128.2333333333333,67.86214744765527L1129.44,67.92521409170656L1130.6466666666668,68.08558204593739L1131.8533333333332,67.78116618885106L1133.06,66.97272111514941L1134.2666666666667,65.91158059777838L1135.4733333333334,65.21197762433091L1136.68,65.22263669413726L1137.8866666666668,65.63959684039595L1139.0933333333332,65.8798448534011L1140.3,65.96438435642939L1141.5066666666667,65.89923966322134L1142.7133333333334,66.12502407612122L1143.92,66.42273499066125L1145.1266666666668,67.1675069377854L1146.3333333333333,67.86269454363469L1147.54,68.38247892544403L1148.7466666666667,68.48904677420468L1149.9533333333334,68.57284363296117L1151.16,68.51718142794007L1152.3666666666666,68.81819271327743L1153.5733333333333,69.06502750575457L1154.78,69.13035356871602L1155.9866666666667,68.94108091841791L1157.1933333333334,68.58250224891418L1158.4,68.18525863091196L1159.6066666666666,67.9469124601107L1160.8133333333333,67.89660764490485L1162.02,67.8995591945562L1163.2266666666667,67.95758921459728L1164.4333333333334,67.80369209382192L1165.64,67.65174451658164L1166.8466666666666,67.5043168799873L1168.0533333333333,67.24369195648073L1169.26,67.51773785625166L1170.4666666666667,67.99671785496434L1171.6733333333334,68.44299590646708L1172.88,68.51542888806858L1174.0866666666666,67.68480953627973L1175.2933333333333,66.76263578783146L1176.5,66.41790282106273L1177.7066666666667,66.8202709529262L1178.9133333333334,67.34315070839394L1180.12,67.60388797339984L1181.3266666666666,67.13126627097841L1182.5333333333333,66.58278116442578L1183.74,66.46230223906917L1184.9466666666667,66.76413579120504L1186.1533333333334,67.19686971831165L1187.36,67.47309772210035L1188.5666666666666,67.34082885677363L1189.7733333333333,67.13898042605267L1190.98,67.17676141989527L1192.1866666666667,67.31202990925053L1193.3933333333334,67.73421832771375L1194.6,67.71273207521659L1195.8066666666666,67.64684973544342L1197.0133333333333,67.5609484598046L1198.22,67.65510116997136L1199.4266666666667,68.21155102947104L1200.6333333333334,68.40969640064581L1201.84,68.5053772593258L1203.0466666666666,68.54292962503371L1204.2533333333333,68.42638628540878L1205.46,68.35976963988364L1206.6666666666667,68.45225569511858L1207.8733333333332,68.6468220873093L1209.08,68.96220513017376L1210.2866666666666,68.95941046484228L1211.4933333333333,68.424640993469L1212.7,67.96474540786974L1213.9066666666668,67.41727725491056L1215.1133333333332,67.12524016015979L1216.32,67.12549560310926L1217.5266666666666,67.13888630187918L1218.7333333333333,66.91845243306612L1219.94,66.59416762072837L1221.1466666666668,66.27380026355053L1222.3533333333332,65.74717124089405L1223.56,65.27888163525036L1224.7666666666667,65.10384819213904L1225.9733333333334,64.89950652249722L1227.18,64.54512387438727L1228.3866666666668,63.91862022289657L1229.5933333333332,63.3142497439271L1230.8,62.94831809829574L1232.0066666666667,63.09961151629148L1233.2133333333334,63.428783929913756L1234.42,63.351447218237446L1235.6266666666668,62.79184952483192L1236.8333333333333,62.489225347563234L1238.04,62.834083940601815L1239.2466666666667,63.792591125649714L1240.4533333333334,64.73850698577857L1241.66,65.38552195613079L1242.8666666666666,65.77042158009218L1244.0733333333333,65.95172098071886L1245.28,66.37832158192002L1246.4866666666667,67.09783723529038L1247.6933333333334,67.54278406031266L1248.9,67.66074932152621L1250.1066666666666,67.42032623392916L1251.3133333333333,67.13699762232103L1252.52,67.34443072095635L1253.7266666666667,67.73049330698707L1254.9333333333334,67.9025215538305L1256.14,67.49585219378686L1257.3466666666666,66.87768881413581L1258.5533333333333,66.70547485016984L1259.76,66.62531197954044L1260.9666666666667,66.84208548598772L1262.1733333333334,66.9225092161059L1263.38,67.19919088597709L1264.5866666666666,67.74928972627447L1265.7933333333333,68.46339801255294L1267,68.68660106027004L1268.2066666666667,68.98276315570031L1269.4133333333334,69.56440640083312L1270.62,70.34712256003775L1271.8266666666666,70.93593000883565L1273.0333333333333,71.44483602841427L1274.24,71.93227605646139L1275.4466666666667,72.35719611583957L1276.6533333333334,72.58236392721632L1277.86,72.88301423909252L1279.0666666666666,73.31172886379298L1280.2733333333333,74.04240014973826L1281.48,74.7655711559053L1282.6866666666667,74.9113961667557L1283.8933333333334,74.94263208301567L1285.1,75.03087015602198L1286.3066666666666,74.96794460480064L1287.5133333333333,75.24805109116765L1288.72,75.45913664023813L1289.9266666666667,75.23814192833044L1291.1333333333334,75.04593579641096L1292.34,74.87435302700911L1293.5466666666666,74.92702491566783L1294.7533333333333,75.249974143688L1295.96,75.47683726300023L1297.1666666666667,75.27192780973786L1298.3733333333332,74.61593032188038L1299.58,74.03030733811579L1300.7866666666666,73.84779253115703L1301.9933333333333,74.31439797640667L1303.2,74.75329215210614L1304.4066666666668,74.88580686596374L1305.6133333333332,74.86766919776565L1306.82,74.7574649930718L1308.0266666666666,74.66482674798078L1309.2333333333333,74.78308724973844L1310.44,75.19339576838043L1311.6466666666668,75.49919018434069L1312.8533333333332,75.44925493660426L1314.06,75.12958194412491L1315.2666666666667,74.80532210608763L1316.4733333333334,74.59920387752746L1317.68,74.69239804645389L1318.8866666666668,75.24165406470955L1320.0933333333332,75.84600697923794L1321.3,76.20861872795513L1322.5066666666667,76.2672548686354L1323.7133333333334,76.00778109996838L1324.92,75.93152143676868L1326.1266666666668,75.83943462334861L1327.3333333333333,76.13513793489639" style="fill: none;" fill="none"></path></g></g></g></g><g opacity="0.2"><g><g><g><path stroke="rgb(255, 112, 67)" stroke-width="2px" d="M160.48666666666668,377.0744483037429L161.69333333333333,366.4172933318399L162.9,356.4015818725934L164.10666666666665,347.3088136586277L165.31333333333333,337.9719292033803L166.52,325.7791911471974L167.72666666666666,314.40602996132594L168.93333333333334,299.52321263876837L170.14,284.1023181785237L171.34666666666666,270.53558360446596L172.55333333333334,260.6854421984067L173.76,251.62995533509695L174.96666666666667,244.77621311491194L176.17333333333335,239.30484294891366L177.38,233.08845861391595L178.58666666666667,227.02937093648046L179.79333333333332,221.90568766810685L181,217.1378625522961L182.20666666666665,211.79059332067325L183.41333333333336,209.01767795736149L184.62,206.60072288729936L185.82666666666665,204.12575190717533L187.03333333333336,201.36110993948856L188.24,199.35792679136458L189.44666666666666,197.52858709205287L190.6533333333333,196.16286396980294L191.86,194.93778857317844L193.06666666666666,192.88496505130428L194.2733333333333,190.93979781324222L195.48000000000002,189.26775477149272L196.68666666666667,188.423459854993L197.89333333333332,187.31421199711895L199.10000000000002,186.5402920137753L200.30666666666667,186.02294943549424L201.51333333333332,185.68363807418137L202.72000000000003,185.65881788730624L203.92666666666668,186.88379114324403L205.13333333333333,187.1818376671185L206.33999999999997,186.85897095636895L207.54666666666668,185.79946561293175L208.75333333333333,185.20347470586958L209.95999999999998,185.85737938230696L211.16666666666669,186.4450968937441L212.37333333333333,188.25788980180573L213.57999999999998,189.797456372868L214.7866666666667,190.69557943127379L215.99333333333334,189.63198846036747L217.2,189.08563792705544L218.4066666666667,189.0690911358054L219.61333333333334,189.39185570586818L220.82,189.82227655974307L222.02666666666664,190.45136104930538L223.23333333333335,191.27083577893004L224.44,190.890157439492L225.64666666666665,190.87350850755527L226.85333333333335,190.81559473818007L228.06,191.20464861392983L229.26666666666665,191.56060890717947L230.47333333333336,191.66816305030483L231.68,191.82545970786708L232.88666666666666,191.9744829698043L234.0933333333333,191.88337347724223L235.3,192.12340409105482L236.50666666666666,192.39663042805418L237.7133333333333,192.8601448644292L238.92000000000002,193.29883911392912L240.12666666666667,194.07694686542865L241.33333333333331,194.10176705230373" style="fill: none;" fill="none"></path></g><g><path stroke="rgb(0, 119, 187)" stroke-width="2px" d="M132.73333333333332,407.33679310842007L133.94,363.59054982662207L135.14666666666668,279.8477500135249L136.35333333333332,228.80079686641702L137.56,214.47250133210972L138.76666666666668,211.27743851054805L139.97333333333333,203.5545811869882L141.18,199.9373709071767L142.38666666666666,201.14589951255113L143.59333333333333,200.02010486342698L144.8,194.19277440417903L146.00666666666666,194.267337105491L147.21333333333334,194.49909432367852L148.42,185.9981292486191L149.62666666666667,182.43883273818284L150.83333333333334,182.65404316512027L152.04,179.2768634991213L153.24666666666667,172.3238405314359L154.45333333333335,168.56588038531223L155.66,166.2316592715004L156.86666666666667,162.65581596981403L158.07333333333332,158.8729334961285L159.28,153.40156333013022L160.48666666666668,145.48841790719473L161.69333333333333,135.11674615469852L162.9,123.76421738754627L164.10666666666665,110.92176242308189L165.31333333333333,97.88483159108601L166.52,86.5364905920896L167.72666666666666,79.40135077996693L168.93333333333334,76.75253635103057L170.14,73.68984785946937L171.34666666666666,70.7430890473453L172.55333333333334,68.63235175609593L173.76,68.06945443153386L174.96666666666667,65.97526393153454L176.17333333333335,62.78020110997291L177.38,58.12003227797426L178.58666666666667,55.91818549416287L179.79333333333332,54.312431758100374L181,49.96675410053952L182.20666666666665,46.24188753691591L183.41333333333336,44.56984449516646L184.62,45.397592620416184L185.82666666666665,45.09137484160341L187.03333333333336,42.748778191479815L188.24,41.30032111297957L189.44666666666666,39.05710735104306L190.6533333333333,38.196265643293245L191.86,38.61013970591808L193.06666666666666,39.18948168104349L194.2733333333333,38.38665588335564L195.48000000000002,36.582136370918995L196.68666666666667,35.73784145441927L197.89333333333332,36.010965650731904L199.10000000000002,36.433113108981765L200.30666666666667,38.30381978641859L201.51333333333332,37.58372794498103L202.72000000000003,36.375199339606596L203.92666666666668,35.365334369919545L205.13333333333333,36.855260567231674L206.33999999999997,39.42961443554274L207.54666666666668,41.134751059792286L208.75333333333333,41.03536817160524L209.95999999999998,40.381463495167864L211.16666666666669,40.646314295855476L212.37333333333333,41.366508277979804L213.57999999999998,43.21239476854156L214.7866666666667,44.38772765072913L215.99333333333334,44.87616441466594L217.2,44.636031660166694L218.4066666666667,44.420821233229226L219.61333333333334,44.90098460154106L220.82,45.819740078666044L222.02666666666664,45.82801347429107L223.23333333333335,46.05977069247859L224.44,46.92888579585338L225.64666666666665,47.317939671603156L226.85333333333335,47.50832991166555L228.06,47.971844348040534L229.26666666666665,48.42718752947725L230.47333333333336,47.872563600540204L231.68,47.38422897729011L232.88666666666666,46.953808123415214L234.0933333333333,46.96208151904024L235.3,46.970354914665265L236.50666666666666,47.64907977797771L237.7133333333333,48.625851165164626L238.92000000000002,46.92888579585338L240.12666666666667,44.797516085884816L241.33333333333331,44.842968691479136" style="fill: none;" fill="none"></path></g><g><path stroke="rgb(204, 51, 17)" stroke-width="2px" d="M133.94,397.35417523167354L135.14666666666668,349.1877937316895L136.35333333333332,276.91753799265086L137.56,237.06162918697711L138.76666666666668,221.09448633410722L139.97333333333333,198.86131877248945L141.18,180.22054130380812L142.38666666666666,180.15425199812117L143.59333333333333,176.51222153143456L144.8,173.1681354479357L146.00666666666666,174.52558517456058L147.21333333333334,173.8303135199981L148.42,162.63916703787723L149.62666666666667,152.11857416413054L150.83333333333334,147.4335851452568L152.04,141.58970789475882L153.24666666666667,129.0162914991379L154.45333333333335,115.92134475708012L155.66,105.78153236345817L156.86666666666667,97.4792309240862L158.07333333333332,88.97826584902681L159.28,81.37961160052912L160.48666666666668,75.17977405678145L161.69333333333333,73.66502767259429L162.9,71.64539987390695L164.10666666666665,71.99298463084484L165.31333333333333,68.34268076853324L166.52,66.08292021534665L167.72666666666666,67.20861272378407L168.93333333333334,69.48492006822072L170.14,67.48183906078343L171.34666666666666,63.318278247659904L172.55333333333334,61.4558449658481L173.76,61.98554656722332L174.96666666666667,63.144434798847605L176.17333333333335,64.4108771735972L177.38,62.54844389178539L178.58666666666667,60.437706600536025L179.79333333333332,59.17126422578643L181,58.649733879349476L182.20666666666665,59.535497914661086L183.41333333333336,59.3864746527239L184.62,56.53072319247509L185.82666666666665,52.17677213928921L187.03333333333336,47.44214274666531L188.24,44.73541454835374L189.44666666666666,44.56984449516646L190.6533333333333,44.99199195341637L191.86,42.86470787091691L193.06666666666666,40.03377659754326L194.2733333333333,36.474480087106926L195.48000000000002,37.310501607981635L196.68666666666667,38.70942045341841L197.89333333333332,37.550634362480885L199.10000000000002,36.979463642293794L200.30666666666667,35.10048356923194L201.51333333333332,35.323967391794426L202.72000000000003,35.911684903231574L203.92666666666668,35.57227140123199L205.13333333333333,35.94477848573167L206.33999999999997,35.86204452948143L207.54666666666668,35.638458566232224L208.75333333333333,35.18321752548222L209.95999999999998,35.54745121435692L211.16666666666669,34.83563276854433L212.37333333333333,33.974688920107795L213.57999999999998,33.358065594326426L214.7866666666667,33.66019774567L215.99333333333334,33.63537755879493L217.2,31.681936925107816L218.4066666666667,29.538003910671637L219.61333333333334,28.238467953421907L220.82,28.155733997171623L222.02666666666664,27.98189054835932L223.23333333333335,26.665807799859543L224.44,25.00203815373511L225.64666666666665,24.0252667665482L226.85333333333335,23.74386917461054L228.06,23.073315566236356L229.26666666666665,21.782053004611647L230.47333333333336,20.87984431873671L231.68,19.8699793490497L232.88666666666666,20.250759829174445L234.0933333333333,20.739094452424546L235.3,20.780461430549664L236.50666666666666,19.878252744674725L237.7133333333333,19.522292451425095L238.92000000000002,20.027276006611956L240.12666666666667,21.6414052789862L241.33333333333331,23.18097185004847L242.54000000000002,21.90625607967381L243.74666666666667,22.576707547361234L244.95333333333332,23.396182276985893L246.16000000000003,24.17429002848543L247.36666666666667,25.043405131860276L248.57333333333332,26.028449914672212L249.77999999999997,27.22032958810983L250.98666666666668,27.923976778984112L252.19333333333333,28.70198238979689L253.39999999999998,28.851005651734123L254.60666666666668,30.829266472296304L255.81333333333333,31.8556782332334L257.02,32.20336513085801L258.2266666666667,32.31929481029515L259.43333333333334,33.08075362985788L260.64,34.76107006723235L261.8466666666667,35.009374076669914L263.05333333333334,34.67006271535705L264.26,34.75279667160733L265.46666666666664,35.54745121435692L266.67333333333335,37.72437567060648L267.88,38.22935922579338L269.08666666666664,38.510756817731036L270.29333333333335,38.17144545641817L271.5,38.262452808293475L272.70666666666665,39.16466149416841L273.91333333333336,40.67123662341731L275.12,41.9376789981669L276.32666666666665,42.02868635004221L277.53333333333336,41.09338408166717L278.74,41.085008545355386L279.94666666666666,42.33490412885497L281.1533333333333,44.18906401504176L282.36,44.33808727697899L283.56666666666666,42.90607484904207L284.7733333333333,42.285263755104786L285.98,43.47724556922917L287.18666666666667,44.90098460154106L288.3933333333333,44.90925799716609L289.6,44.08978326754143L290.8066666666667,43.899393027479036L292.0133333333333,44.99199195341637L293.22,45.38104582916609L294.4266666666667,45.372772433541066L295.6333333333333,44.09805666316645L296.84,43.67590920491654L298.0466666666667,43.64281562241645L299.25333333333333,44.702320965853644L300.46,45.836286869916094L301.6666666666667,45.016812140291435L302.87333333333333,43.353042494167006L304.08,42.72395800460475L305.2866666666667,43.402785008603914L306.49333333333334,44.76023473522885L307.7,44.57811789079148L308.9066666666667,44.1476970369166L310.11333333333334,43.278581933541794L311.32,43.584799712354524L312.52666666666664,43.46069877797912L313.73333333333335,43.42760519547898L314.94,43.195847977291514L316.14666666666665,44.52847751704134L317.35333333333335,45.33967885104097L318.56,45.09137484160341L319.76666666666665,44.43747016516603L320.97333333333336,44.114603454416496L322.18,44.64430505579172L323.38666666666666,46.043223901228494L324.5933333333333,47.694634524258746L325.8,47.342759858478225L327.00666666666666,47.72354033860297L328.2133333333333,48.733405308290024L329.42,49.03134969147773L330.62666666666667,49.47841947728942L331.8333333333333,51.307657035914374L333.04,52.76448965072636L334.24666666666667,53.136996735226084L335.4533333333333,53.33566037091346L336.66,52.78103644197641L337.8666666666667,52.425178289413495L339.0733333333333,53.98129165172581L340.28,54.891773733225776L341.4866666666667,54.68902447006924L342.6933333333333,53.17009031772618L343.9,52.41690489378847L345.1066666666667,53.25292641466318L346.31333333333333,54.395165714350654L347.52,56.24105220491241L348.7266666666667,56.8453165075996L349.93333333333334,54.46135287935088L351.14,54.2378690567884L352.3466666666667,55.10708630084996L353.55333333333334,56.373528675599594L354.76,56.35687974366279L355.96666666666664,57.49094778841196L357.17333333333335,57.84690808166163L358.38,57.91309524666182L359.58666666666664,57.606775327162374L360.79333333333335,58.62491369247441L362,59.891356067224045L363.2066666666667,59.62650526653639L364.4133333333333,59.08015473322441L365.62,59.05533454634929L366.8266666666667,59.67614564028658L368.0333333333333,60.66119042309852L369.24,61.33164189078594L370.4466666666667,60.429433204911L371.6533333333333,61.08333788134838L372.86,63.06997423822234L374.0666666666667,64.5018845254725L375.2733333333333,64.21221353790982L376.48,64.17084655978466L377.6866666666666,63.80661287091L378.8933333333333,65.26344548572199L380.1,67.00994908809666L381.3066666666666,66.62099735303364L382.5133333333333,64.90748519247232L383.72,63.80661287091L384.9266666666666,64.61781420490964L386.1333333333333,66.02500644597144L387.34000000000003,65.87598318403421L388.5466666666666,65.42074214328424L389.75333333333333,63.665863004597796L390.96000000000004,63.67413640022282L392.16666666666663,64.96550110253425L393.37333333333333,66.33949762040923L394.58000000000004,66.26503705978398L395.78666666666663,64.65090778740974L396.99333333333334,63.06170084259732L398.20000000000005,63.44237918203531L399.40666666666664,65.87598318403421L400.61333333333334,65.91735016215937L401.82000000000005,64.82475123622204L403.02666666666664,61.30682170391087L404.23333333333335,60.230769569223625L405.44000000000005,60.45425339178612L406.64666666666665,60.49562036991124L407.85333333333335,60.37151943553584L409.05999999999995,59.49402879584925L410.26666666666665,58.25250874866145L411.47333333333336,57.077073725787116L412.67999999999995,57.631697654724164L413.88666666666666,57.730978402224494L415.09333333333336,57.863454872911674L416.29999999999995,55.87681851603771L417.50666666666666,54.21304886991332L418.71333333333337,54.95806303891273L419.91999999999996,55.79408455978743L421.12666666666667,56.11684912985025L422.33333333333337,54.929055083881785L423.53999999999996,52.87214593453847L424.74666666666667,52.78103644197641L425.9533333333334,54.06412774866281L427.15999999999997,54.70148563385014L428.3666666666667,54.03920542110102L429.5733333333334,53.10390315272594L430.78,52.33406879685147L431.9866666666667,52.88869272578852L433.1933333333334,54.2378690567884L434.4,54.46962627497591L435.6066666666667,54.030932025476L436.8133333333334,54.53591558066286L438.02,55.42157747528775L439.2266666666667,56.10857573422523L440.4333333333333,55.827178142287565L441.64,56.133395921100295L442.8466666666667,56.24932560053743L444.0533333333333,57.31710433959965L445.26,57.689611424099375L446.4666666666667,56.787402738224436L447.6733333333333,55.47121784903789L448.88,55.860271724787665L450.0866666666667,57.28401075709956L451.2933333333333,58.128305673599286L452.5,59.12989724766127L453.7066666666667,59.030514359474225L454.9133333333333,57.53231476653712L456.12,56.812222925099505L457.3266666666667,58.01237599416219L458.5333333333333,59.05533454634929L459.74,58.36833628741182L460.9466666666667,58.06211850859905L462.1533333333333,58.020649389787216L463.36,59.52722451903606L464.5666666666667,59.63477866216146L465.7733333333333,58.914686820723844L466.98,59.63477866216146L468.1866666666666,60.015559142286165L469.3933333333333,61.07506448572336L470.6,61.07506448572336L471.8066666666666,59.78380192409865L473.0133333333333,58.227586421099616L474.22,57.92964203791191L475.4266666666666,58.94359263506807L476.6333333333333,58.12003227797426L477.84000000000003,57.39983829584993L479.0466666666666,57.3336511308497L480.25333333333333,57.946188829161954L481.46000000000004,59.18781101703648L482.66666666666663,58.947780403223945L483.87333333333333,57.46612760153688L485.08000000000004,57.51576797528707L486.28666666666663,58.25250874866145L487.49333333333334,59.162990830161405L488.70000000000005,58.41797666116201L489.90666666666664,57.8717282685367L491.11333333333334,57.077073725787116L492.32000000000005,55.38021049716259L493.52666666666664,54.030932025476L494.73333333333335,54.38689231872563L495.94000000000005,54.817313172600514L497.14666666666665,54.70148563385014L498.35333333333335,53.60878456722609L499.55999999999995,51.3656729459763L500.76666666666665,50.852415995164414L501.97333333333336,51.66361732916405L503.17999999999995,52.78103644197641L504.38666666666666,52.10231157866396L505.59333333333336,50.92697869647639L506.79999999999995,49.130732579664816L508.00666666666666,47.64080638235269L509.21333333333337,48.22852389378988L510.41999999999996,48.393991806290394L511.62666666666667,48.733405308290024L512.8333333333334,47.35930664972832L514.04,45.25684275410397L515.2466666666667,44.08978326754143L516.4533333333334,43.75864316116682L517.66,43.99867377497936L518.8666666666667,44.155970432541615L520.0733333333334,44.702320965853644L521.28,43.97385358810429L522.4866666666667,43.195847977291514L523.6933333333334,42.64122404835446L524.9,43.74209636991678L526.1066666666667,44.47883714329115L527.3133333333334,44.06496308066631L528.52,43.79173674366696L529.7266666666667,42.955715222792215L530.9333333333333,42.939168431542164L532.14,42.748778191479815L533.3466666666667,42.9971843416041L534.5533333333333,43.32822230729194L535.76,42.475653995167185L536.9666666666667,41.2836721810428L538.1733333333333,40.74569718404252L539.38,42.34317752448L540.5866666666667,43.91593981872908L541.7933333333333,44.36290746385406L543,43.21239476854156L544.2066666666667,42.80679410154174L545.4133333333333,42.96398861841728L546.62,44.429094628854294L547.8266666666667,43.717276183041704L549.0333333333333,43.84147925810387L550.24,43.68418260054161L551.4466666666667,43.66763580929152L552.6533333333333,43.33649570291696L553.86,43.270308537916726L555.0666666666667,43.09646508910442L556.2733333333333,42.624677257104416L557.48,41.87138969247995L558.6866666666666,42.32663073322995L559.8933333333333,41.79692913185469L561.1,41.22575841166759L562.3066666666666,40.58012713085524L563.5133333333333,40.51393996585505L564.72,40.58012713085524L565.9266666666666,40.795337557792706L567.1333333333333,42.4839273907922L568.34,43.03027792410423L569.5466666666666,42.61640386147935L570.7533333333333,42.07005332816737L571.96,41.26712538979275L573.1666666666666,42.01213955879216L574.3733333333333,42.92262164029212L575.58,42.82334089279179L576.7866666666666,41.258851994167735L577.9933333333333,39.74410560998054L579.2,39.25577098673044L580.4066666666666,40.63804090023045L581.6133333333333,41.697546243667645L582.82,41.258851994167735L584.0266666666666,40.72087699716745L585.2333333333333,40.05869892510505L586.44,40.37319009954284L587.6466666666666,41.60653889179234L588.8533333333334,42.17770961197944L590.06,42.49220078641723L591.2666666666667,42.38464664329188L592.4733333333334,42.34317752448L593.68,41.66445266116755L594.8866666666667,42.227349985729624L596.0933333333334,43.28685532916682L597.3,43.568252921104474L598.5066666666667,43.882846236228986L599.7133333333334,43.89111963185401L600.92,44.04841628941627L602.1266666666667,44.29672029885383L603.3333333333334,44.47056374766613L604.54,45.04163232716651L605.7466666666667,45.67899021235384L606.9533333333334,45.50524890422825L608.16,45.058179118416554L609.3666666666667,44.13942364129157L610.5733333333334,43.51033915172926L611.78,43.74209636991678L612.9866666666667,44.50365733016627L614.1933333333334,45.033358931541486L615.4,44.51193072579129L616.6066666666667,43.78346334804194L617.8133333333334,43.104738484729445L619.02,42.2190765901046L620.2266666666667,43.01373113285414L621.4333333333333,43.634542226791424L622.64,42.98891094597907L623.8466666666667,41.954225789416945L625.0533333333333,41.432695442980034L626.26,42.500474182042254L627.4666666666667,43.65936241366649L628.6733333333333,44.58639128641655L629.88,44.934078184041155L631.0866666666667,44.636031660166694L632.2933333333333,45.372772433541066L633.5,46.45709796385338L634.7066666666667,47.46696293354039L635.9133333333333,48.12914100560279L637.12,48.31953124566518L638.3266666666667,47.971844348040534L639.5333333333333,48.460281111977345L640.74,49.072818810289604L641.9466666666667,49.08109220591463L643.1533333333333,48.33607803691523L644.36,47.54142349416564L645.5666666666667,48.12914100560279L646.7733333333333,48.98998271335261L647.98,49.37903658910238L649.1866666666666,48.625851165164626L650.3933333333333,47.218658924102826L651.6,48.4437343207273L652.8066666666666,49.147279370914866L654.0133333333333,50.19023792310201L655.22,49.90056693553929L656.4266666666666,48.49337469447749L657.6333333333333,47.16901855035268L658.84,47.02408091588456L660.0466666666666,47.78145410797818L661.2533333333333,48.038133653727485L662.46,47.913930578665365L663.6666666666666,47.1275494315408L664.8733333333333,47.22693231972785L666.08,48.162234588102926L667.2866666666666,48.68376493453984L668.4933333333333,48.24507068503993L669.7,48.84933498772712L670.9066666666666,48.99825610897763L672.1133333333333,50.554471611976666L673.32,51.83746077797635L674.5266666666666,51.895374547351516L675.7333333333333,51.00971265272667L676.94,50.554471611976666L678.1466666666666,51.56433658166372L679.3533333333334,52.87214593453847L680.56,52.83077895641331L681.7666666666667,51.986484039913584L682.9733333333334,51.18355610153897L684.18,50.78622883016418L685.3866666666667,51.274563453414274L686.5933333333334,51.8540075692264L687.8,51.80436719547621L689.0066666666667,51.21664968403907L690.2133333333334,50.744861852039016L691.42,50.73658845641399L692.6266666666667,51.49804727597677L693.8333333333334,52.22651465372612L695.04,52.41690489378847L696.2466666666667,51.522867462851835L697.4533333333334,51.42358671535151L698.66,53.88201090422548L699.8666666666667,55.992748195474846L701.0733333333334,55.33884351903747L702.28,54.53591558066286L703.4866666666667,53.633604754101206L704.6933333333334,53.15354352647613L705.9,54.477899670600934L707.1066666666667,55.065617182038075L708.3133333333334,54.544188976287884L709.52,52.5990217382258L710.7266666666667,51.249743266539205L711.9333333333333,52.276155027476264L713.14,52.797583233226455L714.3466666666667,52.54100582816387L715.5533333333333,51.307657035914374L716.76,50.05776145241482L717.9666666666667,49.72672348672698L719.1733333333333,50.73658845641399L720.38,51.66361732916405L721.5866666666667,51.42358671535151L722.7933333333333,50.281245274977316L724,49.047998623414536L725.2066666666667,48.418914133852226L726.4133333333334,49.188646349039985L727.6199999999999,49.44522375410257L728.8266666666666,49.72672348672698L730.0333333333333,49.51151305978952L731.24,48.311257850040114L732.4466666666667,46.83787844397808L733.6533333333334,45.9770367362283L734.8599999999999,46.05149729685356L736.0666666666666,46.904065608978314L737.2733333333333,48.22025049816481L738.48,48.038133653727485L739.6866666666667,48.460281111977345L740.8933333333334,48.89070196585228L742.0999999999999,48.60920223322786L743.3066666666666,49.28802923722707L744.5133333333333,49.57770022478975L745.72,49.69362990422689L746.9266666666667,48.79131907766519L748.1333333333334,46.44882456822831L749.3399999999999,44.9837185577913L750.5466666666666,45.563162673603465L751.7533333333333,46.62266801704066L752.96,46.250160932540936L754.1666666666667,45.19892898472877L755.3733333333332,43.85802604935391L756.5799999999999,43.568252921104474L757.7866666666666,43.29512872479184L758.9933333333333,43.11301188035447L760.2,42.23562338135464L761.4066666666668,41.3334146954797L762.6133333333332,42.09487351504244L763.8199999999999,43.28685532916682L765.0266666666666,43.07991829785438L766.2333333333333,42.65777083960451L767.44,41.35823488235478L768.6466666666668,40.78706416216768L769.8533333333332,40.52221336148007L771.06,40.985727797855056L772.2666666666667,40.95263421535496L773.4733333333334,40.51393996585505L774.6800000000001,39.13156791166832L775.8866666666668,38.47766323523094L777.0933333333332,38.196265643293245L778.3,37.989328611980845L779.5066666666667,37.9562350294807L780.7133333333334,37.732649066231495L781.9200000000001,37.11183797229426L783.1266666666668,35.257780226794196L784.3333333333333,35.45644386248161L785.54,35.679927685044056L786.7466666666667,35.72129466316922L787.9533333333334,35.704747871919174L789.1600000000001,34.71970308910719L790.3666666666666,33.30423745242037L791.5733333333333,33.014566464857644L792.78,33.91677515073258L793.9866666666667,34.04925162141977L795.1933333333334,33.04766004735778L796.4000000000001,32.3358416015452L797.6066666666666,31.681936925107816L798.8133333333333,31.425257379358513L800.02,31.441804170608563L801.2266666666667,31.292883049358046L802.4333333333334,31.11076620492072L803.6400000000001,31.288695281202177L804.8466666666666,30.506501902233527L806.0533333333333,29.736667546359012L807.26,30.15881500460888L808.4666666666667,31.756397485733075L809.6733333333334,32.81590282917027L810.8800000000001,32.03779507767073L812.0866666666666,30.754805911671088L813.2933333333333,31.143859787420816L814.5,30.630704977295647L815.7066666666667,29.761487733234084L816.9133333333334,30.30783826654611L818.1199999999999,31.259789466857953L819.3266666666666,30.796172889796207L820.5333333333333,29.331066879359195L821.74,28.428858193484256L822.9466666666667,28.362671028484023L824.1533333333334,29.120044220577643L825.3599999999999,29.389082789421124L826.5666666666666,29.579370888796756L827.7733333333333,28.94201300360943L828.98,28.097718087109698L830.1866666666667,27.55146969448439L831.3933333333334,27.849414077672137L832.5999999999999,28.693708994171867L833.8066666666666,29.165598966858635L835.0133333333333,30.465134924108366L836.22,29.653933590108732L837.4266666666667,28.99175551804633L838.6333333333334,29.819503643296013L839.8399999999999,30.88728238235823L841.0466666666666,31.91369414329533L842.2533333333333,31.872225024483452L843.46,31.201773556796024L844.6666666666667,31.119039600545744L845.8733333333332,32.20336513085801L847.0799999999999,32.9151835766706L848.2866666666666,33.81749440323225L849.4933333333333,33.37052675810732L850.7,33.42844052748253L851.9066666666668,33.1718631224199L853.1133333333332,34.165079160170144L854.3199999999999,35.02602300860668L855.5266666666666,34.3223758177324L856.7333333333333,33.80094761198221L857.94,32.56759881973271L859.1466666666668,33.18840991366999L860.3533333333332,34.29347000338817L861.56,35.8371222019196L862.7666666666667,36.350379152731485L863.9733333333334,37.103564576669235L865.1800000000001,36.69806605035613L866.3866666666668,36.88835414973177L867.5933333333332,37.71610227498145L868.8,39.942769245667954L870.0066666666667,41.60653889179234L871.2133333333334,41.598265496167315L872.4200000000001,40.712603601542426L873.6266666666668,39.86830868504269L874.8333333333333,39.479254809292925L876.04,40.58012713085524L877.2466666666667,41.780382340604646L878.4533333333334,43.51861254735429L879.6600000000001,43.717276183041704L880.8666666666666,42.16116282072939L882.0733333333333,40.53876015273012L883.28,40.37319009954284L884.4866666666667,41.1926648291675L885.6933333333334,42.38464664329188L886.9000000000001,42.939168431542164L888.1066666666666,42.88952805779202L889.3133333333333,42.53356776454235L890.52,42.30181054635484L891.7266666666667,42.053506536917276L892.9333333333334,42.9971843416041L894.1400000000001,43.18757458166649L895.3466666666666,43.33649570291696L896.5533333333333,43.34476909854198L897.76,43.270308537916726L898.9666666666667,42.053506536917276L900.1733333333334,42.00386616316713L901.3800000000001,42.36809985204179L902.5866666666666,42.339091897010846L903.7933333333333,41.94595239379192L905,41.81347592310478L906.2066666666667,42.5501145557924L907.4133333333334,43.24548835104166L908.6199999999999,43.84975265372889L909.8266666666666,44.22215759754185L911.0333333333333,44.90098460154106L912.24,46.07631748372863L913.4466666666667,47.06136226654057L914.6533333333334,47.831196622415085L915.8599999999999,48.038133653727485L917.0666666666666,48.4437343207273L918.2733333333333,48.733405308290024L919.48,50.17369113185192L920.6866666666667,51.93674152547668L921.8933333333334,51.77127361297612L923.0999999999999,51.266290057789256L924.3066666666666,50.72831506078897L925.5133333333333,50.99316586147658L926.72,52.73139606822627L927.9266666666667,53.31911357966341L929.1333333333334,52.95487989078871L930.3399999999999,51.224923079664094L931.5466666666666,51.00971265272667L932.7533333333333,52.276155027476264L933.96,53.55087079785092L935.1666666666667,53.68334726853811L936.3733333333332,53.40184753591369L937.5799999999999,53.62533135847618L938.7866666666666,54.07240114428783L939.9933333333333,55.926458889787895L941.2,56.729386828162504L942.4066666666668,55.843724933537615L943.6133333333332,54.71803242510019L944.8199999999999,54.45307948372586L946.0266666666666,55.22291383960033L947.2333333333333,56.4645360274749L948.44,57.66479123722426L949.6466666666668,58.99742077697413L950.8533333333332,59.20435780828653L952.06,59.08015473322441L953.2666666666667,58.31042251803661L954.4733333333334,57.838634686036606L955.6800000000001,58.318695913661635L956.8866666666668,60.040379329161276L958.0933333333332,60.99233052947307L959.3,61.88626581972299L960.5066666666667,61.74551595341078L961.7133333333334,61.20754095641054L962.9200000000001,60.99233052947307L964.1266666666668,60.90122103691105L965.3333333333333,61.50548533959829L966.54,61.8200786547228L967.7466666666667,62.25877290422271L968.9533333333334,61.87799242409797L970.1600000000001,61.33164189078594L971.3666666666666,61.215814352035565L972.5733333333333,61.62141501903538L973.78,62.63955338434746L974.9866666666667,63.30173145640986L976.1933333333334,63.334825038909955L977.4000000000001,63.78179268403493L978.6066666666666,63.81488626653503L979.8133333333333,64.01354990222241L981.02,64.5516270399094L982.2266666666667,65.0978754325347L983.4333333333334,66.11601379784675L984.6400000000001,66.34777101603426L985.8466666666666,66.00018625909637L987.0533333333333,64.85784481872217L988.26,64.17911995540969L989.4666666666667,64.4108771735972L990.6733333333334,64.75856407122184L991.8800000000001,64.75029067559682L993.0866666666666,65.06478185003458L994.2933333333333,64.72536834803499L995.5,64.53508024865936L996.7066666666667,64.36951019547207L997.9133333333334,64.35296340422202L999.1199999999999,64.344690008597L1000.3266666666666,64.4356973604723L1001.5333333333333,65.32963265072219L1002.74,64.76683746684687L1003.9466666666667,63.88107343153526L1005.1533333333334,62.56499068303548L1006.3599999999999,61.01715071634819L1007.5666666666666,60.48734697428621L1008.7733333333333,60.57018307122321L1009.98,60.338425853035695L1011.1866666666667,58.62491369247441L1012.3933333333334,56.555543379350205L1013.5999999999999,56.26587239178748L1014.8066666666666,56.54726998372518L1016.0133333333333,57.2095501964743L1017.22,57.143260890787346L1018.4266666666667,56.29069257866255L1019.6333333333334,55.18154686147521L1020.8399999999999,54.57728255878798L1022.0466666666666,55.60369431972508L1023.2533333333333,55.777537768537385L1024.46,55.9762014042248L1025.6666666666667,55.66988148472531L1026.8733333333332,55.79408455978743L1028.08,56.4645360274749L1029.2866666666666,56.812222925099505L1030.4933333333333,57.09362051703716L1031.7,57.30883094397463L1032.9066666666668,57.1267140995373L1034.1133333333332,57.34192452647472L1035.32,57.27573736147453L1036.5266666666666,56.795676133849454L1037.7333333333333,57.424760623411764L1038.94,58.40970326553694L1040.1466666666668,58.50908615372403L1041.3533333333332,58.020649389787216L1042.56,57.53231476653712L1043.7666666666667,57.48267439278693L1044.9733333333334,58.50908615372403L1046.18,58.76566355878661L1047.3866666666668,59.013967568224174L1048.5933333333332,59.535497914661086L1049.8,60.28868333859884L1051.0066666666667,60.57018307122321L1052.2133333333334,60.19767598672353L1053.42,61.70414897528566L1054.6266666666668,62.85476381128488L1055.8333333333333,63.583129048347516L1057.04,64.44397075609733L1058.2466666666667,64.90748519247232L1059.4533333333334,65.51174949515955L1060.66,65.88425657965924L1061.8666666666666,66.10774040222172L1063.0733333333333,66.50506767359651L1064.28,66.39741138978444L1065.4866666666667,66.48024748672144L1066.6933333333334,66.21539668603383L1067.9,65.4372889345343L1069.1066666666666,64.8992117968473L1070.3133333333333,65.33790604634724L1071.52,65.0399616631595L1072.7266666666667,64.9489543112842L1073.9333333333334,64.93230537934743L1075.14,65.52002289078457L1076.3466666666666,67.01822248372169L1077.5533333333333,67.97844707965855L1078.76,68.25984467159621L1079.9666666666667,67.88743972778325L1081.1733333333334,67.34936259009625L1082.38,67.2997222163461L1083.5866666666666,67.9039865190333L1084.7933333333333,68.12747034159578L1086,67.56457301703371L1087.2066666666667,67.4238231507215L1088.4133333333334,66.62099735303364L1089.62,66.46370069547139L1090.8266666666666,66.71200470490895L1092.0333333333333,67.11760537190877L1093.24,66.7037313092839L1094.4466666666667,66.19884989478375L1095.6533333333334,66.12428719347177L1096.86,66.62927074865867L1098.0666666666666,68.5661645910957L1099.2733333333333,68.55789119547067L1100.48,68.37577435103334L1101.6866666666667,68.36750095540832L1102.8933333333334,68.14401713284583L1104.1,68.6240783604709L1105.3066666666666,68.93867167559542L1106.5133333333333,69.06277260997082L1107.72,68.30958718603311L1108.9266666666667,67.28317542509605L1110.1333333333334,65.7849758321589L1111.34,65.96699053590952L1112.5466666666666,66.75337168303408L1113.7533333333333,66.80301205678425L1114.96,66.54643465172164L1116.1666666666667,66.21539668603383L1117.3733333333332,66.12428719347177L1118.58,66.43060711297126L1119.7866666666666,66.33122422478421L1120.9933333333333,67.02649587934671L1122.2,67.81287702647127L1123.4066666666668,68.18538411097099L1124.6133333333332,67.71359627897094L1125.82,67.53147943453361L1127.0266666666666,67.69704948772089L1128.2333333333333,68.21847769347109L1129.44,68.0198140577837L1130.6466666666668,68.32613397728316L1131.8533333333332,67.32454240322117L1133.06,65.76005350459711L1134.2666666666667,64.3198698217219L1135.4733333333334,64.16257316415964L1136.68,65.23862529884688L1137.8866666666668,66.26503705978398L1139.0933333333332,66.2402168729089L1140.3,66.09119361097167L1141.5066666666667,65.80152262340896L1142.7133333333334,66.46370069547139L1143.92,66.8693013624712L1145.1266666666668,68.28466485847132L1146.3333333333333,68.90547595240857L1147.54,69.1621554981579L1148.7466666666667,68.64889854734598L1149.9533333333334,68.69853892109616L1151.16,68.43368812040855L1152.3666666666666,69.26970964128326L1153.5733333333333,69.43527969447054L1154.78,69.2283426631581L1155.9866666666667,68.657171942971L1157.1933333333334,68.04463424465878L1158.4,67.58939320390878L1159.6066666666666,67.58939320390878L1160.8133333333333,67.8211504220963L1162.02,67.9039865190333L1163.2266666666667,68.04463424465878L1164.4333333333334,67.57284641265873L1165.64,67.4238231507215L1166.8466666666666,67.28317542509605L1168.0533333333333,66.85275457122113L1169.26,67.9288067059084L1170.4666666666667,68.71518785303293L1171.6733333333334,69.112412983721L1172.88,68.6240783604709L1174.0866666666666,66.43888050859628L1175.2933333333333,65.37937516515909L1176.5,65.90080337090932L1177.7066666666667,67.4238231507215L1178.9133333333334,68.12747034159578L1180.12,67.9949938709086L1181.3266666666666,66.42233371734623L1182.5333333333333,65.76005350459711L1183.74,66.28158385103403L1184.9466666666667,67.2168861194091L1186.1533333333334,67.84597060897137L1187.36,67.88743972778325L1188.5666666666666,67.14242555878384L1189.7733333333333,66.83620777997108L1190.98,67.23343291065915L1192.1866666666667,67.51493264328353L1193.3933333333334,68.36750095540832L1194.6,67.68050269647084L1195.8066666666666,67.54802622578366L1197.0133333333333,67.43209654634653L1198.22,67.79633023522122L1199.4266666666667,69.04622581872077L1200.6333333333334,68.7069144574079L1201.84,68.64889854734598L1203.0466666666666,68.59925817359583L1204.2533333333333,68.25157127597119L1205.46,68.25984467159621L1206.6666666666667,68.5909847779708L1207.8733333333332,68.93867167559542L1209.08,69.43527969447054L1210.2866666666666,68.95521846684547L1211.4933333333333,67.62248678640891L1212.7,67.27490202947102L1213.9066666666668,66.59607502547182L1215.1133333333332,66.68718451803385L1216.32,67.12587876753379L1217.5266666666666,67.15897235003389L1218.7333333333333,66.5878016298468L1219.94,66.10774040222172L1221.1466666666668,65.79324922778393L1222.3533333333332,64.95722770690922L1223.56,64.57644722678448L1224.7666666666667,64.84129802747212L1225.9733333333334,64.59299401803456L1227.18,64.01354990222241L1228.3866666666668,62.978864745660324L1229.5933333333332,62.407694025473226L1230.8,62.39942062984816L1232.0066666666667,63.32655164328493L1233.2133333333334,63.922542550347096L1234.42,63.23544215072291L1235.6266666666668,61.95245298472322L1236.8333333333333,62.035289081660224L1238.04,63.351371830160005L1239.2466666666667,65.23035190322186L1240.4533333333334,66.1573807759719L1241.66,66.35604441165928L1242.8666666666666,66.34777101603426L1244.0733333333333,66.22367008165885L1245.28,67.01822248372169L1246.4866666666667,68.17711071534596L1247.6933333333334,68.21020429784606L1248.9,67.83769721334635L1250.1066666666666,67.05969160253356L1251.3133333333333,66.71200470490895L1252.52,67.65558036890901L1253.7266666666667,68.30958718603311L1254.9333333333334,68.16056392409588L1256.14,66.88584815372126L1257.3466666666666,65.95044374465947L1258.5533333333333,66.44715390422131L1259.76,66.50506767359651L1260.9666666666667,67.16724574565892L1262.1733333333334,67.04314481128351L1263.38,67.61421339078389L1264.5866666666666,68.57443798672072L1265.7933333333333,69.53456044197087L1267,69.0214056318457L1268.2066666666667,69.42700629884551L1269.4133333333334,70.43687126853253L1270.62,71.52119679884483L1271.8266666666666,71.81914118203254L1273.0333333333333,72.2081950577823L1274.24,72.6634360985323L1275.4466666666667,72.99457620490686L1276.6533333333334,72.92011564428161L1277.86,73.33398970690645L1279.0666666666666,73.95480080084373L1280.2733333333333,75.13840707865633L1281.48,75.85032766515563L1282.6866666666667,75.1301336830313L1283.8933333333334,74.98948595740582L1285.1,75.1632272655314L1286.3066666666666,74.87355627796872L1287.5133333333333,75.6682108207183L1288.72,75.77576496384366L1289.9266666666667,74.90664986046882L1291.1333333333334,74.75762659853159L1292.34,74.61697887290613L1293.5466666666666,75.0060327486559L1294.7533333333333,75.7343979857185L1295.96,75.81713194196878L1297.1666666666667,74.96456362984402L1298.3733333333332,73.63193409009419L1299.58,73.15187286246912L1300.7866666666666,73.57402032071899L1301.9933333333333,75.01430614428092L1303.2,75.41163341565571L1304.4066666666668,75.08457893675028L1305.6133333333332,74.84046269546859L1306.82,74.59215868603103L1308.0266666666666,74.52586938034408L1309.2333333333333,74.96047800237487L1310.44,75.80885854634376L1311.6466666666668,75.95788180828099L1312.8533333333332,75.37435206499971L1314.06,74.65007245540623L1315.2666666666667,74.31893234903167L1316.4733333333334,74.29002653468744L1317.68,74.83218929984356L1318.8866666666668,76.06553809209309L1320.0933333333332,76.75253635103057L1321.3,76.75253635103057L1322.5066666666667,76.35520907965578L1323.7133333333334,75.61857044696812L1324.92,75.81713194196878L1326.1266666666668,75.7013044032184L1327.3333333333333,76.57869290221826" style="fill: none;" fill="none"></path></g></g></g></g></g></g><g transform="translate(50, 377)" clip-path="url(#clip_1)"><clipPath id="clip_1"><rect width="1448" height="23"></rect></clipPath><g><g><line x1="0" y1="0" x2="0" y2="5" style="visibility: inherit;" fill="rgb(0, 0, 0)" stroke="rgb(204, 204, 204)" stroke-width="1px"></line><line x1="120.66666666666666" y1="0" x2="120.66666666666666" y2="5" style="visibility: inherit;" fill="rgb(0, 0, 0)" stroke="rgb(204, 204, 204)" stroke-width="1px"></line><line x1="241.33333333333331" y1="0" x2="241.33333333333331" y2="5" style="visibility: inherit;" fill="rgb(0, 0, 0)" stroke="rgb(204, 204, 204)" stroke-width="1px"></line><line x1="362" y1="0" x2="362" y2="5" style="visibility: inherit;" fill="rgb(0, 0, 0)" stroke="rgb(204, 204, 204)" stroke-width="1px"></line><line x1="482.66666666666663" y1="0" x2="482.66666666666663" y2="5" style="visibility: inherit;" fill="rgb(0, 0, 0)" stroke="rgb(204, 204, 204)" stroke-width="1px"></line><line x1="603.3333333333334" y1="0" x2="603.3333333333334" y2="5" style="visibility: inherit;" fill="rgb(0, 0, 0)" stroke="rgb(204, 204, 204)" stroke-width="1px"></line><line x1="724" y1="0" x2="724" y2="5" style="visibility: inherit;" fill="rgb(0, 0, 0)" stroke="rgb(204, 204, 204)" stroke-width="1px"></line><line x1="844.6666666666667" y1="0" x2="844.6666666666667" y2="5" style="visibility: inherit;" fill="rgb(0, 0, 0)" stroke="rgb(204, 204, 204)" stroke-width="1px"></line><line x1="965.3333333333333" y1="0" x2="965.3333333333333" y2="5" style="visibility: inherit;" fill="rgb(0, 0, 0)" stroke="rgb(204, 204, 204)" stroke-width="1px"></line><line x1="1086" y1="0" x2="1086" y2="5" style="visibility: inherit;" fill="rgb(0, 0, 0)" stroke="rgb(204, 204, 204)" stroke-width="1px"></line><line x1="1206.6666666666667" y1="0" x2="1206.6666666666667" y2="5" style="visibility: inherit;" fill="rgb(0, 0, 0)" stroke="rgb(204, 204, 204)" stroke-width="1px"></line><line x1="1327.3333333333333" y1="0" x2="1327.3333333333333" y2="5" style="visibility: inherit;" fill="rgb(0, 0, 0)" stroke="rgb(204, 204, 204)" stroke-width="1px"></line><line x1="1448" y1="0" x2="1448" y2="5" style="visibility: inherit;" fill="rgb(0, 0, 0)" stroke="rgb(204, 204, 204)" stroke-width="1px"></line></g><g transform="translate(0, 8)"><text x="0" y="0" dx="0em" dy="0.95em" style="text-anchor: middle; visibility: hidden; font-family: Roboto, sans-serif; font-size: 12px; font-weight: 200;" fill="rgb(255, 255, 255)" stroke="none" stroke-width="1px">-100</text><text x="120.66666666666666" y="0" dx="0em" dy="0.95em" style="text-anchor: middle; visibility: inherit; font-family: Roboto, sans-serif; font-size: 12px; font-weight: 200;" fill="rgb(255, 255, 255)" stroke="none" stroke-width="1px">0</text><text x="241.33333333333331" y="0" dx="0em" dy="0.95em" style="text-anchor: middle; visibility: inherit; font-family: Roboto, sans-serif; font-size: 12px; font-weight: 200;" fill="rgb(255, 255, 255)" stroke="none" stroke-width="1px">100</text><text x="362" y="0" dx="0em" dy="0.95em" style="text-anchor: middle; visibility: inherit; font-family: Roboto, sans-serif; font-size: 12px; font-weight: 200;" fill="rgb(255, 255, 255)" stroke="none" stroke-width="1px">200</text><text x="482.66666666666663" y="0" dx="0em" dy="0.95em" style="text-anchor: middle; visibility: inherit; font-family: Roboto, sans-serif; font-size: 12px; font-weight: 200;" fill="rgb(255, 255, 255)" stroke="none" stroke-width="1px">300</text><text x="603.3333333333334" y="0" dx="0em" dy="0.95em" style="text-anchor: middle; visibility: inherit; font-family: Roboto, sans-serif; font-size: 12px; font-weight: 200;" fill="rgb(255, 255, 255)" stroke="none" stroke-width="1px">400</text><text x="724" y="0" dx="0em" dy="0.95em" style="text-anchor: middle; visibility: inherit; font-family: Roboto, sans-serif; font-size: 12px; font-weight: 200;" fill="rgb(255, 255, 255)" stroke="none" stroke-width="1px">500</text><text x="844.6666666666667" y="0" dx="0em" dy="0.95em" style="text-anchor: middle; visibility: inherit; font-family: Roboto, sans-serif; font-size: 12px; font-weight: 200;" fill="rgb(255, 255, 255)" stroke="none" stroke-width="1px">600</text><text x="965.3333333333333" y="0" dx="0em" dy="0.95em" style="text-anchor: middle; visibility: inherit; font-family: Roboto, sans-serif; font-size: 12px; font-weight: 200;" fill="rgb(255, 255, 255)" stroke="none" stroke-width="1px">700</text><text x="1086" y="0" dx="0em" dy="0.95em" style="text-anchor: middle; visibility: inherit; font-family: Roboto, sans-serif; font-size: 12px; font-weight: 200;" fill="rgb(255, 255, 255)" stroke="none" stroke-width="1px">800</text><text x="1206.6666666666667" y="0" dx="0em" dy="0.95em" style="text-anchor: middle; visibility: inherit; font-family: Roboto, sans-serif; font-size: 12px; font-weight: 200;" fill="rgb(255, 255, 255)" stroke="none" stroke-width="1px">900</text><text x="1327.3333333333333" y="0" dx="0em" dy="0.95em" style="text-anchor: middle; visibility: inherit; font-family: Roboto, sans-serif; font-size: 12px; font-weight: 200;" fill="rgb(255, 255, 255)" stroke="none" stroke-width="1px">1k</text><text x="1448" y="0" dx="0em" dy="0.95em" style="text-anchor: middle; visibility: hidden; font-family: Roboto, sans-serif; font-size: 12px; font-weight: 200;" fill="rgb(255, 255, 255)" stroke="none" stroke-width="1px">1.1k</text></g><line x1="0" y1="0" x2="1448" y2="0" fill="rgb(0, 0, 0)" stroke="rgb(204, 204, 204)" stroke-width="1px"></line></g></g></g></g></svg>